Amiri-Bold.ufo
<glyph name="exclam" format="2">
	<unicode hex="0021"/>
	<advance width="263"/>
	<outline>
		<contour>
			<point x="135" y="671" type="curve" smooth="yes"/>
			<point x="151" y="671"/>
			<point x="165" y="665"/>
			<point x="177" y="653" type="curve" smooth="yes"/>
			<point x="189" y="641"/>
			<point x="195" y="624"/>
			<point x="195" y="604" type="curve" smooth="yes"/>
			<point x="195" y="591"/>
			<point x="190" y="535"/>
			<point x="180" y="435" type="curve" smooth="yes"/>
			<point x="171" y="358"/>
			<point x="162" y="285"/>
			<point x="154" y="216" type="curve" smooth="yes"/>
			<point x="152" y="199"/>
			<point x="146" y="191"/>
			<point x="134" y="191" type="curve" smooth="yes"/>
			<point x="121" y="191"/>
			<point x="113" y="200"/>
			<point x="111" y="217" type="curve" smooth="yes"/>
			<point x="101" y="291"/>
			<point x="93" y="360"/>
			<point x="86" y="424" type="curve" smooth="yes"/>
			<point x="76" y="522"/>
			<point x="70" y="582"/>
			<point x="70" y="605" type="curve" smooth="yes"/>
			<point x="70" y="625"/>
			<point x="77" y="641"/>
			<point x="89" y="653" type="curve" smooth="yes"/>
			<point x="101" y="665"/>
			<point x="117" y="671"/>
		</contour>
		<component base="dot.2" xOffset="-27"/>
	</outline>
</glyph>
<glyph name="parenleft" format="2">
	<unicode hex="0028"/>
	<advance width="458"/>
	<outline>
		<contour>
			<point x="259" y="167" type="curve" smooth="yes"/>
			<point x="259" y="317"/>
			<point x="289" y="453"/>
			<point x="350" y="574" type="curve" smooth="yes"/>
			<point x="378" y="630"/>
			<point x="406" y="670"/>
			<point x="433" y="693" type="curve"/>
			<point x="421" y="720" type="line" smooth="yes"/>
			<point x="366" y="691"/>
			<point x="316" y="646"/>
			<point x="269" y="586" type="curve" smooth="yes"/>
			<point x="178" y="469"/>
			<point x="133" y="330"/>
			<point x="133" y="167" type="curve" smooth="yes"/>
			<point x="133" y="3"/>
			<point x="178" y="-136"/>
			<point x="269" y="-253" type="curve" smooth="yes"/>
			<point x="316" y="-313"/>
			<point x="366" y="-358"/>
			<point x="421" y="-387" type="curve" smooth="yes"/>
			<point x="433" y="-360" type="line"/>
			<point x="406" y="-337"/>
			<point x="378" y="-297"/>
			<point x="350" y="-241" type="curve" smooth="yes"/>
			<point x="289" y="-120"/>
			<point x="259" y="16"/>
		</contour>
	</outline>
</glyph>
<glyph name="parenright" format="2">
	<unicode hex="0029"/>
	<advance width="458"/>
	<outline>
		<contour>
			<point x="200" y="167" type="curve" smooth="yes"/>
			<point x="200" y="317"/>
			<point x="170" y="453"/>
			<point x="109" y="574" type="curve" smooth="yes"/>
			<point x="81" y="630"/>
			<point x="53" y="670"/>
			<point x="26" y="693" type="curve"/>
			<point x="38" y="720" type="line" smooth="yes"/>
			<point x="93" y="691"/>
			<point x="143" y="646"/>
			<point x="190" y="586" type="curve" smooth="yes"/>
			<point x="281" y="469"/>
			<point x="326" y="330"/>
			<point x="326" y="167" type="curve" smooth="yes"/>
			<point x="326" y="3"/>
			<point x="281" y="-136"/>
			<point x="190" y="-253" type="curve" smooth="yes"/>
			<point x="143" y="-313"/>
			<point x="93" y="-358"/>
			<point x="38" y="-387" type="curve" smooth="yes"/>
			<point x="26" y="-360" type="line"/>
			<point x="53" y="-337"/>
			<point x="81" y="-297"/>
			<point x="109" y="-241" type="curve" smooth="yes"/>
			<point x="170" y="-120"/>
			<point x="200" y="16"/>
		</contour>
	</outline>
</glyph>
<glyph name="period" format="2">
	<unicode hex="002E"/>
	<advance width="317"/>
	<outline>
		<contour>
			<point x="106" y="214" type="line" smooth="yes"/>
			<point x="110" y="223"/>
			<point x="116" y="229"/>
			<point x="125" y="232" type="curve" smooth="yes"/>
			<point x="134" y="235"/>
			<point x="145" y="233"/>
			<point x="157" y="224" type="curve" smooth="yes"/>
			<point x="244" y="163" type="line" smooth="yes"/>
			<point x="260" y="151"/>
			<point x="263" y="132"/>
			<point x="252" y="105" type="curve"/>
			<point x="213" y="12" type="line" smooth="yes"/>
			<point x="208" y="1"/>
			<point x="200" y="-6"/>
			<point x="190" y="-10" type="curve" smooth="yes"/>
			<point x="180" y="-14"/>
			<point x="168" y="-10"/>
			<point x="153" y="1" type="curve" smooth="yes"/>
			<point x="78" y="58" type="line" smooth="yes"/>
			<point x="60" y="72"/>
			<point x="55" y="89"/>
			<point x="62" y="107" type="curve" smooth="yes"/>
		</contour>
	</outline>
</glyph>
<glyph name="slash" format="2">
	<unicode hex="002F"/>
	<advance width="344"/>
	<outline>
		<contour>
			<point x="314" y="711" type="curve" smooth="yes"/>
			<point x="325" y="711"/>
			<point x="332" y="709"/>
			<point x="333" y="704" type="curve"/>
			<point x="81" y="-182" type="line"/>
			<point x="80" y="-187"/>
			<point x="74" y="-192"/>
			<point x="66" y="-196" type="curve" smooth="yes"/>
			<point x="58" y="-200"/>
			<point x="47" y="-203"/>
			<point x="32" y="-203" type="curve" smooth="yes"/>
			<point x="28" y="-203"/>
			<point x="24" y="-202"/>
			<point x="21" y="-201" type="curve" smooth="yes"/>
			<point x="18" y="-200"/>
			<point x="16" y="-199"/>
			<point x="15" y="-198" type="curve" smooth="yes"/>
			<point x="14" y="-196" type="line"/>
			<point x="267" y="690" type="line"/>
			<point x="270" y="695"/>
			<point x="275" y="700"/>
			<point x="283" y="705" type="curve" smooth="yes"/>
			<point x="291" y="710"/>
			<point x="301" y="711"/>
		</contour>
	</outline>
</glyph>
<glyph name="bracketleft" format="2">
	<unicode hex="005B"/>
	<advance width="361"/>
	<outline>
		<contour>
			<point x="126" y="713" type="curve" smooth="yes"/>
			<point x="206" y="713"/>
			<point x="273" y="719"/>
			<point x="326" y="729" type="curve"/>
			<point x="329" y="729"/>
			<point x="331" y="727"/>
			<point x="332" y="723" type="curve" smooth="yes"/>
			<point x="332" y="722"/>
			<point x="332" y="721"/>
			<point x="332" y="720" type="curve" smooth="yes"/>
			<point x="332" y="715"/>
			<point x="329" y="707"/>
			<point x="323" y="695" type="curve" smooth="yes"/>
			<point x="323" y="694"/>
			<point x="322" y="694"/>
			<point x="322" y="694" type="curve" smooth="yes"/>
			<point x="309" y="687"/>
			<point x="280" y="680"/>
			<point x="232" y="672" type="curve" smooth="yes"/>
			<point x="223" y="670"/>
			<point x="216" y="669"/>
			<point x="212" y="668" type="curve"/>
			<point x="212" y="-338" type="line"/>
			<point x="217" y="-339"/>
			<point x="225" y="-341"/>
			<point x="238" y="-343" type="curve" smooth="yes"/>
			<point x="277" y="-350"/>
			<point x="305" y="-356"/>
			<point x="322" y="-364" type="curve" smooth="yes"/>
			<point x="326" y="-366"/>
			<point x="329" y="-371"/>
			<point x="331" y="-379" type="curve" smooth="yes"/>
			<point x="332" y="-383"/>
			<point x="332" y="-387"/>
			<point x="332" y="-390" type="curve" smooth="yes"/>
			<point x="332" y="-395"/>
			<point x="330" y="-397"/>
			<point x="326" y="-398" type="curve"/>
			<point x="272" y="-388"/>
			<point x="205" y="-383"/>
			<point x="126" y="-383" type="curve"/>
			<point x="116" y="-382"/>
			<point x="110" y="-376"/>
			<point x="108" y="-365" type="curve" smooth="yes"/>
			<point x="108" y="-363"/>
			<point x="107" y="-362"/>
			<point x="107" y="-360" type="curve" smooth="yes"/>
			<point x="107" y="690" type="line" smooth="yes"/>
			<point x="107" y="700"/>
			<point x="113" y="708"/>
			<point x="122" y="712" type="curve" smooth="yes"/>
			<point x="124" y="713"/>
			<point x="125" y="713"/>
		</contour>
	</outline>
</glyph>
<glyph name="backslash" format="2">
	<unicode hex="005C"/>
	<advance width="344"/>
	<outline>
		<contour>
			<point x="30" y="711" type="curve" smooth="yes"/>
			<point x="19" y="711"/>
			<point x="13" y="709"/>
			<point x="12" y="704" type="curve"/>
			<point x="264" y="-182" type="line"/>
			<point x="265" y="-187"/>
			<point x="270" y="-192"/>
			<point x="278" y="-196" type="curve" smooth="yes"/>
			<point x="286" y="-200"/>
			<point x="298" y="-203"/>
			<point x="313" y="-203" type="curve" smooth="yes"/>
			<point x="317" y="-203"/>
			<point x="321" y="-202"/>
			<point x="324" y="-201" type="curve" smooth="yes"/>
			<point x="327" y="-200"/>
			<point x="328" y="-199"/>
			<point x="329" y="-198" type="curve" smooth="yes"/>
			<point x="331" y="-196" type="line"/>
			<point x="78" y="690" type="line"/>
			<point x="75" y="695"/>
			<point x="70" y="700"/>
			<point x="62" y="705" type="curve" smooth="yes"/>
			<point x="54" y="710"/>
			<point x="43" y="711"/>
		</contour>
	</outline>
</glyph>
<glyph name="bracketright" format="2">
	<unicode hex="005D"/>
	<advance width="361"/>
	<outline>
		<contour>
			<point x="235" y="713" type="curve" smooth="yes"/>
			<point x="155" y="713"/>
			<point x="88" y="719"/>
			<point x="35" y="729" type="curve"/>
			<point x="32" y="729"/>
			<point x="31" y="727"/>
			<point x="30" y="723" type="curve" smooth="yes"/>
			<point x="30" y="722"/>
			<point x="29" y="721"/>
			<point x="29" y="720" type="curve" smooth="yes"/>
			<point x="29" y="715"/>
			<point x="32" y="707"/>
			<point x="38" y="695" type="curve" smooth="yes"/>
			<point x="38" y="694"/>
			<point x="39" y="694"/>
			<point x="39" y="694" type="curve" smooth="yes"/>
			<point x="52" y="687"/>
			<point x="81" y="680"/>
			<point x="129" y="672" type="curve" smooth="yes"/>
			<point x="138" y="670"/>
			<point x="145" y="669"/>
			<point x="149" y="668" type="curve"/>
			<point x="149" y="-338" type="line"/>
			<point x="144" y="-339"/>
			<point x="136" y="-341"/>
			<point x="123" y="-343" type="curve" smooth="yes"/>
			<point x="84" y="-350"/>
			<point x="56" y="-356"/>
			<point x="39" y="-364" type="curve" smooth="yes"/>
			<point x="35" y="-366"/>
			<point x="33" y="-371"/>
			<point x="31" y="-379" type="curve" smooth="yes"/>
			<point x="30" y="-383"/>
			<point x="29" y="-387"/>
			<point x="29" y="-390" type="curve" smooth="yes"/>
			<point x="29" y="-395"/>
			<point x="31" y="-397"/>
			<point x="35" y="-398" type="curve"/>
			<point x="89" y="-388"/>
			<point x="156" y="-383"/>
			<point x="235" y="-383" type="curve"/>
			<point x="245" y="-382"/>
			<point x="251" y="-376"/>
			<point x="253" y="-365" type="curve" smooth="yes"/>
			<point x="253" y="-363"/>
			<point x="254" y="-362"/>
			<point x="254" y="-360" type="curve" smooth="yes"/>
			<point x="254" y="690" type="line" smooth="yes"/>
			<point x="254" y="700"/>
			<point x="249" y="708"/>
			<point x="240" y="712" type="curve" smooth="yes"/>
			<point x="238" y="713"/>
			<point x="236" y="713"/>
		</contour>
	</outline>
</glyph>
<glyph name="braceleft" format="2">
	<unicode hex="007B"/>
	<advance width="397"/>
	<outline>
		<contour>
			<point x="129" y="153" type="line"/>
			<point x="184" y="121"/>
			<point x="208" y="84"/>
			<point x="199" y="39" type="curve" smooth="yes"/>
			<point x="196" y="22"/>
			<point x="185" y="-12"/>
			<point x="166" y="-62" type="curve" smooth="yes"/>
			<point x="149" y="-107"/>
			<point x="141" y="-154"/>
			<point x="142" y="-201" type="curve" smooth="yes"/>
			<point x="144" y="-290"/>
			<point x="171" y="-356"/>
			<point x="226" y="-399" type="curve" smooth="yes"/>
			<point x="241" y="-411"/>
			<point x="253" y="-412"/>
			<point x="261" y="-402" type="curve" smooth="yes"/>
			<point x="270" y="-390"/>
			<point x="270" y="-378"/>
			<point x="258" y="-366" type="curve" smooth="yes"/>
			<point x="215" y="-321"/>
			<point x="195" y="-274"/>
			<point x="197" y="-225" type="curve" smooth="yes"/>
			<point x="198" y="-208"/>
			<point x="209" y="-182"/>
			<point x="231" y="-145" type="curve" smooth="yes"/>
			<point x="266" y="-88"/>
			<point x="278" y="-27"/>
			<point x="266" y="38" type="curve" smooth="yes"/>
			<point x="256" y="97"/>
			<point x="227" y="140"/>
			<point x="182" y="166" type="curve"/>
			<point x="227" y="192"/>
			<point x="256" y="235"/>
			<point x="266" y="294" type="curve" smooth="yes"/>
			<point x="278" y="359"/>
			<point x="266" y="420"/>
			<point x="231" y="477" type="curve" smooth="yes"/>
			<point x="209" y="514"/>
			<point x="198" y="540"/>
			<point x="197" y="557" type="curve" smooth="yes"/>
			<point x="195" y="606"/>
			<point x="215" y="653"/>
			<point x="258" y="698" type="curve" smooth="yes"/>
			<point x="270" y="710"/>
			<point x="270" y="722"/>
			<point x="261" y="734" type="curve" smooth="yes"/>
			<point x="253" y="744"/>
			<point x="241" y="743"/>
			<point x="226" y="731" type="curve" smooth="yes"/>
			<point x="171" y="688"/>
			<point x="144" y="622"/>
			<point x="142" y="533" type="curve" smooth="yes"/>
			<point x="141" y="486"/>
			<point x="149" y="439"/>
			<point x="166" y="394" type="curve" smooth="yes"/>
			<point x="185" y="344"/>
			<point x="196" y="310"/>
			<point x="199" y="293" type="curve" smooth="yes"/>
			<point x="208" y="248"/>
			<point x="184" y="211"/>
			<point x="129" y="179" type="curve"/>
		</contour>
	</outline>
</glyph>
<glyph name="bar" format="2">
	<unicode hex="007C"/>
	<advance width="197"/>
	<outline>
		<contour>
			<point x="125" y="-370" type="line" smooth="yes"/>
			<point x="125" y="-374"/>
			<point x="110" y="-378"/>
			<point x="81" y="-384" type="curve" smooth="yes"/>
			<point x="79" y="-384"/>
			<point x="79" y="-384"/>
			<point x="78" y="-384" type="curve" smooth="yes"/>
			<point x="75" y="-384"/>
			<point x="72" y="-383"/>
			<point x="72" y="-381" type="curve" smooth="yes"/>
			<point x="72" y="-381"/>
			<point x="73" y="-380"/>
			<point x="73" y="-379" type="curve" smooth="yes"/>
			<point x="73" y="-378"/>
			<point x="73" y="-376"/>
			<point x="73" y="-376" type="curve" smooth="yes"/>
			<point x="73" y="705" type="line"/>
			<point x="74" y="710" type="line"/>
			<point x="75" y="711"/>
			<point x="77" y="712"/>
			<point x="78" y="713" type="curve" smooth="yes"/>
			<point x="89" y="716"/>
			<point x="102" y="718"/>
			<point x="116" y="718" type="curve"/>
			<point x="122" y="718"/>
			<point x="124" y="716"/>
			<point x="124" y="712" type="curve"/>
		</contour>
	</outline>
</glyph>
<glyph name="braceright" format="2">
	<unicode hex="007D"/>
	<advance width="397"/>
	<outline>
		<contour>
			<point x="266" y="153" type="line"/>
			<point x="211" y="121"/>
			<point x="187" y="84"/>
			<point x="196" y="39" type="curve" smooth="yes"/>
			<point x="199" y="22"/>
			<point x="210" y="-12"/>
			<point x="229" y="-62" type="curve" smooth="yes"/>
			<point x="246" y="-107"/>
			<point x="254" y="-154"/>
			<point x="253" y="-201" type="curve" smooth="yes"/>
			<point x="251" y="-290"/>
			<point x="224" y="-356"/>
			<point x="169" y="-399" type="curve" smooth="yes"/>
			<point x="154" y="-411"/>
			<point x="142" y="-412"/>
			<point x="134" y="-402" type="curve" smooth="yes"/>
			<point x="125" y="-390"/>
			<point x="125" y="-378"/>
			<point x="137" y="-366" type="curve" smooth="yes"/>
			<point x="180" y="-321"/>
			<point x="200" y="-274"/>
			<point x="198" y="-225" type="curve" smooth="yes"/>
			<point x="197" y="-208"/>
			<point x="186" y="-182"/>
			<point x="164" y="-145" type="curve" smooth="yes"/>
			<point x="129" y="-88"/>
			<point x="117" y="-27"/>
			<point x="129" y="38" type="curve" smooth="yes"/>
			<point x="139" y="97"/>
			<point x="168" y="140"/>
			<point x="213" y="166" type="curve"/>
			<point x="168" y="192"/>
			<point x="139" y="235"/>
			<point x="129" y="294" type="curve" smooth="yes"/>
			<point x="117" y="359"/>
			<point x="129" y="420"/>
			<point x="164" y="477" type="curve" smooth="yes"/>
			<point x="186" y="514"/>
			<point x="197" y="540"/>
			<point x="198" y="557" type="curve" smooth="yes"/>
			<point x="200" y="606"/>
			<point x="180" y="653"/>
			<point x="137" y="698" type="curve" smooth="yes"/>
			<point x="125" y="710"/>
			<point x="125" y="722"/>
			<point x="134" y="734" type="curve" smooth="yes"/>
			<point x="142" y="744"/>
			<point x="154" y="743"/>
			<point x="169" y="731" type="curve" smooth="yes"/>
			<point x="224" y="688"/>
			<point x="251" y="622"/>
			<point x="253" y="533" type="curve" smooth="yes"/>
			<point x="254" y="486"/>
			<point x="246" y="439"/>
			<point x="229" y="394" type="curve" smooth="yes"/>
			<point x="210" y="344"/>
			<point x="199" y="310"/>
			<point x="196" y="293" type="curve" smooth="yes"/>
			<point x="187" y="248"/>
			<point x="211" y="211"/>
			<point x="266" y="179" type="curve"/>
		</contour>
	</outline>
</glyph>
<glyph name="brokenbar" format="2">
	<unicode hex="00A6"/>
	<advance width="205"/>
	<outline>
		<contour>
			<point x="125" y="239" type="line"/>
			<point x="125" y="236"/>
			<point x="118" y="232"/>
			<point x="104" y="229" type="curve" smooth="yes"/>
			<point x="90" y="226"/>
			<point x="82" y="225"/>
			<point x="78" y="225" type="curve" smooth="yes"/>
			<point x="76" y="225"/>
			<point x="75" y="225"/>
			<point x="74" y="225" type="curve" smooth="yes"/>
			<point x="73" y="225"/>
			<point x="73" y="227"/>
			<point x="73" y="227" type="curve" smooth="yes"/>
			<point x="73" y="227"/>
			<point x="73" y="229"/>
			<point x="73" y="230" type="curve" smooth="yes"/>
			<point x="73" y="231"/>
			<point x="73" y="232"/>
			<point x="73" y="232" type="curve" smooth="yes"/>
			<point x="73" y="705" type="line"/>
			<point x="72" y="709"/>
			<point x="74" y="712"/>
			<point x="78" y="713" type="curve" smooth="yes"/>
			<point x="89" y="716"/>
			<point x="102" y="718"/>
			<point x="117" y="718" type="curve" smooth="yes"/>
			<point x="120" y="718"/>
			<point x="122" y="717"/>
			<point x="123" y="716" type="curve" smooth="yes"/>
			<point x="124" y="715"/>
			<point x="125" y="714"/>
			<point x="125" y="713" type="curve" smooth="yes"/>
			<point x="125" y="712" type="line"/>
		</contour>
		<contour>
			<point x="73" y="-376" type="curve" smooth="yes"/>
			<point x="73" y="92" type="line"/>
			<point x="72" y="96"/>
			<point x="74" y="99"/>
			<point x="78" y="100" type="curve" smooth="yes"/>
			<point x="89" y="103"/>
			<point x="102" y="104"/>
			<point x="117" y="104" type="curve" smooth="yes"/>
			<point x="120" y="104"/>
			<point x="122" y="104"/>
			<point x="123" y="103" type="curve" smooth="yes"/>
			<point x="124" y="102"/>
			<point x="125" y="101"/>
			<point x="125" y="100" type="curve" smooth="yes"/>
			<point x="125" y="99" type="line"/>
			<point x="125" y="-369" type="line"/>
			<point x="125" y="-372"/>
			<point x="118" y="-376"/>
			<point x="104" y="-379" type="curve" smooth="yes"/>
			<point x="90" y="-382"/>
			<point x="82" y="-384"/>
			<point x="78" y="-384" type="curve" smooth="yes"/>
			<point x="76" y="-384"/>
			<point x="75" y="-383"/>
			<point x="74" y="-383" type="curve" smooth="yes"/>
			<point x="73" y="-383"/>
			<point x="73" y="-382"/>
			<point x="73" y="-382" type="curve" smooth="yes"/>
			<point x="73" y="-382"/>
			<point x="73" y="-380"/>
			<point x="73" y="-379" type="curve" smooth="yes"/>
			<point x="73" y="-378"/>
			<point x="73" y="-376"/>
		</contour>
	</outline>
</glyph>
<glyph name="guillemotleft" format="2">
	<unicode hex="00AB"/>
	<advance width="415"/>
	<outline>
		<contour>
			<point x="195" y="333" type="curve"/>
			<point x="140" y="288"/>
			<point x="112" y="234"/>
			<point x="112" y="168" type="curve" smooth="yes"/>
			<point x="112" y="102"/>
			<point x="140" y="47"/>
			<point x="195" y="-1" type="curve" smooth="yes"/>
			<point x="206" y="-10"/>
			<point x="208" y="-22"/>
			<point x="201" y="-36" type="curve" smooth="yes"/>
			<point x="194" y="-50"/>
			<point x="182" y="-53"/>
			<point x="166" y="-45" type="curve"/>
			<point x="125" y="-24"/>
			<point x="92" y="5"/>
			<point x="69" y="43" type="curve" smooth="yes"/>
			<point x="46" y="81"/>
			<point x="34" y="123"/>
			<point x="34" y="167" type="curve" smooth="yes"/>
			<point x="34" y="211"/>
			<point x="46" y="252"/>
			<point x="70" y="290" type="curve" smooth="yes"/>
			<point x="94" y="328"/>
			<point x="126" y="357"/>
			<point x="166" y="377" type="curve" smooth="yes"/>
			<point x="182" y="385"/>
			<point x="195" y="382"/>
			<point x="202" y="369" type="curve" smooth="yes"/>
			<point x="209" y="356"/>
			<point x="207" y="343"/>
		</contour>
		<contour>
			<point x="370" y="333" type="curve"/>
			<point x="315" y="288"/>
			<point x="287" y="234"/>
			<point x="287" y="168" type="curve" smooth="yes"/>
			<point x="287" y="102"/>
			<point x="315" y="47"/>
			<point x="370" y="-1" type="curve" smooth="yes"/>
			<point x="381" y="-10"/>
			<point x="383" y="-22"/>
			<point x="376" y="-36" type="curve" smooth="yes"/>
			<point x="369" y="-50"/>
			<point x="357" y="-53"/>
			<point x="341" y="-45" type="curve"/>
			<point x="300" y="-24"/>
			<point x="267" y="5"/>
			<point x="244" y="43" type="curve" smooth="yes"/>
			<point x="221" y="81"/>
			<point x="209" y="123"/>
			<point x="209" y="167" type="curve" smooth="yes"/>
			<point x="209" y="211"/>
			<point x="221" y="252"/>
			<point x="245" y="290" type="curve" smooth="yes"/>
			<point x="269" y="328"/>
			<point x="301" y="357"/>
			<point x="341" y="377" type="curve" smooth="yes"/>
			<point x="357" y="385"/>
			<point x="369" y="382"/>
			<point x="376" y="369" type="curve" smooth="yes"/>
			<point x="383" y="356"/>
			<point x="382" y="343"/>
		</contour>
	</outline>
</glyph>
<glyph name="guillemotright" format="2">
	<unicode hex="00BB"/>
	<advance width="415"/>
	<outline>
		<contour>
			<point x="220" y="-1" type="curve" smooth="yes"/>
			<point x="276" y="47"/>
			<point x="303" y="104"/>
			<point x="303" y="169" type="curve" smooth="yes"/>
			<point x="303" y="234"/>
			<point x="275" y="289"/>
			<point x="220" y="333" type="curve" smooth="yes"/>
			<point x="208" y="342"/>
			<point x="206" y="354"/>
			<point x="213" y="368" type="curve" smooth="yes"/>
			<point x="220" y="382"/>
			<point x="232" y="385"/>
			<point x="249" y="377" type="curve"/>
			<point x="290" y="357"/>
			<point x="321" y="327"/>
			<point x="345" y="289" type="curve" smooth="yes"/>
			<point x="369" y="251"/>
			<point x="381" y="210"/>
			<point x="381" y="166" type="curve" smooth="yes"/>
			<point x="381" y="122"/>
			<point x="368" y="81"/>
			<point x="345" y="43" type="curve" smooth="yes"/>
			<point x="322" y="5"/>
			<point x="290" y="-24"/>
			<point x="249" y="-45" type="curve" smooth="yes"/>
			<point x="233" y="-53"/>
			<point x="222" y="-50"/>
			<point x="214" y="-37" type="curve" smooth="yes"/>
			<point x="206" y="-24"/>
			<point x="208" y="-11"/>
		</contour>
		<contour>
			<point x="45" y="-1" type="curve" smooth="yes"/>
			<point x="101" y="47"/>
			<point x="128" y="104"/>
			<point x="128" y="169" type="curve" smooth="yes"/>
			<point x="128" y="234"/>
			<point x="100" y="289"/>
			<point x="45" y="333" type="curve" smooth="yes"/>
			<point x="33" y="342"/>
			<point x="31" y="354"/>
			<point x="38" y="368" type="curve" smooth="yes"/>
			<point x="45" y="382"/>
			<point x="57" y="385"/>
			<point x="74" y="377" type="curve" smooth="yes"/>
			<point x="115" y="357"/>
			<point x="147" y="327"/>
			<point x="171" y="289" type="curve" smooth="yes"/>
			<point x="195" y="251"/>
			<point x="206" y="210"/>
			<point x="206" y="166" type="curve" smooth="yes"/>
			<point x="206" y="122"/>
			<point x="194" y="81"/>
			<point x="171" y="43" type="curve" smooth="yes"/>
			<point x="148" y="5"/>
			<point x="115" y="-24"/>
			<point x="74" y="-45" type="curve" smooth="yes"/>
			<point x="58" y="-53"/>
			<point x="47" y="-50"/>
			<point x="39" y="-37" type="curve" smooth="yes"/>
			<point x="31" y="-24"/>
			<point x="33" y="-11"/>
		</contour>
	</outline>
</glyph>
<glyph name="number-ar" format="2">
	<unicode hex="0600"/>
	<advance width="1134"/>
	<outline>
		<contour>
			<point x="934" y="-67" type="curve"/>
			<point x="917" y="-31"/>
			<point x="917" y="10"/>
			<point x="933" y="57" type="curve" smooth="yes"/>
			<point x="942" y="82"/>
			<point x="957" y="107"/>
			<point x="978" y="130" type="curve" smooth="yes"/>
			<point x="999" y="153"/>
			<point x="1021" y="166"/>
			<point x="1045" y="170" type="curve" smooth="yes"/>
			<point x="1070" y="174"/>
			<point x="1091" y="167"/>
			<point x="1108" y="149" type="curve" smooth="yes"/>
			<point x="1114" y="143"/>
			<point x="1116" y="137"/>
			<point x="1114" y="132" type="curve" smooth="yes"/>
			<point x="1104" y="96"/>
			<point x="1092" y="75"/>
			<point x="1077" y="68" type="curve" smooth="yes"/>
			<point x="1075" y="67"/>
			<point x="1072" y="68"/>
			<point x="1069" y="71" type="curve" smooth="yes"/>
			<point x="1038" y="99"/>
			<point x="1006" y="98"/>
			<point x="973" y="70" type="curve" smooth="yes"/>
			<point x="961" y="60"/>
			<point x="958" y="44"/>
			<point x="963" y="25" type="curve" smooth="yes"/>
			<point x="974" y="-16"/>
			<point x="998" y="-41"/>
			<point x="1035" y="-51" type="curve" smooth="yes"/>
			<point x="1050" y="-55"/>
			<point x="1061" y="-59"/>
			<point x="1069" y="-63" type="curve" smooth="yes"/>
			<point x="1077" y="-67"/>
			<point x="1080" y="-73"/>
			<point x="1080" y="-81" type="curve" smooth="yes"/>
			<point x="1079" y="-109"/>
			<point x="1075" y="-130"/>
			<point x="1069" y="-145" type="curve" smooth="yes"/>
			<point x="1064" y="-158"/>
			<point x="1056" y="-163"/>
			<point x="1046" y="-157" type="curve" smooth="yes"/>
			<point x="1006" y="-135"/>
			<point x="981" y="-124"/>
			<point x="968" y="-124" type="curve" smooth="yes"/>
			<point x="955" y="-124"/>
			<point x="939" y="-128"/>
			<point x="921" y="-136" type="curve" smooth="yes"/>
			<point x="870" y="-160"/>
			<point x="749" y="-172"/>
			<point x="557" y="-172" type="curve" smooth="yes"/>
			<point x="288" y="-172"/>
			<point x="134" y="-164"/>
			<point x="95" y="-149" type="curve" smooth="yes"/>
			<point x="85" y="-145"/>
			<point x="73" y="-138"/>
			<point x="59" y="-125" type="curve" smooth="yes"/>
			<point x="26" y="-94" type="line" smooth="yes"/>
			<point x="15" y="-84"/>
			<point x="12" y="-75"/>
			<point x="18" y="-68" type="curve" smooth="yes"/>
			<point x="22" y="-63"/>
			<point x="33" y="-61"/>
			<point x="54" y="-65" type="curve" smooth="yes"/>
			<point x="156" y="-82"/>
			<point x="312" y="-90"/>
			<point x="521" y="-90" type="curve" smooth="yes"/>
			<point x="706" y="-90"/>
			<point x="827" y="-86"/>
			<point x="885" y="-78" type="curve" smooth="yes"/>
			<point x="906" y="-75"/>
			<point x="922" y="-71"/>
		</contour>
	</outline>
</glyph>
<glyph name="year-ar" format="2">
	<unicode hex="0601"/>
	<advance width="1782"/>
	<outline>
		<contour>
			<point x="489" y="-194" type="curve"/>
			<point x="455" y="-247"/>
			<point x="418" y="-274"/>
			<point x="375" y="-274" type="curve"/>
			<point x="345" y="-274"/>
			<point x="317" y="-259"/>
			<point x="290" y="-230" type="curve" smooth="yes"/>
			<point x="286" y="-225"/>
			<point x="279" y="-216"/>
			<point x="269" y="-204" type="curve" smooth="yes"/>
			<point x="259" y="-192"/>
			<point x="251" y="-186"/>
			<point x="243" y="-186" type="curve" smooth="yes"/>
			<point x="235" y="-186"/>
			<point x="224" y="-196"/>
			<point x="212" y="-212" type="curve" smooth="yes"/>
			<point x="200" y="-228"/>
			<point x="192" y="-240"/>
			<point x="188" y="-249" type="curve" smooth="yes"/>
			<point x="184" y="-258"/>
			<point x="179" y="-274"/>
			<point x="171" y="-296" type="curve" smooth="yes"/>
			<point x="163" y="-318"/>
			<point x="153" y="-337"/>
			<point x="142" y="-350" type="curve" smooth="yes"/>
			<point x="131" y="-363"/>
			<point x="119" y="-370"/>
			<point x="102" y="-371" type="curve"/>
			<point x="71" y="-370"/>
			<point x="48" y="-353"/>
			<point x="35" y="-319" type="curve" smooth="yes"/>
			<point x="22" y="-285"/>
			<point x="15" y="-228"/>
			<point x="15" y="-146" type="curve" smooth="yes"/>
			<point x="15" y="-133"/>
			<point x="20" y="-125"/>
			<point x="30" y="-121" type="curve" smooth="yes"/>
			<point x="45" y="-116"/>
			<point x="55" y="-121"/>
			<point x="59" y="-138" type="curve" smooth="yes"/>
			<point x="60" y="-142"/>
			<point x="62" y="-160"/>
			<point x="62" y="-191" type="curve" smooth="yes"/>
			<point x="63" y="-249"/>
			<point x="75" y="-281"/>
			<point x="98" y="-286" type="curve"/>
			<point x="99" y="-286" type="line" smooth="yes"/>
			<point x="107" y="-286"/>
			<point x="121" y="-263"/>
			<point x="140" y="-219" type="curve"/>
			<point x="176" y="-132"/>
			<point x="216" y="-87"/>
			<point x="260" y="-87" type="curve"/>
			<point x="277" y="-87"/>
			<point x="295" y="-99"/>
			<point x="313" y="-121" type="curve" smooth="yes"/>
			<point x="331" y="-143"/>
			<point x="346" y="-158"/>
			<point x="356" y="-164" type="curve" smooth="yes"/>
			<point x="366" y="-170"/>
			<point x="377" y="-174"/>
			<point x="389" y="-174" type="curve" smooth="yes"/>
			<point x="420" y="-173"/>
			<point x="450" y="-151"/>
			<point x="478" y="-106" type="curve" smooth="yes"/>
			<point x="501" y="-68"/>
			<point x="524" y="-66"/>
			<point x="545" y="-100" type="curve" smooth="yes"/>
			<point x="566" y="-134"/>
			<point x="611" y="-160"/>
			<point x="679" y="-179" type="curve" smooth="yes"/>
			<point x="747" y="-198"/>
			<point x="842" y="-207"/>
			<point x="967" y="-207" type="curve" smooth="yes"/>
			<point x="1092" y="-207"/>
			<point x="1241" y="-178"/>
			<point x="1413" y="-121" type="curve" smooth="yes"/>
			<point x="1436" y="-113"/>
			<point x="1485" y="-95"/>
			<point x="1560" y="-65" type="curve" smooth="yes"/>
			<point x="1635" y="-35"/>
			<point x="1685" y="-20"/>
			<point x="1713" y="-20" type="curve" smooth="yes"/>
			<point x="1749" y="-20"/>
			<point x="1768" y="-32"/>
			<point x="1768" y="-57" type="curve" smooth="yes"/>
			<point x="1768" y="-67"/>
			<point x="1765" y="-81"/>
			<point x="1759" y="-99" type="curve" smooth="yes"/>
			<point x="1753" y="-117"/>
			<point x="1745" y="-132"/>
			<point x="1733" y="-145" type="curve" smooth="yes"/>
			<point x="1721" y="-158"/>
			<point x="1701" y="-180"/>
			<point x="1672" y="-211" type="curve" smooth="yes"/>
			<point x="1643" y="-242"/>
			<point x="1622" y="-266"/>
			<point x="1611" y="-282" type="curve" smooth="yes"/>
			<point x="1600" y="-298"/>
			<point x="1592" y="-309"/>
			<point x="1587" y="-313" type="curve" smooth="yes"/>
			<point x="1582" y="-317"/>
			<point x="1577" y="-318"/>
			<point x="1572" y="-316" type="curve" smooth="yes"/>
			<point x="1555" y="-309"/>
			<point x="1551" y="-296"/>
			<point x="1562" y="-276" type="curve"/>
			<point x="1587" y="-234"/>
			<point x="1611" y="-201"/>
			<point x="1632" y="-178" type="curve" smooth="yes"/>
			<point x="1653" y="-155"/>
			<point x="1674" y="-135"/>
			<point x="1693" y="-116" type="curve"/>
			<point x="1682" y="-115"/>
			<point x="1666" y="-119"/>
			<point x="1646" y="-127" type="curve" smooth="yes"/>
			<point x="1527" y="-176"/>
			<point x="1430" y="-212"/>
			<point x="1357" y="-235" type="curve" smooth="yes"/>
			<point x="1203" y="-284"/>
			<point x="1050" y="-308"/>
			<point x="899" y="-308" type="curve" smooth="yes"/>
			<point x="796" y="-308"/>
			<point x="714" y="-298"/>
			<point x="652" y="-279" type="curve" smooth="yes"/>
			<point x="590" y="-260"/>
			<point x="535" y="-231"/>
		</contour>
	</outline>
</glyph>
<glyph name="footnotemarker-ar" format="2">
	<unicode hex="0602"/>
	<advance width="812"/>
	<outline>
		<contour>
			<point x="150" y="-73" type="curve"/>
			<point x="147" y="-40"/>
			<point x="138" y="-21"/>
			<point x="121" y="-17" type="curve" smooth="yes"/>
			<point x="104" y="-13"/>
			<point x="94" y="-16"/>
			<point x="91" y="-25" type="curve"/>
			<point x="86" y="-43"/>
			<point x="92" y="-55"/>
			<point x="108" y="-61" type="curve" smooth="yes"/>
			<point x="120" y="-65"/>
			<point x="134" y="-70"/>
		</contour>
		<contour>
			<point x="83" y="-149" type="curve" smooth="yes"/>
			<point x="68" y="-142"/>
			<point x="54" y="-132"/>
			<point x="43" y="-118" type="curve" smooth="yes"/>
			<point x="32" y="-104"/>
			<point x="26" y="-88"/>
			<point x="26" y="-69" type="curve" smooth="yes"/>
			<point x="26" y="-31"/>
			<point x="39" y="3"/>
			<point x="66" y="34" type="curve"/>
			<point x="98" y="69"/>
			<point x="133" y="76"/>
			<point x="170" y="54" type="curve" smooth="yes"/>
			<point x="193" y="40"/>
			<point x="204" y="9"/>
			<point x="204" y="-40" type="curve" smooth="yes"/>
			<point x="204" y="-53"/>
			<point x="203" y="-66"/>
			<point x="202" y="-81" type="curve"/>
			<point x="244" y="-85"/>
			<point x="317" y="-87"/>
			<point x="424" y="-87" type="curve" smooth="yes"/>
			<point x="531" y="-87"/>
			<point x="638" y="-78"/>
			<point x="747" y="-59" type="curve" smooth="yes"/>
			<point x="755" y="-58"/>
			<point x="762" y="-57"/>
			<point x="766" y="-57" type="curve"/>
			<point x="775" y="-57" type="line"/>
			<point x="782" y="-60"/>
			<point x="786" y="-65"/>
			<point x="786" y="-73" type="curve" smooth="yes"/>
			<point x="786" y="-81"/>
			<point x="782" y="-88"/>
			<point x="773" y="-94" type="curve" smooth="yes"/>
			<point x="771" y="-95"/>
			<point x="770" y="-97"/>
			<point x="769" y="-97" type="curve" smooth="yes"/>
			<point x="728" y="-125" type="line" smooth="yes"/>
			<point x="714" y="-134"/>
			<point x="698" y="-142"/>
			<point x="681" y="-146" type="curve" smooth="yes"/>
			<point x="600" y="-166"/>
			<point x="490" y="-176"/>
			<point x="350" y="-176" type="curve" smooth="yes"/>
			<point x="210" y="-176"/>
			<point x="122" y="-167"/>
		</contour>
	</outline>
</glyph>
<glyph name="pagenumber-ar" format="2">
	<unicode hex="0603"/>
	<advance width="1109"/>
	<outline>
		<contour>
			<point x="15" y="-60" type="curve" smooth="yes"/>
			<point x="15" y="-44"/>
			<point x="25" y="-38"/>
			<point x="47" y="-44" type="curve" smooth="yes"/>
			<point x="48" y="-44"/>
			<point x="49" y="-44"/>
			<point x="49" y="-44" type="curve" smooth="yes"/>
			<point x="194" y="-73"/>
			<point x="321" y="-88"/>
			<point x="429" y="-88" type="curve" smooth="yes"/>
			<point x="584" y="-88"/>
			<point x="693" y="-72"/>
			<point x="756" y="-41" type="curve" smooth="yes"/>
			<point x="766" y="-36"/>
			<point x="776" y="-39"/>
			<point x="786" y="-52" type="curve" smooth="yes"/>
			<point x="796" y="-65"/>
			<point x="812" y="-73"/>
			<point x="833" y="-76" type="curve"/>
			<point x="895" y="12"/>
			<point x="954" y="56"/>
			<point x="1011" y="57" type="curve"/>
			<point x="1024" y="57"/>
			<point x="1042" y="50"/>
			<point x="1063" y="36" type="curve" smooth="yes"/>
			<point x="1084" y="22"/>
			<point x="1094" y="4"/>
			<point x="1094" y="-18" type="curve" smooth="yes"/>
			<point x="1094" y="-40"/>
			<point x="1088" y="-64"/>
			<point x="1075" y="-87" type="curve" smooth="yes"/>
			<point x="1062" y="-110"/>
			<point x="1052" y="-124"/>
			<point x="1046" y="-129" type="curve" smooth="yes"/>
			<point x="1008" y="-158"/>
			<point x="957" y="-172"/>
			<point x="893" y="-172" type="curve" smooth="yes"/>
			<point x="872" y="-172"/>
			<point x="852" y="-170"/>
			<point x="834" y="-166" type="curve"/>
			<point x="831" y="-175"/>
			<point x="828" y="-185"/>
			<point x="825" y="-198" type="curve" smooth="yes"/>
			<point x="822" y="-211"/>
			<point x="814" y="-219"/>
			<point x="802" y="-219" type="curve" smooth="yes"/>
			<point x="790" y="-219"/>
			<point x="782" y="-213"/>
			<point x="779" y="-201" type="curve" smooth="yes"/>
			<point x="776" y="-189"/>
			<point x="777" y="-173"/>
			<point x="785" y="-151" type="curve"/>
			<point x="770" y="-146"/>
			<point x="757" y="-139"/>
			<point x="744" y="-130" type="curve"/>
			<point x="680" y="-162"/>
			<point x="566" y="-178"/>
			<point x="402" y="-178" type="curve" smooth="yes"/>
			<point x="291" y="-178"/>
			<point x="192" y="-166"/>
			<point x="106" y="-143" type="curve" smooth="yes"/>
			<point x="83" y="-137"/>
			<point x="66" y="-127"/>
			<point x="56" y="-116" type="curve" smooth="yes"/>
			<point x="24" y="-80" type="line" smooth="yes"/>
			<point x="18" y="-73"/>
			<point x="15" y="-66"/>
		</contour>
		<contour>
			<point x="1020" y="-69" type="curve"/>
			<point x="986" y="-20"/>
			<point x="944" y="-25"/>
			<point x="893" y="-86" type="curve"/>
			<point x="912" y="-86"/>
			<point x="935" y="-85"/>
			<point x="963" y="-82" type="curve" smooth="yes"/>
			<point x="991" y="-79"/>
			<point x="1011" y="-74"/>
		</contour>
	</outline>
</glyph>
<glyph name="samvat-ar" format="2">
	<unicode hex="0604"/>
	<advance width="2183"/>
	<outline>
		<contour>
			<point x="107" y="-158" type="curve" smooth="yes"/>
			<point x="103" y="-155"/>
			<point x="89" y="-143"/>
			<point x="66" y="-120" type="curve" smooth="yes"/>
			<point x="34" y="-89" type="line" smooth="yes"/>
			<point x="23" y="-79"/>
			<point x="19" y="-70"/>
			<point x="25" y="-63" type="curve" smooth="yes"/>
			<point x="28" y="-59"/>
			<point x="40" y="-59"/>
			<point x="62" y="-61" type="curve" smooth="yes"/>
			<point x="221" y="-75"/>
			<point x="486" y="-82"/>
			<point x="857" y="-82" type="curve" smooth="yes"/>
			<point x="1301" y="-82"/>
			<point x="1568" y="-75"/>
			<point x="1659" y="-60" type="curve" smooth="yes"/>
			<point x="1660" y="-60"/>
			<point x="1661" y="-60"/>
			<point x="1662" y="-60" type="curve" smooth="yes"/>
			<point x="1701" y="-57"/>
			<point x="1730" y="-50"/>
			<point x="1748" y="-40" type="curve"/>
			<point x="1729" y="2"/>
			<point x="1726" y="43"/>
			<point x="1741" y="83" type="curve"/>
			<point x="1767" y="149"/>
			<point x="1803" y="183"/>
			<point x="1849" y="185" type="curve" smooth="yes"/>
			<point x="1868" y="186"/>
			<point x="1884" y="173"/>
			<point x="1899" y="146" type="curve" smooth="yes"/>
			<point x="1909" y="128"/>
			<point x="1921" y="119"/>
			<point x="1936" y="119" type="curve" smooth="yes"/>
			<point x="1972" y="118"/>
			<point x="2007" y="146"/>
			<point x="2042" y="203" type="curve" smooth="yes"/>
			<point x="2046" y="210"/>
			<point x="2053" y="210"/>
			<point x="2060" y="205" type="curve" smooth="yes"/>
			<point x="2067" y="200"/>
			<point x="2067" y="191"/>
			<point x="2060" y="177" type="curve" smooth="yes"/>
			<point x="2057" y="171"/>
			<point x="2055" y="168"/>
			<point x="2055" y="166" type="curve" smooth="yes"/>
			<point x="2055" y="164"/>
			<point x="2056" y="162"/>
			<point x="2060" y="160" type="curve" smooth="yes"/>
			<point x="2082" y="147"/>
			<point x="2105" y="140"/>
			<point x="2129" y="139" type="curve"/>
			<point x="2124" y="146"/>
			<point x="2118" y="152"/>
			<point x="2112" y="157" type="curve" smooth="yes"/>
			<point x="2106" y="162"/>
			<point x="2106" y="169"/>
			<point x="2110" y="176" type="curve" smooth="yes"/>
			<point x="2135" y="220" type="line" smooth="yes"/>
			<point x="2141" y="231"/>
			<point x="2148" y="230"/>
			<point x="2155" y="220" type="curve" smooth="yes"/>
			<point x="2173" y="193"/>
			<point x="2176" y="157"/>
			<point x="2163" y="111" type="curve" smooth="yes"/>
			<point x="2156" y="86"/>
			<point x="2147" y="68"/>
			<point x="2136" y="57" type="curve" smooth="yes"/>
			<point x="2125" y="46"/>
			<point x="2112" y="42"/>
			<point x="2095" y="44" type="curve" smooth="yes"/>
			<point x="2061" y="49"/>
			<point x="2033" y="60"/>
			<point x="2010" y="74" type="curve"/>
			<point x="1980" y="37"/>
			<point x="1946" y="19"/>
			<point x="1909" y="21" type="curve"/>
			<point x="1885" y="24"/>
			<point x="1863" y="42"/>
			<point x="1844" y="75" type="curve" smooth="yes"/>
			<point x="1840" y="82"/>
			<point x="1836" y="85"/>
			<point x="1829" y="87" type="curve"/>
			<point x="1805" y="91"/>
			<point x="1787" y="87"/>
			<point x="1773" y="75" type="curve"/>
			<point x="1774" y="57"/>
			<point x="1780" y="39"/>
			<point x="1791" y="22" type="curve" smooth="yes"/>
			<point x="1802" y="5"/>
			<point x="1814" y="-8"/>
			<point x="1826" y="-15" type="curve" smooth="yes"/>
			<point x="1831" y="-18"/>
			<point x="1841" y="-21"/>
			<point x="1859" y="-26" type="curve" smooth="yes"/>
			<point x="1877" y="-31"/>
			<point x="1892" y="-35"/>
			<point x="1905" y="-42" type="curve" smooth="yes"/>
			<point x="1918" y="-49"/>
			<point x="1924" y="-59"/>
			<point x="1924" y="-73" type="curve" smooth="yes"/>
			<point x="1922" y="-113"/>
			<point x="1918" y="-139"/>
			<point x="1913" y="-150" type="curve" smooth="yes"/>
			<point x="1908" y="-161"/>
			<point x="1899" y="-163"/>
			<point x="1887" y="-156" type="curve" smooth="yes"/>
			<point x="1839" y="-130"/>
			<point x="1808" y="-117"/>
			<point x="1794" y="-117" type="curve" smooth="yes"/>
			<point x="1780" y="-117"/>
			<point x="1759" y="-123"/>
			<point x="1732" y="-136" type="curve" smooth="yes"/>
			<point x="1705" y="-149"/>
			<point x="1646" y="-159"/>
			<point x="1556" y="-167" type="curve" smooth="yes"/>
			<point x="1466" y="-175"/>
			<point x="1240" y="-177"/>
			<point x="880" y="-173" type="curve" smooth="yes"/>
			<point x="372" y="-168"/>
			<point x="114" y="-163"/>
		</contour>
	</outline>
</glyph>
<glyph name="ray-ar" format="2">
	<unicode hex="0608"/>
	<advance width="860"/>
	<outline>
		<contour>
			<point x="598" y="104" type="curve" smooth="yes"/>
			<point x="590" y="122"/>
			<point x="580" y="129"/>
			<point x="566" y="129" type="curve" smooth="yes"/>
			<point x="552" y="129"/>
			<point x="547" y="125"/>
			<point x="551" y="116" type="curve" smooth="yes"/>
			<point x="558" y="101"/>
			<point x="571" y="94"/>
			<point x="593" y="96" type="curve" smooth="yes"/>
			<point x="598" y="97"/>
			<point x="600" y="100"/>
		</contour>
		<contour>
			<point x="224" y="120" type="curve" smooth="yes"/>
			<point x="241" y="137"/>
			<point x="253" y="142"/>
			<point x="260" y="134" type="curve" smooth="yes"/>
			<point x="267" y="126"/>
			<point x="265" y="113"/>
			<point x="254" y="98" type="curve" smooth="yes"/>
			<point x="201" y="22"/>
			<point x="194" y="-43"/>
			<point x="233" y="-98" type="curve" smooth="yes"/>
			<point x="253" y="-126"/>
			<point x="290" y="-142"/>
			<point x="345" y="-149" type="curve" smooth="yes"/>
			<point x="400" y="-156"/>
			<point x="455" y="-148"/>
			<point x="511" y="-127" type="curve" smooth="yes"/>
			<point x="567" y="-106"/>
			<point x="604" y="-76"/>
			<point x="625" y="-36" type="curve"/>
			<point x="626" y="-31"/>
			<point x="626" y="-23"/>
			<point x="624" y="-13" type="curve"/>
			<point x="565" y="-11"/>
			<point x="524" y="-1"/>
			<point x="502" y="20" type="curve" smooth="yes"/>
			<point x="476" y="44"/>
			<point x="482" y="89"/>
			<point x="521" y="156" type="curve" smooth="yes"/>
			<point x="551" y="208"/>
			<point x="576" y="233"/>
			<point x="595" y="231" type="curve" smooth="yes"/>
			<point x="638" y="226"/>
			<point x="667" y="184"/>
			<point x="683" y="105" type="curve"/>
			<point x="720" y="108"/>
			<point x="757" y="117"/>
			<point x="794" y="131" type="curve"/>
			<point x="827" y="144"/>
			<point x="836" y="131"/>
			<point x="821" y="91" type="curve" smooth="yes"/>
			<point x="786" y="0" type="line" smooth="yes"/>
			<point x="780" y="-15"/>
			<point x="771" y="-21"/>
			<point x="761" y="-19" type="curve" smooth="yes"/>
			<point x="751" y="-17"/>
			<point x="747" y="-10"/>
			<point x="750" y="2" type="curve"/>
			<point x="724" y="-5"/>
			<point x="699" y="-10"/>
			<point x="676" y="-14" type="curve"/>
			<point x="673" y="-24"/>
			<point x="668" y="-42"/>
			<point x="661" y="-69" type="curve" smooth="yes"/>
			<point x="654" y="-96"/>
			<point x="643" y="-118"/>
			<point x="628" y="-138" type="curve" smooth="yes"/>
			<point x="574" y="-211"/>
			<point x="494" y="-254"/>
			<point x="389" y="-269" type="curve" smooth="yes"/>
			<point x="336" y="-276"/>
			<point x="289" y="-268"/>
			<point x="247" y="-243" type="curve" smooth="yes"/>
			<point x="205" y="-218"/>
			<point x="179" y="-186"/>
			<point x="167" y="-147" type="curve" smooth="yes"/>
			<point x="152" y="-100"/>
			<point x="156" y="-48"/>
			<point x="177" y="13" type="curve"/>
			<point x="141" y="-16"/>
			<point x="103" y="-35"/>
			<point x="63" y="-42" type="curve" smooth="yes"/>
			<point x="42" y="-46"/>
			<point x="32" y="-39"/>
			<point x="33" y="-22" type="curve" smooth="yes"/>
			<point x="37" y="29" type="line" smooth="yes"/>
			<point x="38" y="45"/>
			<point x="46" y="54"/>
			<point x="61" y="54" type="curve" smooth="yes"/>
			<point x="129" y="56"/>
			<point x="183" y="78"/>
		</contour>
	</outline>
</glyph>
<glyph name="afghani-ar" format="2">
	<unicode hex="060B"/>
	<advance width="500"/>
	<outline>
		<contour>
			<point x="312" y="322" type="curve" smooth="yes"/>
			<point x="297" y="322"/>
			<point x="288" y="307"/>
			<point x="286" y="277" type="curve"/>
			<point x="296" y="274"/>
			<point x="308" y="273"/>
			<point x="324" y="275" type="curve" smooth="yes"/>
			<point x="340" y="277"/>
			<point x="350" y="281"/>
			<point x="354" y="287" type="curve"/>
			<point x="339" y="310"/>
			<point x="325" y="322"/>
		</contour>
		<contour>
			<point x="416" y="181" type="curve"/>
			<point x="412" y="212"/>
			<point x="405" y="220"/>
			<point x="396" y="203" type="curve" smooth="yes"/>
			<point x="383" y="181"/>
			<point x="367" y="167"/>
			<point x="347" y="162" type="curve" smooth="yes"/>
			<point x="282" y="146"/>
			<point x="247" y="164"/>
			<point x="243" y="214" type="curve" smooth="yes"/>
			<point x="238" y="272"/>
			<point x="246" y="325"/>
			<point x="268" y="373" type="curve" smooth="yes"/>
			<point x="290" y="421"/>
			<point x="313" y="445"/>
			<point x="337" y="445" type="curve" smooth="yes"/>
			<point x="357" y="445"/>
			<point x="374" y="438"/>
			<point x="387" y="425" type="curve" smooth="yes"/>
			<point x="440" y="371"/>
			<point x="467" y="298"/>
			<point x="467" y="206" type="curve" smooth="yes"/>
			<point x="467" y="156"/>
			<point x="457" y="116"/>
			<point x="438" y="87" type="curve" smooth="yes"/>
			<point x="383" y="4"/>
			<point x="263" y="-28"/>
			<point x="77" y="-10" type="curve" smooth="yes"/>
			<point x="56" y="-8"/>
			<point x="45" y="2"/>
			<point x="41" y="20" type="curve" smooth="yes"/>
			<point x="31" y="67" type="line" smooth="yes"/>
			<point x="28" y="80"/>
			<point x="31" y="92"/>
			<point x="38" y="100" type="curve" smooth="yes"/>
			<point x="45" y="108"/>
			<point x="58" y="112"/>
			<point x="76" y="110" type="curve" smooth="yes"/>
			<point x="232" y="93"/>
			<point x="345" y="117"/>
		</contour>
		<component base="alefabove-ar" xOffset="117" yOffset="-1226"/>
		<component base="dotabove-ar" xOffset="303" yOffset="493"/>
	</outline>
</glyph>
<glyph name="comma-ar" format="2">
	<unicode hex="060C"/>
	<advance width="369"/>
	<outline>
		<contour>
			<point x="197" y="409" type="curve"/>
			<point x="207" y="416"/>
			<point x="217" y="418"/>
			<point x="225" y="416" type="curve" smooth="yes"/>
			<point x="241" y="412"/>
			<point x="249" y="403"/>
			<point x="251" y="389" type="curve"/>
			<point x="252" y="379"/>
			<point x="248" y="369"/>
			<point x="240" y="361" type="curve" smooth="yes"/>
			<point x="166" y="284"/>
			<point x="137" y="213"/>
			<point x="155" y="150" type="curve"/>
			<point x="172" y="165"/>
			<point x="193" y="173"/>
			<point x="217" y="173" type="curve" smooth="yes"/>
			<point x="241" y="173"/>
			<point x="261" y="164"/>
			<point x="279" y="146" type="curve" smooth="yes"/>
			<point x="297" y="128"/>
			<point x="305" y="108"/>
			<point x="305" y="83" type="curve" smooth="yes"/>
			<point x="305" y="58"/>
			<point x="295" y="36"/>
			<point x="276" y="18" type="curve"/>
			<point x="257" y="0"/>
			<point x="235" y="-9"/>
			<point x="208" y="-8" type="curve" smooth="yes"/>
			<point x="181" y="-7"/>
			<point x="160" y="0"/>
			<point x="143" y="13" type="curve" smooth="yes"/>
			<point x="97" y="49"/>
			<point x="78" y="113"/>
			<point x="85" y="206" type="curve"/>
			<point x="89" y="248"/>
			<point x="103" y="289"/>
			<point x="128" y="328" type="curve" smooth="yes"/>
			<point x="153" y="367"/>
			<point x="176" y="394"/>
		</contour>
	</outline>
</glyph>
<glyph name="dateseparator-ar" format="2">
	<unicode hex="060D"/>
	<advance width="316"/>
	<outline>
		<contour>
			<point x="281" y="454" type="curve"/>
			<point x="267" y="422" type="line"/>
			<point x="256" y="400"/>
			<point x="244" y="388"/>
			<point x="229" y="387" type="curve"/>
			<point x="220" y="387"/>
			<point x="211" y="390"/>
			<point x="202" y="397" type="curve" smooth="yes"/>
			<point x="193" y="404"/>
			<point x="178" y="397"/>
			<point x="156" y="376" type="curve" smooth="yes"/>
			<point x="134" y="355"/>
			<point x="109" y="321"/>
			<point x="79" y="273" type="curve"/>
			<point x="66" y="252"/>
			<point x="52" y="245"/>
			<point x="37" y="253" type="curve" smooth="yes"/>
			<point x="22" y="261"/>
			<point x="20" y="278"/>
			<point x="30" y="302" type="curve"/>
			<point x="48" y="344"/>
			<point x="77" y="392"/>
			<point x="115" y="448" type="curve"/>
			<point x="162" y="514"/>
			<point x="210" y="542"/>
			<point x="258" y="533" type="curve"/>
			<point x="295" y="526"/>
			<point x="302" y="500"/>
		</contour>
	</outline>
</glyph>
<glyph name="verseComma-ar" format="2">
	<unicode hex="060E"/>
	<advance width="671"/>
	<outline>
		<contour>
			<point x="149" y="149" type="curve"/>
			<point x="146" y="182"/>
			<point x="136" y="201"/>
			<point x="119" y="205" type="curve" smooth="yes"/>
			<point x="102" y="209"/>
			<point x="93" y="206"/>
			<point x="90" y="197" type="curve"/>
			<point x="85" y="179"/>
			<point x="90" y="167"/>
			<point x="106" y="161" type="curve" smooth="yes"/>
			<point x="118" y="157"/>
			<point x="133" y="152"/>
		</contour>
		<contour>
			<point x="81" y="73" type="curve" smooth="yes"/>
			<point x="66" y="80"/>
			<point x="53" y="90"/>
			<point x="42" y="104" type="curve" smooth="yes"/>
			<point x="31" y="118"/>
			<point x="24" y="133"/>
			<point x="24" y="152" type="curve" smooth="yes"/>
			<point x="24" y="190"/>
			<point x="38" y="225"/>
			<point x="65" y="256" type="curve"/>
			<point x="97" y="291"/>
			<point x="131" y="298"/>
			<point x="168" y="276" type="curve" smooth="yes"/>
			<point x="191" y="262"/>
			<point x="202" y="231"/>
			<point x="202" y="182" type="curve" smooth="yes"/>
			<point x="202" y="169"/>
			<point x="201" y="155"/>
			<point x="200" y="140" type="curve"/>
			<point x="238" y="135"/>
			<point x="289" y="133"/>
			<point x="351" y="134" type="curve" smooth="yes"/>
			<point x="413" y="135"/>
			<point x="499" y="144"/>
			<point x="608" y="163" type="curve" smooth="yes"/>
			<point x="616" y="164"/>
			<point x="623" y="165"/>
			<point x="627" y="165" type="curve"/>
			<point x="636" y="164" type="line"/>
			<point x="643" y="161"/>
			<point x="647" y="156"/>
			<point x="647" y="148" type="curve" smooth="yes"/>
			<point x="647" y="140"/>
			<point x="642" y="133"/>
			<point x="633" y="127" type="curve" smooth="yes"/>
			<point x="631" y="126"/>
			<point x="631" y="125"/>
			<point x="630" y="125" type="curve" smooth="yes"/>
			<point x="588" y="97" type="line" smooth="yes"/>
			<point x="574" y="88"/>
			<point x="559" y="80"/>
			<point x="542" y="76" type="curve" smooth="yes"/>
			<point x="461" y="56"/>
			<point x="374" y="46"/>
			<point x="280" y="46" type="curve" smooth="yes"/>
			<point x="186" y="46"/>
			<point x="119" y="55"/>
		</contour>
	</outline>
</glyph>
<glyph name="misraComma-ar" format="2">
	<unicode hex="060F"/>
	<advance width="809"/>
	<outline>
		<contour>
			<point x="150" y="-171" type="curve"/>
			<point x="150" y="-48"/>
			<point x="190" y="60"/>
			<point x="273" y="154" type="curve"/>
			<point x="202" y="186"/>
			<point x="168" y="221"/>
			<point x="171" y="259" type="curve"/>
			<point x="174" y="292"/>
			<point x="183" y="323"/>
			<point x="198" y="350" type="curve" smooth="yes"/>
			<point x="231" y="411"/>
			<point x="269" y="451"/>
			<point x="311" y="472" type="curve"/>
			<point x="335" y="483"/>
			<point x="363" y="480"/>
			<point x="394" y="462" type="curve" smooth="yes"/>
			<point x="425" y="444"/>
			<point x="446" y="427"/>
			<point x="459" y="409" type="curve" smooth="yes"/>
			<point x="464" y="402"/>
			<point x="466" y="396"/>
			<point x="465" y="390" type="curve" smooth="yes"/>
			<point x="463" y="376"/>
			<point x="451" y="372"/>
			<point x="431" y="376" type="curve" smooth="yes"/>
			<point x="353" y="391"/>
			<point x="288" y="365"/>
			<point x="236" y="299" type="curve"/>
			<point x="276" y="260"/>
			<point x="326" y="244"/>
			<point x="386" y="251" type="curve" smooth="yes"/>
			<point x="395" y="252"/>
			<point x="409" y="259"/>
			<point x="427" y="270" type="curve" smooth="yes"/>
			<point x="505" y="317"/>
			<point x="549" y="343"/>
			<point x="558" y="348" type="curve" smooth="yes"/>
			<point x="567" y="353"/>
			<point x="575" y="356"/>
			<point x="581" y="354" type="curve"/>
			<point x="594" y="349"/>
			<point x="598" y="336"/>
			<point x="590" y="315" type="curve" smooth="yes"/>
			<point x="578" y="280"/>
			<point x="568" y="258"/>
			<point x="562" y="251" type="curve" smooth="yes"/>
			<point x="556" y="244"/>
			<point x="551" y="239"/>
			<point x="547" y="237" type="curve" smooth="yes"/>
			<point x="485" y="207"/>
			<point x="419" y="167"/>
			<point x="351" y="117" type="curve" smooth="yes"/>
			<point x="273" y="59"/>
			<point x="227" y="-18"/>
			<point x="212" y="-113" type="curve"/>
			<point x="278" y="-54"/>
			<point x="336" y="-13"/>
			<point x="385" y="11" type="curve" smooth="yes"/>
			<point x="499" y="66"/>
			<point x="593" y="78"/>
			<point x="668" y="47" type="curve"/>
			<point x="720" y="24"/>
			<point x="755" y="-12"/>
			<point x="771" y="-61" type="curve"/>
			<point x="794" y="-133"/>
			<point x="776" y="-215"/>
			<point x="718" y="-305" type="curve"/>
			<point x="638" y="-429"/>
			<point x="540" y="-490"/>
			<point x="426" y="-491" type="curve" smooth="yes"/>
			<point x="273" y="-491"/>
			<point x="184" y="-415"/>
			<point x="157" y="-261" type="curve"/>
			<point x="112" y="-308"/>
			<point x="83" y="-339"/>
			<point x="72" y="-354" type="curve" smooth="yes"/>
			<point x="61" y="-369"/>
			<point x="52" y="-376"/>
			<point x="45" y="-374" type="curve" smooth="yes"/>
			<point x="29" y="-370"/>
			<point x="24" y="-360"/>
			<point x="31" y="-344" type="curve"/>
			<point x="48" y="-283" type="line" smooth="yes"/>
			<point x="51" y="-272"/>
			<point x="70" y="-250"/>
			<point x="103" y="-217" type="curve" smooth="yes"/>
			<point x="110" y="-210"/>
			<point x="126" y="-194"/>
		</contour>
		<contour>
			<point x="215" y="-206" type="curve"/>
			<point x="248" y="-317"/>
			<point x="327" y="-373"/>
			<point x="454" y="-373" type="curve" smooth="yes"/>
			<point x="581" y="-373"/>
			<point x="663" y="-320"/>
			<point x="698" y="-215" type="curve"/>
			<point x="715" y="-161"/>
			<point x="701" y="-114"/>
			<point x="655" y="-72" type="curve" smooth="yes"/>
			<point x="609" y="-30"/>
			<point x="532" y="-28"/>
			<point x="423" y="-68" type="curve" smooth="yes"/>
			<point x="365" y="-89"/>
			<point x="296" y="-136"/>
		</contour>
	</outline>
</glyph>
<glyph name="sallallahouAlayheWassallamcomb-ar" format="2">
	<unicode hex="0610"/>
	<outline>
		<contour>
			<point x="268" y="999" type="curve"/>
			<point x="251" y="1011"/>
			<point x="234" y="1015"/>
			<point x="216" y="1010" type="curve" smooth="yes"/>
			<point x="198" y="1005"/>
			<point x="173" y="993"/>
			<point x="144" y="972" type="curve"/>
			<point x="197" y="971"/>
			<point x="238" y="980"/>
		</contour>
		<contour>
			<point x="46" y="984" type="curve"/>
			<point x="58" y="977"/>
			<point x="75" y="974"/>
			<point x="96" y="973" type="curve"/>
			<point x="125" y="1002"/>
			<point x="155" y="1027"/>
			<point x="184" y="1048" type="curve" smooth="yes"/>
			<point x="251" y="1096"/>
			<point x="295" y="1090"/>
			<point x="317" y="1031" type="curve" smooth="yes"/>
			<point x="320" y="1022"/>
			<point x="318" y="1008"/>
			<point x="310" y="992" type="curve" smooth="yes"/>
			<point x="302" y="976"/>
			<point x="296" y="965"/>
			<point x="291" y="959" type="curve" smooth="yes"/>
			<point x="265" y="932"/>
			<point x="218" y="915"/>
			<point x="151" y="909" type="curve" smooth="yes"/>
			<point x="120" y="906"/>
			<point x="90" y="908"/>
			<point x="62" y="913" type="curve"/>
			<point x="62" y="883"/>
			<point x="56" y="850"/>
			<point x="43" y="817" type="curve"/>
			<point x="38" y="806"/>
			<point x="31" y="802"/>
			<point x="22" y="804" type="curve" smooth="yes"/>
			<point x="13" y="806"/>
			<point x="9" y="813"/>
			<point x="12" y="825" type="curve" smooth="yes"/>
			<point x="23" y="874"/>
			<point x="18" y="918"/>
			<point x="-3" y="955" type="curve" smooth="yes"/>
			<point x="-6" y="961"/>
			<point x="-8" y="966"/>
			<point x="-7" y="969" type="curve" smooth="yes"/>
			<point x="9" y="1010" type="line" smooth="yes"/>
			<point x="10" y="1013"/>
			<point x="11" y="1015"/>
			<point x="13" y="1017" type="curve"/>
			<point x="23" y="1024"/>
			<point x="34" y="1013"/>
		</contour>
	</outline>
</glyph>
<glyph name="alayheAssallamcomb-ar" format="2">
	<unicode hex="0611"/>
	<outline>
		<contour>
			<point x="62" y="913" type="curve"/>
			<point x="63" y="883"/>
			<point x="56" y="850"/>
			<point x="43" y="817" type="curve"/>
			<point x="38" y="806"/>
			<point x="31" y="802"/>
			<point x="22" y="804" type="curve" smooth="yes"/>
			<point x="13" y="806"/>
			<point x="9" y="813"/>
			<point x="12" y="825" type="curve" smooth="yes"/>
			<point x="23" y="874"/>
			<point x="18" y="918"/>
			<point x="-3" y="955" type="curve" smooth="yes"/>
			<point x="-6" y="961"/>
			<point x="-8" y="966"/>
			<point x="-7" y="969" type="curve" smooth="yes"/>
			<point x="9" y="1010" type="line"/>
			<point x="11" y="1014"/>
			<point x="13" y="1017"/>
			<point x="16" y="1018" type="curve" smooth="yes"/>
			<point x="24" y="1022"/>
			<point x="33" y="1015"/>
			<point x="41" y="997" type="curve" smooth="yes"/>
			<point x="42" y="995"/>
			<point x="43" y="991"/>
			<point x="46" y="984" type="curve"/>
			<point x="64" y="977"/>
			<point x="85" y="974"/>
			<point x="110" y="973" type="curve"/>
			<point x="104" y="984"/>
			<point x="101" y="996"/>
			<point x="100" y="1009" type="curve" smooth="yes"/>
			<point x="97" y="1043"/>
			<point x="106" y="1071"/>
			<point x="127" y="1092" type="curve" smooth="yes"/>
			<point x="148" y="1113"/>
			<point x="169" y="1125"/>
			<point x="191" y="1129" type="curve" smooth="yes"/>
			<point x="213" y="1133"/>
			<point x="240" y="1120"/>
			<point x="274" y="1091" type="curve"/>
			<point x="281" y="1084"/>
			<point x="282" y="1076"/>
			<point x="277" y="1069" type="curve" smooth="yes"/>
			<point x="272" y="1062"/>
			<point x="265" y="1060"/>
			<point x="257" y="1063" type="curve" smooth="yes"/>
			<point x="225" y="1075"/>
			<point x="194" y="1075"/>
			<point x="162" y="1064" type="curve" smooth="yes"/>
			<point x="150" y="1059"/>
			<point x="143" y="1055"/>
			<point x="140" y="1049" type="curve"/>
			<point x="139" y="1042"/>
			<point x="143" y="1030"/>
			<point x="154" y="1013" type="curve" smooth="yes"/>
			<point x="165" y="996"/>
			<point x="175" y="986"/>
			<point x="182" y="985" type="curve" smooth="yes"/>
			<point x="203" y="982"/>
			<point x="229" y="990"/>
			<point x="261" y="1010" type="curve" smooth="yes"/>
			<point x="273" y="1017"/>
			<point x="281" y="1021"/>
			<point x="284" y="1020" type="curve" smooth="yes"/>
			<point x="287" y="1019"/>
			<point x="291" y="1017"/>
			<point x="294" y="1014" type="curve" smooth="yes"/>
			<point x="297" y="1011"/>
			<point x="298" y="1006"/>
			<point x="296" y="1001" type="curve"/>
			<point x="276" y="960" type="line" smooth="yes"/>
			<point x="273" y="954"/>
			<point x="270" y="950"/>
			<point x="267" y="948" type="curve" smooth="yes"/>
			<point x="206" y="911"/>
			<point x="138" y="900"/>
		</contour>
	</outline>
</glyph>
<glyph name="rehHahabove-ar" format="2">
	<unicode hex="0612"/>
	<outline>
		<contour>
			<point x="8" y="804" type="curve"/>
			<point x="-1" y="805"/>
			<point x="-6" y="810"/>
			<point x="-7" y="820" type="curve"/>
			<point x="-7" y="910"/>
			<point x="30" y="976"/>
			<point x="104" y="1017" type="curve"/>
			<point x="76" y="1021"/>
			<point x="51" y="1018"/>
			<point x="28" y="1009" type="curve" smooth="yes"/>
			<point x="18" y="1005"/>
			<point x="12" y="1008"/>
			<point x="10" y="1016" type="curve" smooth="yes"/>
			<point x="10" y="1017"/>
			<point x="10" y="1018"/>
			<point x="10" y="1019" type="curve" smooth="yes"/>
			<point x="11" y="1057"/>
			<point x="31" y="1077"/>
			<point x="70" y="1079" type="curve" smooth="yes"/>
			<point x="84" y="1080"/>
			<point x="109" y="1076"/>
			<point x="145" y="1069" type="curve" smooth="yes"/>
			<point x="181" y="1062"/>
			<point x="218" y="1061"/>
			<point x="257" y="1068" type="curve" smooth="yes"/>
			<point x="274" y="1071"/>
			<point x="285" y="1071"/>
			<point x="290" y="1069" type="curve" smooth="yes"/>
			<point x="295" y="1067"/>
			<point x="296" y="1061"/>
			<point x="292" y="1052" type="curve" smooth="yes"/>
			<point x="279" y="1025" type="line"/>
			<point x="276" y="1020"/>
			<point x="273" y="1017"/>
			<point x="268" y="1016" type="curve" smooth="yes"/>
			<point x="187" y="1004"/>
			<point x="133" y="989"/>
			<point x="104" y="970" type="curve" smooth="yes"/>
			<point x="51" y="935"/>
			<point x="24" y="885"/>
			<point x="24" y="820" type="curve" smooth="yes"/>
			<point x="24" y="818" type="line"/>
			<point x="21" y="810"/>
			<point x="16" y="805"/>
		</contour>
		<component base="aRaa.isol" xScale="0.5" yScale="0.5" xOffset="220" yOffset="915"/>
	</outline>
</glyph>
<glyph name="takhallusabove-ar" format="2">
	<unicode hex="0614"/>
	<outline>
		<contour>
			<point x="283" y="875" type="curve"/>
			<point x="191" y="839"/>
			<point x="93" y="830"/>
			<point x="-11" y="849" type="curve"/>
			<point x="-26" y="852"/>
			<point x="-33" y="860"/>
			<point x="-32" y="873" type="curve"/>
			<point x="-30" y="884"/>
			<point x="-21" y="890"/>
			<point x="-6" y="889" type="curve" smooth="yes"/>
			<point x="145" y="884"/>
			<point x="246" y="904"/>
			<point x="296" y="950" type="curve"/>
			<point x="304" y="957"/>
			<point x="312" y="958"/>
			<point x="319" y="954" type="curve" smooth="yes"/>
			<point x="326" y="950"/>
			<point x="328" y="941"/>
			<point x="322" y="927" type="curve"/>
			<point x="345" y="911"/>
			<point x="367" y="903"/>
			<point x="389" y="903" type="curve"/>
			<point x="387" y="906"/>
			<point x="385" y="911"/>
			<point x="382" y="917" type="curve" smooth="yes"/>
			<point x="379" y="923"/>
			<point x="379" y="930"/>
			<point x="383" y="940" type="curve"/>
			<point x="399" y="973" type="line" smooth="yes"/>
			<point x="401" y="977"/>
			<point x="404" y="979"/>
			<point x="407" y="981" type="curve"/>
			<point x="415" y="984"/>
			<point x="421" y="978"/>
			<point x="427" y="962" type="curve" smooth="yes"/>
			<point x="433" y="946"/>
			<point x="433" y="922"/>
			<point x="428" y="891" type="curve" smooth="yes"/>
			<point x="423" y="860"/>
			<point x="411" y="843"/>
			<point x="393" y="841" type="curve"/>
			<point x="357" y="837"/>
			<point x="320" y="848"/>
		</contour>
	</outline>
</glyph>
<glyph name="tahabove-ar" format="2">
	<unicode hex="0615"/>
	<outline>
		<contour>
			<point x="182" y="1745" type="curve" smooth="yes"/>
			<point x="198" y="1618"/>
			<point x="204" y="1522"/>
			<point x="200" y="1458" type="curve"/>
			<point x="271" y="1529"/>
			<point x="327" y="1552"/>
			<point x="368" y="1527" type="curve"/>
			<point x="390" y="1513"/>
			<point x="403" y="1497"/>
			<point x="405" y="1479" type="curve" smooth="yes"/>
			<point x="407" y="1461"/>
			<point x="403" y="1440"/>
			<point x="390" y="1416" type="curve" smooth="yes"/>
			<point x="377" y="1392"/>
			<point x="367" y="1378"/>
			<point x="360" y="1373" type="curve" smooth="yes"/>
			<point x="305" y="1337"/>
			<point x="215" y="1314"/>
			<point x="89" y="1304" type="curve"/>
			<point x="88" y="1304" type="line"/>
			<point x="65" y="1308"/>
			<point x="43" y="1317"/>
			<point x="22" y="1331" type="curve" smooth="yes"/>
			<point x="1" y="1345"/>
			<point x="-9" y="1359"/>
			<point x="-8" y="1373" type="curve" smooth="yes"/>
			<point x="-7" y="1381"/>
			<point x="-3" y="1384"/>
			<point x="6" y="1383" type="curve" smooth="yes"/>
			<point x="34" y="1379"/>
			<point x="71" y="1379"/>
			<point x="116" y="1382" type="curve"/>
			<point x="152" y="1416" type="line"/>
			<point x="151" y="1515"/>
			<point x="143" y="1612"/>
			<point x="129" y="1708" type="curve" smooth="yes"/>
			<point x="127" y="1723"/>
			<point x="129" y="1735"/>
			<point x="134" y="1742" type="curve" smooth="yes"/>
			<point x="149" y="1765" type="line" smooth="yes"/>
			<point x="154" y="1772"/>
			<point x="158" y="1775"/>
			<point x="163" y="1776" type="curve" smooth="yes"/>
			<point x="171" y="1777"/>
			<point x="177" y="1772"/>
			<point x="180" y="1759" type="curve" smooth="yes"/>
			<point x="181" y="1755"/>
			<point x="181" y="1751"/>
		</contour>
		<contour>
			<point x="266" y="1453" type="curve"/>
			<point x="250" y="1448"/>
			<point x="220" y="1426"/>
			<point x="177" y="1389" type="curve"/>
			<point x="244" y="1398"/>
			<point x="299" y="1414"/>
			<point x="342" y="1435" type="curve"/>
			<point x="325" y="1458"/>
			<point x="300" y="1463"/>
		</contour>
	</outline>
	<anchor name="_MarkAbove" x="233" y="1270"/>
</glyph>
<glyph name="alefLamYehabove-ar" format="2">
	<unicode hex="0616"/>
	<outline>
		<contour>
			<point x="272" y="1163" type="curve"/>
			<point x="269" y="1177"/>
			<point x="264" y="1183"/>
			<point x="254" y="1178" type="curve" smooth="yes"/>
			<point x="252" y="1177"/>
			<point x="249" y="1172"/>
			<point x="245" y="1164" type="curve" smooth="yes"/>
			<point x="233" y="1140" type="line"/>
			<point x="230" y="1135"/>
			<point x="229" y="1128"/>
			<point x="230" y="1117" type="curve" smooth="yes"/>
			<point x="240" y="1015"/>
			<point x="244" y="947"/>
			<point x="242" y="914" type="curve" smooth="yes"/>
			<point x="241" y="901"/>
			<point x="245" y="894"/>
			<point x="255" y="894" type="curve"/>
			<point x="258" y="894"/>
			<point x="261" y="896"/>
			<point x="263" y="898" type="curve" smooth="yes"/>
			<point x="265" y="900"/>
			<point x="269" y="907"/>
			<point x="274" y="920" type="curve" smooth="yes"/>
			<point x="289" y="961"/>
			<point x="288" y="1042"/>
		</contour>
		<contour>
			<point x="154" y="1163" type="curve" smooth="yes"/>
			<point x="167" y="1092"/>
			<point x="168" y="1034"/>
			<point x="160" y="989" type="curve"/>
			<point x="153" y="954"/>
			<point x="132" y="922"/>
			<point x="97" y="897" type="curve"/>
			<point x="166" y="890"/>
			<point x="276" y="893"/>
			<point x="427" y="906" type="curve" smooth="yes"/>
			<point x="432" y="906"/>
			<point x="436" y="906"/>
			<point x="441" y="903" type="curve" smooth="yes"/>
			<point x="446" y="900"/>
			<point x="445" y="894"/>
			<point x="439" y="885" type="curve" smooth="yes"/>
			<point x="421" y="858" type="line"/>
			<point x="416" y="852"/>
			<point x="412" y="849"/>
			<point x="407" y="848" type="curve" smooth="yes"/>
			<point x="376" y="843"/>
			<point x="323" y="840"/>
			<point x="246" y="837" type="curve" smooth="yes"/>
			<point x="169" y="834"/>
			<point x="112" y="835"/>
			<point x="74" y="841" type="curve" smooth="yes"/>
			<point x="58" y="844"/>
			<point x="49" y="851"/>
			<point x="47" y="864" type="curve" smooth="yes"/>
			<point x="45" y="880"/>
			<point x="49" y="896"/>
			<point x="58" y="911" type="curve" smooth="yes"/>
			<point x="67" y="926"/>
			<point x="77" y="937"/>
			<point x="87" y="945" type="curve" smooth="yes"/>
			<point x="114" y="965"/>
			<point x="127" y="985"/>
			<point x="127" y="1007" type="curve"/>
			<point x="122" y="1055"/>
			<point x="119" y="1090"/>
			<point x="116" y="1111" type="curve" smooth="yes"/>
			<point x="113" y="1132"/>
			<point x="113" y="1145"/>
			<point x="116" y="1151" type="curve"/>
			<point x="126" y="1166" type="line" smooth="yes"/>
			<point x="131" y="1173"/>
			<point x="136" y="1176"/>
			<point x="140" y="1177" type="curve"/>
			<point x="147" y="1178"/>
			<point x="152" y="1173"/>
		</contour>
	</outline>
	<anchor name="_MarkAbove" x="214" y="801"/>
	<anchor name="_TashkilAboveDot" x="213" y="801"/>
	<anchor name="_TashkilAbove" x="213" y="801"/>
</glyph>
<glyph name="zainabove-ar" format="2">
	<unicode hex="0617"/>
	<outline>
		<contour>
			<point x="209" y="1774" type="line"/>
			<point x="213" y="1779"/>
			<point x="218" y="1780"/>
			<point x="224" y="1778" type="curve" smooth="yes"/>
			<point x="230" y="1776"/>
			<point x="234" y="1773"/>
			<point x="240" y="1771" type="curve" smooth="yes"/>
			<point x="246" y="1769"/>
			<point x="255" y="1762"/>
			<point x="268" y="1751" type="curve"/>
			<point x="272" y="1746"/>
			<point x="274" y="1741"/>
			<point x="271" y="1736" type="curve"/>
			<point x="242" y="1691" type="line"/>
			<point x="238" y="1685"/>
			<point x="233" y="1684"/>
			<point x="228" y="1688" type="curve" smooth="yes"/>
			<point x="223" y="1692"/>
			<point x="208" y="1701"/>
			<point x="183" y="1716" type="curve" smooth="yes"/>
			<point x="177" y="1720"/>
			<point x="176" y="1724"/>
			<point x="180" y="1730" type="curve" smooth="yes"/>
		</contour>
		<contour>
			<point x="270" y="1609" type="line"/>
			<point x="273" y="1618"/>
			<point x="278" y="1621"/>
			<point x="288" y="1615" type="curve" smooth="yes"/>
			<point x="290" y="1614"/>
			<point x="292" y="1612"/>
			<point x="293" y="1611" type="curve" smooth="yes"/>
			<point x="310" y="1594"/>
			<point x="322" y="1571"/>
			<point x="330" y="1543" type="curve" smooth="yes"/>
			<point x="350" y="1476"/>
			<point x="337" y="1414"/>
			<point x="294" y="1359" type="curve" smooth="yes"/>
			<point x="270" y="1328"/>
			<point x="239" y="1307"/>
			<point x="200" y="1297" type="curve" smooth="yes"/>
			<point x="188" y="1294"/>
			<point x="177" y="1294"/>
			<point x="167" y="1298" type="curve" smooth="yes"/>
			<point x="122" y="1313"/>
			<point x="94" y="1323"/>
			<point x="85" y="1328" type="curve" smooth="yes"/>
			<point x="76" y="1333"/>
			<point x="72" y="1339"/>
			<point x="72" y="1345" type="curve" smooth="yes"/>
			<point x="73" y="1355"/>
			<point x="78" y="1358"/>
			<point x="88" y="1355" type="curve" smooth="yes"/>
			<point x="114" y="1347"/>
			<point x="137" y="1344"/>
			<point x="156" y="1347" type="curve" smooth="yes"/>
			<point x="219" y="1356"/>
			<point x="269" y="1393"/>
			<point x="303" y="1458" type="curve" smooth="yes"/>
			<point x="304" y="1460"/>
			<point x="303" y="1461"/>
			<point x="303" y="1462" type="curve" smooth="yes"/>
			<point x="297" y="1483"/>
			<point x="282" y="1508"/>
			<point x="257" y="1539" type="curve" smooth="yes"/>
			<point x="254" y="1543"/>
			<point x="254" y="1546"/>
			<point x="255" y="1550" type="curve"/>
		</contour>
	</outline>
	<anchor name="_MarkAbove" x="233" y="1270"/>
</glyph>
<glyph name="fathasmall-ar" format="2">
	<unicode hex="0618"/>
	<outline>
		<contour>
			<point x="141" y="876" type="curve" smooth="yes"/>
			<point x="312" y="952" type="line"/>
			<point x="317" y="954"/>
			<point x="321" y="955"/>
			<point x="326" y="954" type="curve" smooth="yes"/>
			<point x="331" y="953"/>
			<point x="332" y="949"/>
			<point x="331" y="941" type="curve" smooth="yes"/>
			<point x="328" y="913" type="line" smooth="yes"/>
			<point x="327" y="905"/>
			<point x="323" y="900"/>
			<point x="317" y="898" type="curve" smooth="yes"/>
			<point x="149" y="840" type="line"/>
			<point x="133" y="835"/>
			<point x="126" y="839"/>
			<point x="127" y="852" type="curve"/>
			<point x="129" y="862" type="line" smooth="yes"/>
			<point x="130" y="868"/>
			<point x="134" y="873"/>
		</contour>
	</outline>
	<anchor name="_MarkAbove" x="249" y="801"/>
	<anchor name="_TashkilAboveDot" x="247" y="801"/>
	<anchor name="_TashkilAbove" x="247" y="801"/>
</glyph>
<glyph name="dammasmall-ar" format="2">
	<unicode hex="0619"/>
	<outline>
		<contour>
			<point x="268" y="1059" type="curve"/>
			<point x="279" y="1062"/>
			<point x="286" y="1058"/>
			<point x="292" y="1050" type="curve" smooth="yes"/>
			<point x="305" y="1031"/>
			<point x="304" y="1002"/>
			<point x="288" y="964" type="curve"/>
			<point x="295" y="959"/>
			<point x="302" y="956"/>
			<point x="307" y="953" type="curve" smooth="yes"/>
			<point x="312" y="950"/>
			<point x="312" y="944"/>
			<point x="308" y="935" type="curve" smooth="yes"/>
			<point x="298" y="916" type="line" smooth="yes"/>
			<point x="294" y="908"/>
			<point x="282" y="908"/>
			<point x="263" y="919" type="curve"/>
			<point x="233" y="882"/>
			<point x="207" y="856"/>
			<point x="183" y="843" type="curve"/>
			<point x="169" y="836"/>
			<point x="160" y="835"/>
			<point x="155" y="842" type="curve"/>
			<point x="150" y="849"/>
			<point x="158" y="861"/>
			<point x="178" y="875" type="curve" smooth="yes"/>
			<point x="198" y="889"/>
			<point x="217" y="910"/>
			<point x="237" y="935" type="curve"/>
			<point x="206" y="952"/>
			<point x="197" y="974"/>
			<point x="209" y="1000" type="curve" smooth="yes"/>
			<point x="224" y="1033"/>
			<point x="244" y="1052"/>
		</contour>
		<contour>
			<point x="259" y="998" type="curve"/>
			<point x="254" y="1004"/>
			<point x="247" y="1004"/>
			<point x="237" y="996" type="curve"/>
			<point x="242" y="991"/>
			<point x="250" y="985"/>
			<point x="261" y="979" type="curve"/>
			<point x="262" y="987"/>
			<point x="261" y="993"/>
		</contour>
	</outline>
	<anchor name="_MarkAbove" x="244" y="801"/>
	<anchor name="_TashkilAbove" x="244" y="801"/>
	<anchor name="_TashkilAboveDot" x="244" y="801"/>
</glyph>
<glyph name="uni061D" format="2">
	<unicode hex="061D"/>
	<advance width="674"/>
	<outline>
		<contour>
			<point x="534" y="180" type="curve" smooth="yes"/>
			<point x="587" y="180"/>
			<point x="617" y="130"/>
			<point x="617" y="80" type="curve" smooth="yes"/>
			<point x="617" y="43"/>
			<point x="600" y="7"/>
			<point x="574" y="-19" type="curve" smooth="yes"/>
			<point x="551" y="-42"/>
			<point x="521" y="-57"/>
			<point x="488" y="-57" type="curve" smooth="yes"/>
			<point x="423" y="-57"/>
			<point x="393" y="-6"/>
			<point x="373" y="41" type="curve" smooth="yes"/>
			<point x="335" y="124"/>
			<point x="303" y="176"/>
			<point x="250" y="241" type="curve" smooth="yes"/>
			<point x="215" y="288"/>
			<point x="164" y="319"/>
			<point x="121" y="359" type="curve" smooth="yes"/>
			<point x="85" y="391"/>
			<point x="65" y="455"/>
			<point x="65" y="517" type="curve" smooth="yes"/>
			<point x="65" y="545"/>
			<point x="71" y="569"/>
			<point x="81" y="590" type="curve" smooth="yes"/>
			<point x="105" y="638"/>
			<point x="146" y="697"/>
			<point x="202" y="735" type="curve" smooth="yes"/>
			<point x="256" y="772"/>
			<point x="347" y="793"/>
			<point x="398" y="742" type="curve" smooth="yes"/>
			<point x="472" y="668"/>
			<point x="417" y="529"/>
			<point x="373" y="464" type="curve"/>
			<point x="347" y="481" type="line"/>
			<point x="361" y="517"/>
			<point x="374" y="559"/>
			<point x="374" y="579" type="curve" smooth="yes"/>
			<point x="374" y="622"/>
			<point x="347" y="641"/>
			<point x="304" y="641" type="curve" smooth="yes"/>
			<point x="234" y="641"/>
			<point x="148" y="557"/>
			<point x="122" y="496" type="curve"/>
			<point x="143" y="474"/>
			<point x="178" y="452"/>
			<point x="212" y="424" type="curve" smooth="yes"/>
			<point x="253" y="390"/>
			<point x="279" y="370"/>
			<point x="305" y="338" type="curve" smooth="yes"/>
			<point x="349" y="282"/>
			<point x="366" y="216"/>
			<point x="383" y="156" type="curve" smooth="yes"/>
			<point x="390" y="131"/>
			<point x="418" y="67"/>
			<point x="455" y="67" type="curve"/>
			<point x="453" y="77"/>
			<point x="451" y="86"/>
			<point x="451" y="95" type="curve" smooth="yes"/>
			<point x="451" y="119"/>
			<point x="459" y="141"/>
			<point x="475" y="157" type="curve" smooth="yes"/>
			<point x="490" y="172"/>
			<point x="511" y="180"/>
		</contour>
	</outline>
</glyph>
<glyph name="question-ar" format="2">
	<unicode hex="061F"/>
	<advance width="413"/>
	<outline>
		<contour>
			<point x="327" y="526" type="curve"/>
			<point x="312" y="599"/>
			<point x="276" y="636"/>
			<point x="218" y="636" type="curve" smooth="yes"/>
			<point x="170" y="636"/>
			<point x="144" y="614"/>
			<point x="139" y="570" type="curve" smooth="yes"/>
			<point x="136" y="543"/>
			<point x="145" y="511"/>
			<point x="165" y="473" type="curve" smooth="yes"/>
			<point x="203" y="400"/>
			<point x="223" y="334"/>
			<point x="226" y="276" type="curve" smooth="yes"/>
			<point x="228" y="243"/>
			<point x="227" y="215"/>
			<point x="222" y="192" type="curve" smooth="yes"/>
			<point x="221" y="185"/>
			<point x="216" y="182"/>
			<point x="209" y="182" type="curve" smooth="yes"/>
			<point x="201" y="182"/>
			<point x="196" y="184"/>
			<point x="195" y="190" type="curve" smooth="yes"/>
			<point x="193" y="197"/>
			<point x="193" y="208"/>
			<point x="192" y="223" type="curve" smooth="yes"/>
			<point x="191" y="254"/>
			<point x="178" y="277"/>
			<point x="155" y="294" type="curve" smooth="yes"/>
			<point x="81" y="347"/>
			<point x="39" y="394"/>
			<point x="28" y="435" type="curve" smooth="yes"/>
			<point x="12" y="495"/>
			<point x="21" y="549"/>
			<point x="55" y="596" type="curve" smooth="yes"/>
			<point x="90" y="644"/>
			<point x="143" y="669"/>
			<point x="215" y="671" type="curve" smooth="yes"/>
			<point x="252" y="672"/>
			<point x="284" y="660"/>
			<point x="312" y="637" type="curve" smooth="yes"/>
			<point x="335" y="618"/>
			<point x="350" y="594"/>
			<point x="359" y="564" type="curve" smooth="yes"/>
			<point x="372" y="521"/>
			<point x="372" y="482"/>
			<point x="358" y="447" type="curve" smooth="yes"/>
			<point x="344" y="412"/>
			<point x="322" y="395"/>
			<point x="289" y="393" type="curve" smooth="yes"/>
			<point x="267" y="392"/>
			<point x="249" y="400"/>
			<point x="234" y="417" type="curve" smooth="yes"/>
			<point x="220" y="433"/>
			<point x="214" y="450"/>
			<point x="214" y="468" type="curve" smooth="yes"/>
			<point x="214" y="486"/>
			<point x="219" y="502"/>
			<point x="230" y="516" type="curve" smooth="yes"/>
			<point x="241" y="530"/>
			<point x="257" y="539"/>
			<point x="277" y="541" type="curve" smooth="yes"/>
			<point x="297" y="543"/>
			<point x="314" y="538"/>
		</contour>
		<component base="dot.2" xOffset="51"/>
	</outline>
</glyph>
<glyph name="hamza-ar" format="2">
	<unicode hex="0621"/>
	<advance width="381"/>
	<outline>
		<contour>
			<point x="184" y="306" type="curve" smooth="yes"/>
			<point x="223" y="305"/>
			<point x="241" y="284"/>
			<point x="237" y="242" type="curve"/>
			<point x="235" y="222"/>
			<point x="229" y="206"/>
			<point x="219" y="195" type="curve" smooth="yes"/>
			<point x="209" y="184"/>
			<point x="199" y="183"/>
			<point x="187" y="193" type="curve"/>
			<point x="159" y="219"/>
			<point x="140" y="224"/>
			<point x="131" y="206" type="curve"/>
			<point x="124" y="192"/>
			<point x="134" y="179"/>
			<point x="160" y="166" type="curve" smooth="yes"/>
			<point x="200" y="147"/>
			<point x="237" y="147"/>
			<point x="271" y="167" type="curve" smooth="yes"/>
			<point x="291" y="178"/>
			<point x="305" y="183"/>
			<point x="315" y="180" type="curve" smooth="yes"/>
			<point x="325" y="177"/>
			<point x="328" y="167"/>
			<point x="323" y="149" type="curve" smooth="yes"/>
			<point x="315" y="123" type="line"/>
			<point x="311" y="110"/>
			<point x="305" y="101"/>
			<point x="298" y="98" type="curve"/>
			<point x="248" y="80"/>
			<point x="186" y="47"/>
			<point x="113" y="-2" type="curve"/>
			<point x="103" y="-8"/>
			<point x="95" y="-8"/>
			<point x="88" y="-1" type="curve"/>
			<point x="74" y="13"/>
			<point x="86" y="36"/>
			<point x="124" y="70" type="curve"/>
			<point x="75" y="91"/>
			<point x="52" y="117"/>
			<point x="56" y="149" type="curve" smooth="yes"/>
			<point x="60" y="181"/>
			<point x="82" y="219"/>
			<point x="120" y="264" type="curve" smooth="yes"/>
			<point x="144" y="292"/>
			<point x="166" y="306"/>
		</contour>
	</outline>
	<anchor name="TashkilBelow" x="210" y="29"/>
	<anchor name="TashkilAbove" x="146" y="342"/>
</glyph>
<glyph name="kashida-ar" format="2">
	<unicode hex="0640"/>
	<advance width="185"/>
	<outline>
		<contour>
			<point x="0" y="-15" type="line" smooth="yes"/>
			<point x="-13" y="-15"/>
			<point x="-22" y="-6"/>
			<point x="-27" y="11" type="curve" smooth="yes"/>
			<point x="-40" y="55" type="line"/>
			<point x="-46" y="87"/>
			<point x="-32" y="104"/>
			<point x="0" y="104" type="curve" smooth="yes"/>
			<point x="186" y="104" type="line" smooth="yes"/>
			<point x="214" y="104"/>
			<point x="227" y="92"/>
			<point x="227" y="69" type="curve" smooth="yes"/>
			<point x="227" y="63"/>
			<point x="226" y="59"/>
			<point x="225" y="55" type="curve" smooth="yes"/>
			<point x="212" y="11" type="line" smooth="yes"/>
			<point x="207" y="-6"/>
			<point x="198" y="-15"/>
			<point x="186" y="-15" type="curve" smooth="yes"/>
		</contour>
	</outline>
	<anchor name="HamzaBelow" x="93" y="-92.773"/>
	<anchor name="HamzaAbove" x="93" y="244"/>
	<anchor name="NoonAbove" x="93" y="244"/>
	<anchor name="AlefAbove" x="93" y="244"/>
	<anchor name="MarkBelow" x="93" y="-327"/>
	<anchor name="MarkAbove" x="93" y="801"/>
</glyph>
<glyph name="fathatan-ar" format="2">
	<unicode hex="064B"/>
	<outline>
		<contour>
			<point x="333" y="1018" type="line" smooth="yes"/>
			<point x="345" y="1026"/>
			<point x="355" y="1029"/>
			<point x="362" y="1027" type="curve" smooth="yes"/>
			<point x="369" y="1025"/>
			<point x="371" y="1016"/>
			<point x="366" y="1001" type="curve" smooth="yes"/>
			<point x="355" y="970" type="line" smooth="yes"/>
			<point x="351" y="958"/>
			<point x="345" y="950"/>
			<point x="336" y="944" type="curve" smooth="yes"/>
			<point x="161" y="836" type="line" smooth="yes"/>
			<point x="154" y="832"/>
			<point x="147" y="831"/>
			<point x="140" y="832" type="curve" smooth="yes"/>
			<point x="133" y="833"/>
			<point x="130" y="840"/>
			<point x="132" y="853" type="curve" smooth="yes"/>
			<point x="135" y="872" type="line"/>
			<point x="137" y="883"/>
			<point x="144" y="893"/>
			<point x="155" y="900" type="curve"/>
		</contour>
		<contour>
			<point x="329" y="1118" type="line" smooth="yes"/>
			<point x="340" y="1125"/>
			<point x="348" y="1127"/>
			<point x="355" y="1125" type="curve" smooth="yes"/>
			<point x="362" y="1123"/>
			<point x="364" y="1116"/>
			<point x="361" y="1102" type="curve" smooth="yes"/>
			<point x="354" y="1076" type="line" smooth="yes"/>
			<point x="350" y="1063"/>
			<point x="342" y="1053"/>
			<point x="330" y="1046" type="curve" smooth="yes"/>
			<point x="153" y="943" type="line" smooth="yes"/>
			<point x="140" y="936"/>
			<point x="130" y="933"/>
			<point x="123" y="936" type="curve" smooth="yes"/>
			<point x="116" y="939"/>
			<point x="115" y="948"/>
			<point x="121" y="962" type="curve"/>
			<point x="130" y="981" type="line" smooth="yes"/>
			<point x="135" y="992"/>
			<point x="140" y="999"/>
			<point x="148" y="1004" type="curve" smooth="yes"/>
		</contour>
	</outline>
	<anchor name="TashkilTashkilAbove" x="140" y="1060"/>
	<anchor name="_MarkAbove" x="258" y="801"/>
	<anchor name="_TashkilAboveDot" x="258" y="801"/>
	<anchor name="_TashkilAbove" x="258" y="801"/>
</glyph>
<glyph name="dammatan-ar" format="2">
	<unicode hex="064C"/>
	<outline>
		<contour>
			<point x="264" y="966" type="curve"/>
			<point x="243" y="982"/>
			<point x="230" y="996"/>
			<point x="227" y="1007" type="curve" smooth="yes"/>
			<point x="224" y="1018"/>
			<point x="225" y="1032"/>
			<point x="231" y="1051" type="curve" smooth="yes"/>
			<point x="237" y="1070"/>
			<point x="247" y="1085"/>
			<point x="259" y="1097" type="curve" smooth="yes"/>
			<point x="271" y="1109"/>
			<point x="283" y="1115"/>
			<point x="297" y="1113" type="curve" smooth="yes"/>
			<point x="311" y="1111"/>
			<point x="320" y="1103"/>
			<point x="325" y="1087" type="curve" smooth="yes"/>
			<point x="333" y="1060"/>
			<point x="333" y="1031"/>
			<point x="325" y="1001" type="curve"/>
			<point x="334" y="996"/>
			<point x="341" y="992"/>
			<point x="347" y="988" type="curve" smooth="yes"/>
			<point x="353" y="984"/>
			<point x="355" y="978"/>
			<point x="354" y="972" type="curve"/>
			<point x="348" y="939" type="line"/>
			<point x="344" y="922"/>
			<point x="332" y="920"/>
			<point x="312" y="932" type="curve" smooth="yes"/>
			<point x="305" y="937"/>
			<point x="299" y="941"/>
			<point x="295" y="944" type="curve"/>
			<point x="265" y="893"/>
			<point x="220" y="858"/>
			<point x="160" y="841" type="curve" smooth="yes"/>
			<point x="140" y="835"/>
			<point x="128" y="840"/>
			<point x="125" y="854" type="curve"/>
			<point x="123" y="867"/>
			<point x="132" y="877"/>
			<point x="152" y="883" type="curve" smooth="yes"/>
			<point x="203" y="898"/>
			<point x="240" y="926"/>
		</contour>
		<contour>
			<point x="287" y="1024" type="curve"/>
			<point x="287" y="1031"/>
			<point x="285" y="1037"/>
			<point x="281" y="1041" type="curve" smooth="yes"/>
			<point x="277" y="1045"/>
			<point x="271" y="1045"/>
			<point x="263" y="1041" type="curve"/>
			<point x="269" y="1035"/>
			<point x="277" y="1030"/>
		</contour>
		<contour>
			<point x="211" y="1020" type="curve" smooth="yes"/>
			<point x="219" y="1022"/>
			<point x="225" y="1017"/>
			<point x="225" y="1007" type="curve" smooth="yes"/>
			<point x="225" y="1004"/>
			<point x="224" y="1001"/>
			<point x="223" y="998" type="curve" smooth="yes"/>
			<point x="215" y="972" type="line" smooth="yes"/>
			<point x="210" y="957"/>
			<point x="199" y="951"/>
			<point x="183" y="956" type="curve"/>
			<point x="169" y="961"/>
			<point x="160" y="972"/>
			<point x="153" y="990" type="curve" smooth="yes"/>
			<point x="146" y="1008"/>
			<point x="145" y="1029"/>
			<point x="151" y="1054" type="curve" smooth="yes"/>
			<point x="157" y="1079"/>
			<point x="174" y="1107"/>
			<point x="201" y="1137" type="curve" smooth="yes"/>
			<point x="264" y="1206"/>
			<point x="311" y="1233"/>
			<point x="341" y="1219" type="curve"/>
			<point x="353" y="1213"/>
			<point x="359" y="1203"/>
			<point x="360" y="1188" type="curve" smooth="yes"/>
			<point x="361" y="1167"/>
			<point x="356" y="1151"/>
			<point x="346" y="1140" type="curve" smooth="yes"/>
			<point x="335" y="1128"/>
			<point x="323" y="1128"/>
			<point x="309" y="1141" type="curve" smooth="yes"/>
			<point x="295" y="1154"/>
			<point x="277" y="1153"/>
			<point x="255" y="1137" type="curve" smooth="yes"/>
			<point x="233" y="1121"/>
			<point x="217" y="1105"/>
			<point x="206" y="1088" type="curve" smooth="yes"/>
			<point x="195" y="1071"/>
			<point x="189" y="1058"/>
			<point x="188" y="1048" type="curve" smooth="yes"/>
			<point x="187" y="1038"/>
			<point x="190" y="1031"/>
			<point x="195" y="1026" type="curve" smooth="yes"/>
			<point x="200" y="1021"/>
			<point x="205" y="1019"/>
		</contour>
	</outline>
	<anchor name="TashkilTashkilAbove" x="91" y="1060"/>
	<anchor name="_MarkAbove" x="249" y="801"/>
	<anchor name="_TashkilAbove" x="249" y="801"/>
	<anchor name="_TashkilAboveDot" x="249" y="801"/>
</glyph>
<glyph name="fatha-ar" format="2">
	<unicode hex="064E"/>
	<outline>
		<contour>
			<point x="350" y="1028" type="line" smooth="yes"/>
			<point x="359" y="1034"/>
			<point x="367" y="1035"/>
			<point x="374" y="1033" type="curve" smooth="yes"/>
			<point x="381" y="1031"/>
			<point x="382" y="1023"/>
			<point x="378" y="1009" type="curve" smooth="yes"/>
			<point x="369" y="977" type="line" smooth="yes"/>
			<point x="366" y="967"/>
			<point x="357" y="957"/>
			<point x="344" y="949" type="curve"/>
			<point x="149" y="836" type="line" smooth="yes"/>
			<point x="144" y="833"/>
			<point x="140" y="832"/>
			<point x="136" y="832" type="curve"/>
			<point x="127" y="833"/>
			<point x="122" y="840"/>
			<point x="121" y="852" type="curve"/>
			<point x="121" y="869" type="line"/>
			<point x="122" y="879"/>
			<point x="129" y="889"/>
			<point x="142" y="898" type="curve"/>
		</contour>
	</outline>
	<anchor name="_MarkAbove" x="268" y="801"/>
	<anchor name="TashkilTashkilAbove" x="145" y="955"/>
	<anchor name="_TashkilAbove" x="271" y="801"/>
	<anchor name="_TashkilAboveDot" x="271" y="801"/>
</glyph>
<glyph name="damma-ar" format="2">
	<unicode hex="064F"/>
	<outline>
		<contour>
			<point x="310" y="1154" type="curve"/>
			<point x="325" y="1156"/>
			<point x="337" y="1149"/>
			<point x="346" y="1134" type="curve" smooth="yes"/>
			<point x="363" y="1107"/>
			<point x="364" y="1072"/>
			<point x="348" y="1029" type="curve"/>
			<point x="356" y="1025"/>
			<point x="361" y="1022"/>
			<point x="365" y="1020" type="curve" smooth="yes"/>
			<point x="379" y="1014"/>
			<point x="382" y="1005"/>
			<point x="375" y="990" type="curve" smooth="yes"/>
			<point x="363" y="968" type="line" smooth="yes"/>
			<point x="357" y="957"/>
			<point x="351" y="954"/>
			<point x="343" y="957" type="curve" smooth="yes"/>
			<point x="335" y="960"/>
			<point x="326" y="964"/>
			<point x="317" y="969" type="curve"/>
			<point x="271" y="910"/>
			<point x="220" y="865"/>
			<point x="162" y="836" type="curve" smooth="yes"/>
			<point x="145" y="828"/>
			<point x="132" y="830"/>
			<point x="125" y="843" type="curve" smooth="yes"/>
			<point x="118" y="856"/>
			<point x="124" y="868"/>
			<point x="143" y="878" type="curve" smooth="yes"/>
			<point x="199" y="911"/>
			<point x="244" y="948"/>
			<point x="278" y="990" type="curve"/>
			<point x="232" y="1016"/>
			<point x="215" y="1044"/>
			<point x="227" y="1073" type="curve" smooth="yes"/>
			<point x="248" y="1122"/>
			<point x="275" y="1148"/>
		</contour>
		<contour>
			<point x="304" y="1050" type="curve"/>
			<point x="304" y="1062"/>
			<point x="302" y="1070"/>
			<point x="298" y="1074" type="curve" smooth="yes"/>
			<point x="294" y="1078"/>
			<point x="289" y="1080"/>
			<point x="285" y="1083" type="curve" smooth="yes"/>
			<point x="280" y="1086"/>
			<point x="276" y="1083"/>
			<point x="271" y="1075" type="curve"/>
			<point x="274" y="1068"/>
			<point x="284" y="1060"/>
		</contour>
	</outline>
	<anchor name="_MarkAbove" x="278" y="801"/>
	<anchor name="TashkilTashkilAbove" x="195" y="1074"/>
	<anchor name="_TashkilAboveDot" x="278" y="801"/>
	<anchor name="_TashkilAbove" x="278" y="801"/>
</glyph>
<glyph name="shadda-ar" format="2">
	<unicode hex="0651"/>
	<outline>
		<contour>
			<point x="293" y="984" type="curve" smooth="yes"/>
			<point x="296" y="1002"/>
			<point x="302" y="1011"/>
			<point x="314" y="1010" type="curve" smooth="yes"/>
			<point x="326" y="1009"/>
			<point x="333" y="1002"/>
			<point x="334" y="988" type="curve" smooth="yes"/>
			<point x="334" y="986"/>
			<point x="333" y="985"/>
			<point x="333" y="983" type="curve" smooth="yes"/>
			<point x="331" y="947"/>
			<point x="324" y="916"/>
			<point x="313" y="891" type="curve" smooth="yes"/>
			<point x="299" y="861"/>
			<point x="278" y="844"/>
			<point x="252" y="842" type="curve"/>
			<point x="236" y="841"/>
			<point x="222" y="848"/>
			<point x="208" y="862" type="curve"/>
			<point x="198" y="848"/>
			<point x="187" y="837"/>
			<point x="173" y="830" type="curve"/>
			<point x="154" y="821"/>
			<point x="137" y="819"/>
			<point x="119" y="826" type="curve"/>
			<point x="77" y="844"/>
			<point x="71" y="893"/>
			<point x="102" y="975" type="curve" smooth="yes"/>
			<point x="108" y="990"/>
			<point x="117" y="995"/>
			<point x="129" y="991" type="curve" smooth="yes"/>
			<point x="130" y="991"/>
			<point x="131" y="990"/>
			<point x="132" y="990" type="curve" smooth="yes"/>
			<point x="142" y="985"/>
			<point x="146" y="975"/>
			<point x="142" y="960" type="curve" smooth="yes"/>
			<point x="140" y="953"/>
			<point x="138" y="946"/>
			<point x="137" y="940" type="curve" smooth="yes"/>
			<point x="134" y="919"/>
			<point x="139" y="907"/>
			<point x="151" y="905" type="curve"/>
			<point x="168" y="903"/>
			<point x="183" y="918"/>
			<point x="195" y="952" type="curve" smooth="yes"/>
			<point x="198" y="961"/>
			<point x="201" y="970"/>
			<point x="204" y="981" type="curve" smooth="yes"/>
			<point x="208" y="995"/>
			<point x="215" y="1001"/>
			<point x="226" y="1000" type="curve" smooth="yes"/>
			<point x="227" y="1000"/>
			<point x="227" y="1000"/>
			<point x="227" y="1000" type="curve" smooth="yes"/>
			<point x="238" y="997"/>
			<point x="243" y="991"/>
			<point x="242" y="982" type="curve" smooth="yes"/>
			<point x="242" y="981"/>
			<point x="242" y="979"/>
			<point x="242" y="978" type="curve"/>
			<point x="242" y="979" type="line" smooth="yes"/>
			<point x="241" y="973"/>
			<point x="240" y="967"/>
			<point x="240" y="962" type="curve" smooth="yes"/>
			<point x="240" y="945"/>
			<point x="245" y="936"/>
			<point x="256" y="934" type="curve" smooth="yes"/>
			<point x="257" y="934"/>
			<point x="259" y="934"/>
			<point x="260" y="934" type="curve" smooth="yes"/>
			<point x="276" y="934"/>
			<point x="286" y="946"/>
			<point x="291" y="972" type="curve" smooth="yes"/>
			<point x="292" y="976"/>
			<point x="293" y="980"/>
		</contour>
	</outline>
	<anchor name="_MarkAbove" x="208" y="801"/>
	<anchor name="TashkilTashkilBelow" x="198" y="801"/>
	<anchor name="TashkilTashkilAbove" x="200" y="1003"/>
	<anchor name="_TashkilAbove" x="208" y="801"/>
	<anchor name="_TashkilAboveDot" x="208" y="801"/>
</glyph>
<glyph name="sukun-ar" format="2">
	<unicode hex="0652"/>
	<outline>
		<contour>
			<point x="223" y="909" type="curve" smooth="yes"/>
			<point x="242" y="914"/>
			<point x="242" y="927"/>
			<point x="222" y="947" type="curve" smooth="yes"/>
			<point x="208" y="961"/>
			<point x="190" y="969"/>
			<point x="169" y="969" type="curve" smooth="yes"/>
			<point x="144" y="970"/>
			<point x="131" y="959"/>
			<point x="130" y="937" type="curve" smooth="yes"/>
			<point x="130" y="923"/>
			<point x="135" y="913"/>
			<point x="146" y="909" type="curve" smooth="yes"/>
			<point x="169" y="901"/>
			<point x="195" y="901"/>
		</contour>
		<contour>
			<point x="111" y="987" type="curve" smooth="yes"/>
			<point x="115" y="994"/>
			<point x="119" y="1001"/>
			<point x="123" y="1006" type="curve" smooth="yes"/>
			<point x="148" y="1040"/>
			<point x="179" y="1044"/>
			<point x="216" y="1020" type="curve" smooth="yes"/>
			<point x="219" y="1018"/>
			<point x="222" y="1016"/>
			<point x="224" y="1014" type="curve" smooth="yes"/>
			<point x="253" y="992"/>
			<point x="268" y="965"/>
			<point x="270" y="934" type="curve"/>
			<point x="272" y="896"/>
			<point x="259" y="867"/>
			<point x="234" y="849" type="curve"/>
			<point x="215" y="836"/>
			<point x="193" y="831"/>
			<point x="166" y="833" type="curve" smooth="yes"/>
			<point x="162" y="833"/>
			<point x="157" y="834"/>
			<point x="153" y="834" type="curve" smooth="yes"/>
			<point x="108" y="841"/>
			<point x="88" y="871"/>
			<point x="93" y="924" type="curve" smooth="yes"/>
			<point x="93" y="929"/>
			<point x="94" y="934"/>
			<point x="95" y="940" type="curve" smooth="yes"/>
			<point x="98" y="958"/>
			<point x="103" y="973"/>
		</contour>
	</outline>
	<anchor name="_MarkAbove" x="180" y="801"/>
	<anchor name="_TashkilTashkilAbove" x="112" y="791"/>
	<anchor name="_TashkilAboveDot" x="182" y="801"/>
	<anchor name="_TashkilAbove" x="182" y="801"/>
</glyph>
<glyph name="madda-ar" format="2">
	<unicode hex="0653"/>
	<outline>
		<contour>
			<point x="192" y="921" type="curve" smooth="yes"/>
			<point x="210" y="926"/>
			<point x="222" y="921"/>
			<point x="227" y="907" type="curve" smooth="yes"/>
			<point x="233" y="892"/>
			<point x="229" y="881"/>
			<point x="217" y="873" type="curve" smooth="yes"/>
			<point x="139" y="821"/>
			<point x="24" y="800"/>
			<point x="-128" y="808" type="curve"/>
			<point x="-140" y="779"/>
			<point x="-152" y="764"/>
			<point x="-164" y="763" type="curve" smooth="yes"/>
			<point x="-171" y="763"/>
			<point x="-176" y="764"/>
			<point x="-181" y="769" type="curve" smooth="yes"/>
			<point x="-224" y="816" type="line" smooth="yes"/>
			<point x="-235" y="828"/>
			<point x="-236" y="840"/>
			<point x="-229" y="852" type="curve" smooth="yes"/>
			<point x="-200" y="896" type="line" smooth="yes"/>
			<point x="-193" y="907"/>
			<point x="-178" y="911"/>
			<point x="-155" y="907" type="curve" smooth="yes"/>
			<point x="-35" y="886"/>
			<point x="81" y="890"/>
		</contour>
	</outline>
	<anchor name="_MarkAbove" x="0" y="767"/>
	<anchor name="_TashkilAbove" x="0" y="801"/>
</glyph>
<glyph name="hamzaabove-ar" format="2">
	<unicode hex="0654"/>
	<outline>
		<contour>
			<point x="75" y="473" type="curve" smooth="yes"/>
			<point x="39" y="466"/>
			<point x="14" y="460"/>
			<point x="-1" y="455" type="curve" smooth="yes"/>
			<point x="-16" y="450"/>
			<point x="-43" y="439"/>
			<point x="-84" y="421" type="curve"/>
			<point x="-96" y="416"/>
			<point x="-106" y="419"/>
			<point x="-112" y="428" type="curve"/>
			<point x="-121" y="443"/>
			<point x="-112" y="460"/>
			<point x="-82" y="481" type="curve"/>
			<point x="-102" y="493"/>
			<point x="-113" y="507"/>
			<point x="-116" y="522" type="curve"/>
			<point x="-121" y="551"/>
			<point x="-109" y="586"/>
			<point x="-80" y="626" type="curve" smooth="yes"/>
			<point x="-51" y="666"/>
			<point x="-19" y="685"/>
			<point x="15" y="682" type="curve" smooth="yes"/>
			<point x="40" y="680"/>
			<point x="51" y="667"/>
			<point x="49" y="643" type="curve" smooth="yes"/>
			<point x="47" y="619"/>
			<point x="41" y="602"/>
			<point x="34" y="592" type="curve" smooth="yes"/>
			<point x="27" y="582"/>
			<point x="22" y="575"/>
			<point x="19" y="573" type="curve" smooth="yes"/>
			<point x="9" y="566"/>
			<point x="1" y="568"/>
			<point x="-6" y="578" type="curve" smooth="yes"/>
			<point x="-13" y="588"/>
			<point x="-21" y="594"/>
			<point x="-32" y="595" type="curve" smooth="yes"/>
			<point x="-43" y="596"/>
			<point x="-51" y="593"/>
			<point x="-56" y="587" type="curve" smooth="yes"/>
			<point x="-61" y="581"/>
			<point x="-61" y="576"/>
			<point x="-56" y="571" type="curve" smooth="yes"/>
			<point x="-35" y="551"/>
			<point x="-3" y="541"/>
			<point x="37" y="540" type="curve" smooth="yes"/>
			<point x="44" y="540"/>
			<point x="53" y="541"/>
			<point x="67" y="544" type="curve" smooth="yes"/>
			<point x="81" y="547"/>
			<point x="90" y="549"/>
			<point x="97" y="549" type="curve" smooth="yes"/>
			<point x="104" y="549"/>
			<point x="110" y="545"/>
			<point x="114" y="539" type="curve"/>
			<point x="118" y="532"/>
			<point x="118" y="527"/>
			<point x="116" y="521" type="curve"/>
			<point x="102" y="492"/>
			<point x="88" y="476"/>
		</contour>
	</outline>
	<anchor name="_TashkilAbove" x="0" y="464"/>
	<anchor name="_MarkAbove" x="0" y="405"/>
	<anchor name="TashkilTashkilAbove" x="-24" y="718"/>
	<anchor name="_HamzaAbove" x="0" y="464"/>
</glyph>
<glyph name="noonghunnaabove-ar" format="2">
	<unicode hex="0658"/>
	<outline>
		<contour>
			<point x="141" y="1013" type="curve" smooth="yes"/>
			<point x="148" y="1022"/>
			<point x="155" y="1027"/>
			<point x="162" y="1027" type="curve"/>
			<point x="171" y="1026"/>
			<point x="175" y="1018"/>
			<point x="173" y="1005" type="curve" smooth="yes"/>
			<point x="167" y="956"/>
			<point x="182" y="930"/>
			<point x="217" y="925" type="curve"/>
			<point x="227" y="924"/>
			<point x="236" y="929"/>
			<point x="244" y="941" type="curve" smooth="yes"/>
			<point x="253" y="954"/>
			<point x="262" y="960"/>
			<point x="270" y="956" type="curve"/>
			<point x="277" y="952"/>
			<point x="278" y="943"/>
			<point x="274" y="929" type="curve"/>
			<point x="255" y="868"/>
			<point x="224" y="837"/>
			<point x="183" y="836" type="curve"/>
			<point x="137" y="836"/>
			<point x="112" y="858"/>
			<point x="108" y="904" type="curve"/>
			<point x="106" y="940"/>
			<point x="117" y="976"/>
		</contour>
	</outline>
	<anchor name="_MarkAbove" x="180" y="801"/>
	<anchor name="_TashkilAboveDot" x="182" y="801"/>
	<anchor name="_TashkilAbove" x="182" y="801"/>
</glyph>
<glyph name="fathaHorizont-ar" format="2">
	<unicode hex="0659"/>
	<outline>
		<contour>
			<point x="132" y="837" type="line" smooth="yes"/>
			<point x="121" y="837"/>
			<point x="113" y="840"/>
			<point x="108" y="845" type="curve" smooth="yes"/>
			<point x="103" y="850"/>
			<point x="106" y="858"/>
			<point x="116" y="868" type="curve" smooth="yes"/>
			<point x="142" y="892" type="line"/>
			<point x="150" y="899"/>
			<point x="162" y="903"/>
			<point x="177" y="903" type="curve"/>
			<point x="411" y="903" type="line" smooth="yes"/>
			<point x="422" y="903"/>
			<point x="430" y="900"/>
			<point x="435" y="895" type="curve" smooth="yes"/>
			<point x="440" y="890"/>
			<point x="437" y="882"/>
			<point x="427" y="872" type="curve" smooth="yes"/>
			<point x="401" y="849" type="line"/>
			<point x="393" y="842"/>
			<point x="381" y="837"/>
			<point x="366" y="837" type="curve"/>
		</contour>
	</outline>
	<anchor name="_MarkAbove" x="268" y="801"/>
	<anchor name="_TashkilAbove" x="271" y="801"/>
	<anchor name="_TashkilAboveDot" x="271" y="801"/>
</glyph>
<glyph name="vabove-ar" format="2">
	<unicode hex="065A"/>
	<outline>
		<contour>
			<point x="75" y="642" type="curve" smooth="yes"/>
			<point x="94" y="615" type="line"/>
			<point x="100" y="605"/>
			<point x="100" y="596"/>
			<point x="94" y="588" type="curve"/>
			<point x="62" y="535"/>
			<point x="40" y="489"/>
			<point x="29" y="450" type="curve" smooth="yes"/>
			<point x="28" y="448"/>
			<point x="27" y="447"/>
			<point x="26" y="446" type="curve" smooth="yes"/>
			<point x="17" y="439" type="line"/>
			<point x="9" y="434"/>
			<point x="2" y="436"/>
			<point x="-5" y="444" type="curve" smooth="yes"/>
			<point x="-43" y="492"/>
			<point x="-74" y="542"/>
			<point x="-96" y="596" type="curve" smooth="yes"/>
			<point x="-103" y="613"/>
			<point x="-99" y="625"/>
			<point x="-86" y="629" type="curve" smooth="yes"/>
			<point x="-73" y="633"/>
			<point x="-63" y="627"/>
			<point x="-57" y="612" type="curve"/>
			<point x="-49" y="591"/>
			<point x="-35" y="562"/>
			<point x="-15" y="527" type="curve"/>
			<point x="-1" y="571"/>
			<point x="20" y="609"/>
			<point x="46" y="641" type="curve" smooth="yes"/>
			<point x="52" y="647"/>
			<point x="57" y="650"/>
			<point x="62" y="650" type="curve" smooth="yes"/>
			<point x="67" y="650"/>
			<point x="72" y="647"/>
		</contour>
	</outline>
	<anchor name="_TashkilAbove" x="0" y="464"/>
	<anchor name="_MarkAbove" x="0" y="410"/>
	<anchor name="TashkilTashkilAbove" x="0" y="732"/>
	<anchor name="_MarkDotAbove" x="0" y="464"/>
	<anchor name="_VAbove" x="0" y="464"/>
</glyph>
<glyph name="vinvertedabove-ar" format="2">
	<unicode hex="065B"/>
	<outline>
		<contour>
			<point x="-51" y="470" type="curve" smooth="yes"/>
			<point x="-55" y="456"/>
			<point x="-62" y="450"/>
			<point x="-74" y="450" type="curve" smooth="yes"/>
			<point x="-86" y="450"/>
			<point x="-92" y="456"/>
			<point x="-93" y="468" type="curve" smooth="yes"/>
			<point x="-93" y="472"/>
			<point x="-93" y="476"/>
			<point x="-91" y="481" type="curve" smooth="yes"/>
			<point x="-75" y="537"/>
			<point x="-51" y="592"/>
			<point x="-18" y="643" type="curve"/>
			<point x="-11" y="652"/>
			<point x="-4" y="654"/>
			<point x="4" y="649" type="curve" smooth="yes"/>
			<point x="12" y="644"/>
			<point x="16" y="642"/>
			<point x="17" y="641" type="curve" smooth="yes"/>
			<point x="33" y="603"/>
			<point x="59" y="559"/>
			<point x="96" y="510" type="curve"/>
			<point x="103" y="502"/>
			<point x="104" y="493"/>
			<point x="99" y="483" type="curve"/>
			<point x="83" y="454" type="line" smooth="yes"/>
			<point x="80" y="449"/>
			<point x="77" y="446"/>
			<point x="71" y="445" type="curve" smooth="yes"/>
			<point x="65" y="444"/>
			<point x="60" y="447"/>
			<point x="54" y="453" type="curve" smooth="yes"/>
			<point x="25" y="482"/>
			<point x="1" y="517"/>
			<point x="-18" y="559" type="curve"/>
			<point x="-34" y="522"/>
			<point x="-45" y="492"/>
		</contour>
	</outline>
	<anchor name="_TashkilAbove" x="0" y="464"/>
	<anchor name="_MarkAbove" x="0" y="410"/>
	<anchor name="TashkilTashkilAbove" x="0" y="732"/>
	<anchor name="_TashkilAboveDot" x="0" y="464"/>
	<anchor name="_VAbove" x="0" y="464"/>
</glyph>
<glyph name="dammareversed-ar" format="2">
	<unicode hex="065D"/>
	<outline>
		<contour>
			<point x="190" y="1154" type="curve"/>
			<point x="225" y="1148"/>
			<point x="252" y="1121"/>
			<point x="272" y="1073" type="curve" smooth="yes"/>
			<point x="284" y="1044"/>
			<point x="268" y="1016"/>
			<point x="222" y="990" type="curve"/>
			<point x="257" y="948"/>
			<point x="301" y="911"/>
			<point x="357" y="878" type="curve"/>
			<point x="376" y="868"/>
			<point x="382" y="856"/>
			<point x="375" y="843" type="curve" smooth="yes"/>
			<point x="368" y="830"/>
			<point x="355" y="827"/>
			<point x="338" y="836" type="curve" smooth="yes"/>
			<point x="280" y="865"/>
			<point x="229" y="910"/>
			<point x="183" y="969" type="curve"/>
			<point x="174" y="964"/>
			<point x="165" y="960"/>
			<point x="157" y="957" type="curve" smooth="yes"/>
			<point x="149" y="954"/>
			<point x="142" y="957"/>
			<point x="136" y="968" type="curve" smooth="yes"/>
			<point x="125" y="990" type="line" smooth="yes"/>
			<point x="118" y="1004"/>
			<point x="120" y="1014"/>
			<point x="134" y="1020" type="curve" smooth="yes"/>
			<point x="138" y="1022"/>
			<point x="145" y="1025"/>
			<point x="152" y="1029" type="curve"/>
			<point x="137" y="1073"/>
			<point x="137" y="1108"/>
			<point x="154" y="1134" type="curve" smooth="yes"/>
			<point x="164" y="1149"/>
			<point x="176" y="1156"/>
		</contour>
		<contour>
			<point x="195" y="1050" type="curve"/>
			<point x="215" y="1060"/>
			<point x="227" y="1069"/>
			<point x="229" y="1075" type="curve"/>
			<point x="223" y="1085"/>
			<point x="216" y="1087"/>
			<point x="208" y="1079" type="curve" smooth="yes"/>
			<point x="200" y="1071"/>
			<point x="195" y="1061"/>
		</contour>
	</outline>
	<anchor name="_MarkAbove" x="278" y="801"/>
	<anchor name="_TashkilAbove" x="278" y="801"/>
	<anchor name="_TashkilAboveDot" x="278" y="801"/>
</glyph>
<glyph name="fathatwodots-ar" format="2">
	<unicode hex="065E"/>
	<outline>
		<contour>
			<point x="146" y="1020" type="line" smooth="yes"/>
			<point x="148" y="1023"/>
			<point x="154" y="1025"/>
			<point x="161" y="1025" type="curve" smooth="yes"/>
			<point x="168" y="1025"/>
			<point x="180" y="1017"/>
			<point x="197" y="1002" type="curve"/>
			<point x="201" y="997"/>
			<point x="202" y="993"/>
			<point x="200" y="988" type="curve"/>
			<point x="176" y="951" type="line"/>
			<point x="172" y="946"/>
			<point x="168" y="945"/>
			<point x="163" y="948" type="curve" smooth="yes"/>
			<point x="152" y="955"/>
			<point x="143" y="961"/>
			<point x="134" y="965" type="curve"/>
			<point x="126" y="970"/>
			<point x="122" y="975"/>
			<point x="121" y="979" type="curve"/>
			<point x="122" y="983" type="line"/>
		</contour>
		<contour>
			<point x="325" y="916" type="line"/>
			<point x="327" y="919"/>
			<point x="329" y="920"/>
			<point x="332" y="920" type="curve" smooth="yes"/>
			<point x="335" y="920"/>
			<point x="340" y="919"/>
			<point x="349" y="916" type="curve" smooth="yes"/>
			<point x="357" y="913"/>
			<point x="363" y="910"/>
			<point x="366" y="907" type="curve" smooth="yes"/>
			<point x="369" y="904"/>
			<point x="372" y="900"/>
			<point x="376" y="896" type="curve" smooth="yes"/>
			<point x="380" y="892"/>
			<point x="380" y="888"/>
			<point x="377" y="883" type="curve" smooth="yes"/>
			<point x="354" y="846" type="line"/>
			<point x="349" y="840"/>
			<point x="341" y="840"/>
			<point x="333" y="848" type="curve" smooth="yes"/>
			<point x="325" y="855"/>
			<point x="317" y="861"/>
			<point x="310" y="863" type="curve" smooth="yes"/>
			<point x="303" y="865"/>
			<point x="298" y="869"/>
			<point x="298" y="874" type="curve"/>
			<point x="299" y="878" type="line"/>
		</contour>
		<component base="fatha-ar"/>
	</outline>
	<anchor name="_MarkAbove" x="268" y="801"/>
	<anchor name="_TashkilAbove" x="271" y="801"/>
	<anchor name="_TashkilAboveDot" x="271" y="801"/>
</glyph>
<glyph name="wavyhamzabelow-ar" format="2">
	<unicode hex="065F"/>
	<outline>
		<contour>
			<point x="-87" y="-443" type="curve"/>
			<point x="-84" y="-442"/>
			<point x="-83" y="-441"/>
			<point x="-81" y="-440" type="curve"/>
			<point x="-102" y="-428"/>
			<point x="-113" y="-414"/>
			<point x="-116" y="-398" type="curve"/>
			<point x="-121" y="-369"/>
			<point x="-109" y="-334"/>
			<point x="-80" y="-294" type="curve" smooth="yes"/>
			<point x="-51" y="-254"/>
			<point x="-19" y="-235"/>
			<point x="15" y="-238" type="curve" smooth="yes"/>
			<point x="40" y="-240"/>
			<point x="51" y="-253"/>
			<point x="49" y="-277" type="curve" smooth="yes"/>
			<point x="47" y="-301"/>
			<point x="41" y="-318"/>
			<point x="34" y="-328" type="curve" smooth="yes"/>
			<point x="27" y="-338"/>
			<point x="22" y="-345"/>
			<point x="19" y="-347" type="curve" smooth="yes"/>
			<point x="9" y="-354"/>
			<point x="1" y="-352"/>
			<point x="-6" y="-342" type="curve" smooth="yes"/>
			<point x="-13" y="-332"/>
			<point x="-21" y="-326"/>
			<point x="-32" y="-325" type="curve" smooth="yes"/>
			<point x="-43" y="-324"/>
			<point x="-51" y="-327"/>
			<point x="-56" y="-333" type="curve" smooth="yes"/>
			<point x="-61" y="-339"/>
			<point x="-61" y="-344"/>
			<point x="-56" y="-349" type="curve" smooth="yes"/>
			<point x="-35" y="-369"/>
			<point x="-3" y="-379"/>
			<point x="37" y="-380" type="curve" smooth="yes"/>
			<point x="44" y="-380"/>
			<point x="53" y="-378"/>
			<point x="67" y="-375" type="curve" smooth="yes"/>
			<point x="81" y="-372"/>
			<point x="90" y="-371"/>
			<point x="97" y="-371" type="curve" smooth="yes"/>
			<point x="104" y="-371"/>
			<point x="110" y="-375"/>
			<point x="114" y="-381" type="curve"/>
			<point x="118" y="-388"/>
			<point x="118" y="-393"/>
			<point x="116" y="-399" type="curve" smooth="yes"/>
			<point x="103" y="-428"/>
			<point x="89" y="-444"/>
			<point x="75" y="-447" type="curve"/>
			<point x="25" y="-458"/>
			<point x="-28" y="-475"/>
			<point x="-84" y="-499" type="curve" smooth="yes"/>
			<point x="-103" y="-507"/>
			<point x="-131" y="-503"/>
			<point x="-167" y="-488" type="curve" smooth="yes"/>
			<point x="-181" y="-482"/>
			<point x="-195" y="-484"/>
			<point x="-205" y="-491" type="curve" smooth="yes"/>
			<point x="-215" y="-498"/>
			<point x="-227" y="-511"/>
			<point x="-240" y="-530" type="curve" smooth="yes"/>
			<point x="-245" y="-537"/>
			<point x="-251" y="-538"/>
			<point x="-257" y="-531" type="curve" smooth="yes"/>
			<point x="-263" y="-524"/>
			<point x="-264" y="-519"/>
			<point x="-261" y="-513" type="curve" smooth="yes"/>
			<point x="-237" y="-472"/>
			<point x="-217" y="-446"/>
			<point x="-199" y="-434" type="curve" smooth="yes"/>
			<point x="-181" y="-422"/>
			<point x="-164" y="-420"/>
			<point x="-146" y="-427" type="curve" smooth="yes"/>
			<point x="-116" y="-439"/>
			<point x="-95" y="-444"/>
		</contour>
	</outline>
	<anchor name="_TashkilBelow" x="0" y="-244"/>
	<anchor name="_MarkBelow" x="0" y="-225"/>
	<anchor name="TashkilTashkilBelow" x="0" y="-547"/>
	<anchor name="_HamzaBelow" x="0" y="-244"/>
</glyph>
<glyph name="zero-ar" format="2">
	<unicode hex="0660"/>
	<advance width="585"/>
	<outline>
		<contour>
			<point x="237" y="317" type="line" smooth="yes"/>
			<point x="246" y="342"/>
			<point x="264" y="347"/>
			<point x="289" y="331" type="curve" smooth="yes"/>
			<point x="372" y="277" type="line" smooth="yes"/>
			<point x="390" y="265"/>
			<point x="395" y="248"/>
			<point x="388" y="226" type="curve" smooth="yes"/>
			<point x="356" y="128" type="line" smooth="yes"/>
			<point x="347" y="100"/>
			<point x="329" y="94"/>
			<point x="301" y="110" type="curve" smooth="yes"/>
			<point x="210" y="164" type="line" smooth="yes"/>
			<point x="195" y="173"/>
			<point x="191" y="188"/>
			<point x="199" y="210" type="curve" smooth="yes"/>
		</contour>
	</outline>
</glyph>
<glyph name="one-ar" format="2">
	<unicode hex="0661"/>
	<advance width="585"/>
	<outline>
		<contour>
			<point x="232" y="529" type="line" smooth="yes"/>
			<point x="251" y="584"/>
			<point x="273" y="579"/>
			<point x="299" y="512" type="curve" smooth="yes"/>
			<point x="339" y="411"/>
			<point x="367" y="302"/>
			<point x="380" y="185" type="curve" smooth="yes"/>
			<point x="393" y="68"/>
			<point x="388" y="-21"/>
			<point x="363" y="-84" type="curve" smooth="yes"/>
			<point x="356" y="-103"/>
			<point x="345" y="-111"/>
			<point x="334" y="-107" type="curve" smooth="yes"/>
			<point x="323" y="-103"/>
			<point x="317" y="-92"/>
			<point x="317" y="-72" type="curve" smooth="yes"/>
			<point x="318" y="90"/>
			<point x="282" y="236"/>
			<point x="208" y="366" type="curve" smooth="yes"/>
			<point x="195" y="389"/>
			<point x="191" y="410"/>
			<point x="198" y="429" type="curve" smooth="yes"/>
		</contour>
	</outline>
</glyph>
<glyph name="two-ar" format="2">
	<unicode hex="0662"/>
	<advance width="585"/>
	<outline>
		<contour>
			<point x="123" y="524" type="line" smooth="yes"/>
			<point x="136" y="579"/>
			<point x="157" y="578"/>
			<point x="188" y="520" type="curve" smooth="yes"/>
			<point x="219" y="462"/>
			<point x="259" y="433"/>
			<point x="308" y="433" type="curve" smooth="yes"/>
			<point x="377" y="433"/>
			<point x="418" y="464"/>
			<point x="433" y="525" type="curve" smooth="yes"/>
			<point x="438" y="545"/>
			<point x="446" y="554"/>
			<point x="460" y="553" type="curve" smooth="yes"/>
			<point x="473" y="552"/>
			<point x="480" y="543"/>
			<point x="481" y="526" type="curve" smooth="yes"/>
			<point x="482" y="509"/>
			<point x="479" y="482"/>
			<point x="473" y="446" type="curve" smooth="yes"/>
			<point x="467" y="410"/>
			<point x="455" y="379"/>
			<point x="437" y="354" type="curve" smooth="yes"/>
			<point x="403" y="305"/>
			<point x="350" y="284"/>
			<point x="278" y="291" type="curve"/>
			<point x="313" y="141"/>
			<point x="321" y="17"/>
			<point x="300" y="-80" type="curve" smooth="yes"/>
			<point x="297" y="-92"/>
			<point x="292" y="-100"/>
			<point x="285" y="-104" type="curve" smooth="yes"/>
			<point x="278" y="-108"/>
			<point x="271" y="-107"/>
			<point x="264" y="-101" type="curve" smooth="yes"/>
			<point x="257" y="-95"/>
			<point x="254" y="-87"/>
			<point x="253" y="-74" type="curve" smooth="yes"/>
			<point x="242" y="97"/>
			<point x="196" y="243"/>
			<point x="113" y="364" type="curve"/>
			<point x="99" y="386"/>
			<point x="94" y="406"/>
			<point x="98" y="423" type="curve" smooth="yes"/>
		</contour>
	</outline>
</glyph>
<glyph name="three-ar" format="2">
	<unicode hex="0663"/>
	<advance width="585"/>
	<outline>
		<contour>
			<point x="502" y="561" type="curve"/>
			<point x="521" y="561"/>
			<point x="529" y="547"/>
			<point x="528" y="519" type="curve" smooth="yes"/>
			<point x="526" y="469"/>
			<point x="517" y="419"/>
			<point x="502" y="372" type="curve" smooth="yes"/>
			<point x="487" y="325"/>
			<point x="462" y="300"/>
			<point x="426" y="296" type="curve" smooth="yes"/>
			<point x="394" y="293"/>
			<point x="360" y="302"/>
			<point x="326" y="323" type="curve"/>
			<point x="299" y="297"/>
			<point x="269" y="283"/>
			<point x="236" y="280" type="curve"/>
			<point x="272" y="120"/>
			<point x="279" y="-1"/>
			<point x="258" y="-81" type="curve" smooth="yes"/>
			<point x="255" y="-92"/>
			<point x="250" y="-98"/>
			<point x="243" y="-101" type="curve" smooth="yes"/>
			<point x="224" y="-108"/>
			<point x="213" y="-98"/>
			<point x="211" y="-73" type="curve" smooth="yes"/>
			<point x="201" y="93"/>
			<point x="155" y="238"/>
			<point x="72" y="362" type="curve" smooth="yes"/>
			<point x="56" y="386"/>
			<point x="50" y="406"/>
			<point x="54" y="423" type="curve" smooth="yes"/>
			<point x="79" y="525" type="line" smooth="yes"/>
			<point x="90" y="569"/>
			<point x="110" y="569"/>
			<point x="140" y="526" type="curve"/>
			<point x="177" y="472"/>
			<point x="199" y="443"/>
			<point x="206" y="438" type="curve" smooth="yes"/>
			<point x="219" y="429"/>
			<point x="240" y="426"/>
			<point x="268" y="428" type="curve" smooth="yes"/>
			<point x="307" y="431"/>
			<point x="332" y="463"/>
			<point x="343" y="525" type="curve" smooth="yes"/>
			<point x="346" y="544"/>
			<point x="355" y="553"/>
			<point x="370" y="551" type="curve" smooth="yes"/>
			<point x="380" y="550"/>
			<point x="386" y="543"/>
			<point x="389" y="532" type="curve" smooth="yes"/>
			<point x="392" y="521"/>
			<point x="390" y="502"/>
			<point x="385" y="474" type="curve" smooth="yes"/>
			<point x="383" y="462"/>
			<point x="392" y="451"/>
			<point x="411" y="443" type="curve" smooth="yes"/>
			<point x="420" y="439"/>
			<point x="427" y="437"/>
			<point x="433" y="437" type="curve" smooth="yes"/>
			<point x="459" y="436"/>
			<point x="473" y="467"/>
			<point x="477" y="532" type="curve" smooth="yes"/>
			<point x="478" y="551"/>
			<point x="486" y="561"/>
		</contour>
	</outline>
</glyph>
<glyph name="four-ar" format="2">
	<unicode hex="0664"/>
	<advance width="585"/>
	<outline>
		<contour>
			<point x="289" y="552" type="curve" smooth="yes"/>
			<point x="306" y="568"/>
			<point x="321" y="567"/>
			<point x="335" y="550" type="curve" smooth="yes"/>
			<point x="342" y="542"/>
			<point x="344" y="533"/>
			<point x="342" y="523" type="curve" smooth="yes"/>
			<point x="324" y="446" type="line"/>
			<point x="321" y="436"/>
			<point x="313" y="428"/>
			<point x="300" y="423" type="curve"/>
			<point x="258" y="411"/>
			<point x="235" y="400"/>
			<point x="229" y="388" type="curve" smooth="yes"/>
			<point x="228" y="385"/>
			<point x="229" y="382"/>
			<point x="234" y="379" type="curve" smooth="yes"/>
			<point x="276" y="352"/>
			<point x="320" y="333"/>
			<point x="365" y="321" type="curve" smooth="yes"/>
			<point x="392" y="314"/>
			<point x="401" y="300"/>
			<point x="392" y="279" type="curve" smooth="yes"/>
			<point x="369" y="226" type="line" smooth="yes"/>
			<point x="363" y="213"/>
			<point x="350" y="200"/>
			<point x="329" y="186" type="curve" smooth="yes"/>
			<point x="289" y="159"/>
			<point x="260" y="134"/>
			<point x="241" y="111" type="curve" smooth="yes"/>
			<point x="236" y="104"/>
			<point x="239" y="98"/>
			<point x="249" y="91" type="curve" smooth="yes"/>
			<point x="308" y="56"/>
			<point x="369" y="34"/>
			<point x="430" y="26" type="curve" smooth="yes"/>
			<point x="451" y="23"/>
			<point x="457" y="11"/>
			<point x="448" y="-11" type="curve" smooth="yes"/>
			<point x="417" y="-90" type="line" smooth="yes"/>
			<point x="410" y="-107"/>
			<point x="397" y="-114"/>
			<point x="378" y="-112" type="curve" smooth="yes"/>
			<point x="299" y="-103"/>
			<point x="230" y="-78"/>
			<point x="172" y="-38" type="curve"/>
			<point x="153" y="-24"/>
			<point x="149" y="-1"/>
			<point x="157" y="30" type="curve" smooth="yes"/>
			<point x="180" y="115" type="line"/>
			<point x="187" y="139"/>
			<point x="212" y="171"/>
			<point x="255" y="211" type="curve"/>
			<point x="225" y="224"/>
			<point x="197" y="240"/>
			<point x="169" y="259" type="curve" smooth="yes"/>
			<point x="141" y="278"/>
			<point x="136" y="308"/>
			<point x="155" y="348" type="curve" smooth="yes"/>
			<point x="187" y="416" type="line" smooth="yes"/>
			<point x="210" y="465"/>
			<point x="244" y="509"/>
		</contour>
	</outline>
</glyph>
<glyph name="five-ar" format="2">
	<unicode hex="0665"/>
	<advance width="585"/>
	<outline>
		<contour>
			<point x="391" y="219" type="curve" smooth="yes"/>
			<point x="342" y="274"/>
			<point x="293" y="299"/>
			<point x="242" y="295" type="curve"/>
			<point x="211" y="293"/>
			<point x="193" y="270"/>
			<point x="188" y="223" type="curve"/>
			<point x="184" y="193"/>
			<point x="189" y="170"/>
			<point x="203" y="154" type="curve"/>
			<point x="224" y="129"/>
			<point x="261" y="121"/>
			<point x="311" y="133" type="curve"/>
			<point x="347" y="141"/>
			<point x="375" y="155"/>
			<point x="396" y="175" type="curve"/>
			<point x="409" y="186"/>
			<point x="407" y="200"/>
		</contour>
		<contour>
			<point x="225" y="419" type="curve" smooth="yes"/>
			<point x="249" y="446"/>
			<point x="275" y="455"/>
			<point x="305" y="448" type="curve" smooth="yes"/>
			<point x="352" y="436"/>
			<point x="393" y="412"/>
			<point x="427" y="377" type="curve" smooth="yes"/>
			<point x="476" y="325"/>
			<point x="490" y="247"/>
			<point x="468" y="143" type="curve" smooth="yes"/>
			<point x="457" y="89"/>
			<point x="433" y="47"/>
			<point x="399" y="17" type="curve"/>
			<point x="364" y="-10"/>
			<point x="319" y="-23"/>
			<point x="265" y="-23" type="curve" smooth="yes"/>
			<point x="211" y="-23"/>
			<point x="172" y="-11"/>
			<point x="147" y="12" type="curve" smooth="yes"/>
			<point x="122" y="35"/>
			<point x="109" y="76"/>
			<point x="109" y="133" type="curve"/>
			<point x="108" y="235"/>
			<point x="147" y="330"/>
		</contour>
	</outline>
</glyph>
<glyph name="six-ar" format="2">
	<unicode hex="0666"/>
	<advance width="585"/>
	<outline>
		<contour>
			<point x="98" y="530" type="line" smooth="yes"/>
			<point x="107" y="577"/>
			<point x="127" y="577"/>
			<point x="160" y="529" type="curve" smooth="yes"/>
			<point x="193" y="481"/>
			<point x="258" y="470"/>
			<point x="357" y="498" type="curve" smooth="yes"/>
			<point x="388" y="507"/>
			<point x="403" y="497"/>
			<point x="400" y="467" type="curve" smooth="yes"/>
			<point x="389" y="340"/>
			<point x="420" y="214"/>
			<point x="493" y="89" type="curve"/>
			<point x="504" y="68"/>
			<point x="507" y="48"/>
			<point x="504" y="28" type="curve" smooth="yes"/>
			<point x="487" y="-68" type="line" smooth="yes"/>
			<point x="478" y="-119"/>
			<point x="458" y="-122"/>
			<point x="428" y="-78" type="curve"/>
			<point x="363" y="54"/>
			<point x="332" y="196"/>
			<point x="337" y="348" type="curve"/>
			<point x="226" y="324"/>
			<point x="145" y="340"/>
			<point x="95" y="398" type="curve" smooth="yes"/>
			<point x="82" y="412"/>
			<point x="78" y="428"/>
			<point x="82" y="446" type="curve" smooth="yes"/>
		</contour>
	</outline>
</glyph>
<glyph name="seven-ar" format="2">
	<unicode hex="0667"/>
	<advance width="585"/>
	<outline>
		<contour>
			<point x="318" y="-81" type="curve" smooth="yes"/>
			<point x="315" y="-93"/>
			<point x="310" y="-101"/>
			<point x="303" y="-105" type="curve" smooth="yes"/>
			<point x="296" y="-109"/>
			<point x="290" y="-108"/>
			<point x="284" y="-102" type="curve" smooth="yes"/>
			<point x="278" y="-96"/>
			<point x="276" y="-88"/>
			<point x="275" y="-77" type="curve" smooth="yes"/>
			<point x="274" y="-46"/>
			<point x="253" y="20"/>
			<point x="213" y="122" type="curve" smooth="yes"/>
			<point x="194" y="171"/>
			<point x="145" y="263"/>
			<point x="68" y="397" type="curve" smooth="yes"/>
			<point x="63" y="405"/>
			<point x="62" y="417"/>
			<point x="64" y="431" type="curve" smooth="yes"/>
			<point x="81" y="532" type="line" smooth="yes"/>
			<point x="84" y="548"/>
			<point x="89" y="557"/>
			<point x="99" y="561" type="curve" smooth="yes"/>
			<point x="109" y="565"/>
			<point x="118" y="558"/>
			<point x="128" y="541" type="curve" smooth="yes"/>
			<point x="199" y="418"/>
			<point x="260" y="274"/>
			<point x="311" y="111" type="curve"/>
			<point x="343" y="258"/>
			<point x="394" y="394"/>
			<point x="466" y="518" type="curve" smooth="yes"/>
			<point x="474" y="533"/>
			<point x="484" y="540"/>
			<point x="494" y="541" type="curve" smooth="yes"/>
			<point x="508" y="543"/>
			<point x="515" y="534"/>
			<point x="517" y="515" type="curve" smooth="yes"/>
			<point x="523" y="418" type="line" smooth="yes"/>
			<point x="524" y="408"/>
			<point x="520" y="396"/>
			<point x="512" y="381" type="curve"/>
			<point x="430" y="265"/>
			<point x="366" y="111"/>
		</contour>
	</outline>
</glyph>
<glyph name="eight-ar" format="2">
	<unicode hex="0668"/>
	<advance width="585"/>
	<outline>
		<contour>
			<point x="268" y="536" type="curve" smooth="yes"/>
			<point x="271" y="548"/>
			<point x="276" y="556"/>
			<point x="283" y="560" type="curve" smooth="yes"/>
			<point x="290" y="564"/>
			<point x="296" y="564"/>
			<point x="302" y="558" type="curve" smooth="yes"/>
			<point x="308" y="552"/>
			<point x="310" y="544"/>
			<point x="311" y="533" type="curve" smooth="yes"/>
			<point x="312" y="502"/>
			<point x="333" y="435"/>
			<point x="373" y="333" type="curve" smooth="yes"/>
			<point x="392" y="284"/>
			<point x="441" y="192"/>
			<point x="518" y="58" type="curve" smooth="yes"/>
			<point x="523" y="50"/>
			<point x="523" y="38"/>
			<point x="521" y="24" type="curve" smooth="yes"/>
			<point x="505" y="-76" type="line" smooth="yes"/>
			<point x="502" y="-92"/>
			<point x="497" y="-101"/>
			<point x="487" y="-105" type="curve" smooth="yes"/>
			<point x="477" y="-109"/>
			<point x="468" y="-102"/>
			<point x="458" y="-85" type="curve" smooth="yes"/>
			<point x="387" y="38"/>
			<point x="326" y="182"/>
			<point x="275" y="345" type="curve"/>
			<point x="243" y="198"/>
			<point x="192" y="62"/>
			<point x="120" y="-62" type="curve" smooth="yes"/>
			<point x="112" y="-77"/>
			<point x="102" y="-84"/>
			<point x="92" y="-85" type="curve" smooth="yes"/>
			<point x="78" y="-87"/>
			<point x="71" y="-79"/>
			<point x="69" y="-60" type="curve" smooth="yes"/>
			<point x="63" y="37" type="line" smooth="yes"/>
			<point x="62" y="47"/>
			<point x="66" y="59"/>
			<point x="74" y="74" type="curve"/>
			<point x="156" y="190"/>
			<point x="220" y="344"/>
		</contour>
	</outline>
</glyph>
<glyph name="nine-ar" format="2">
	<unicode hex="0669"/>
	<advance width="585"/>
	<outline>
		<contour>
			<point x="322" y="348" type="curve" smooth="yes"/>
			<point x="311" y="383"/>
			<point x="290" y="405"/>
			<point x="260" y="414" type="curve"/>
			<point x="224" y="424"/>
			<point x="200" y="409"/>
			<point x="188" y="370" type="curve" smooth="yes"/>
			<point x="181" y="349"/>
			<point x="186" y="333"/>
			<point x="202" y="323" type="curve" smooth="yes"/>
			<point x="224" y="309"/>
			<point x="260" y="303"/>
			<point x="310" y="306" type="curve" smooth="yes"/>
			<point x="326" y="307"/>
			<point x="330" y="321"/>
		</contour>
		<contour>
			<point x="339" y="178" type="curve"/>
			<point x="190" y="167"/>
			<point x="113" y="209"/>
			<point x="108" y="301" type="curve"/>
			<point x="106" y="353"/>
			<point x="140" y="424"/>
			<point x="213" y="514" type="curve"/>
			<point x="255" y="568"/>
			<point x="296" y="576"/>
			<point x="336" y="540" type="curve" smooth="yes"/>
			<point x="381" y="499"/>
			<point x="405" y="420"/>
			<point x="409" y="302" type="curve" smooth="yes"/>
			<point x="411" y="226"/>
			<point x="429" y="156"/>
			<point x="464" y="91" type="curve" smooth="yes"/>
			<point x="475" y="70"/>
			<point x="480" y="51"/>
			<point x="477" y="33" type="curve" smooth="yes"/>
			<point x="459" y="-73" type="line" smooth="yes"/>
			<point x="456" y="-88"/>
			<point x="454" y="-97"/>
			<point x="450" y="-100" type="curve" smooth="yes"/>
			<point x="432" y="-118"/>
			<point x="416" y="-109"/>
			<point x="402" y="-75" type="curve" smooth="yes"/>
			<point x="401" y="-73"/>
			<point x="400" y="-72"/>
			<point x="400" y="-72" type="curve" smooth="yes"/>
			<point x="367" y="16"/>
			<point x="347" y="99"/>
		</contour>
	</outline>
</glyph>
<glyph name="decimalseparator-ar" format="2">
	<unicode hex="066B"/>
	<advance width="299"/>
	<outline>
		<contour>
			<point x="131" y="149" type="line"/>
			<point x="139" y="186"/>
			<point x="164" y="193"/>
			<point x="205" y="170" type="curve" smooth="yes"/>
			<point x="254" y="142"/>
			<point x="273" y="93"/>
			<point x="263" y="23" type="curve" smooth="yes"/>
			<point x="253" y="-47"/>
			<point x="229" y="-106"/>
			<point x="191" y="-155" type="curve" smooth="yes"/>
			<point x="153" y="-204"/>
			<point x="111" y="-229"/>
			<point x="64" y="-231" type="curve" smooth="yes"/>
			<point x="44" y="-232"/>
			<point x="32" y="-232"/>
			<point x="27" y="-229" type="curve" smooth="yes"/>
			<point x="22" y="-226"/>
			<point x="18" y="-223"/>
			<point x="16" y="-220" type="curve" smooth="yes"/>
			<point x="7" y="-207"/>
			<point x="13" y="-193"/>
			<point x="35" y="-177" type="curve" smooth="yes"/>
			<point x="121" y="-115"/>
			<point x="176" y="-44"/>
			<point x="201" y="37" type="curve"/>
			<point x="199" y="38"/>
			<point x="197" y="39"/>
			<point x="195" y="39" type="curve" smooth="yes"/>
			<point x="148" y="49" type="line" smooth="yes"/>
			<point x="132" y="52"/>
			<point x="124" y="61"/>
			<point x="120" y="75" type="curve" smooth="yes"/>
			<point x="119" y="81"/>
			<point x="118" y="87"/>
			<point x="119" y="93" type="curve" smooth="yes"/>
		</contour>
	</outline>
</glyph>
<glyph name="thousandseparator-ar" format="2">
	<unicode hex="066C"/>
	<advance width="299"/>
	<outline>
		<contour>
			<point x="169" y="211" type="line"/>
			<point x="161" y="174"/>
			<point x="136" y="167"/>
			<point x="95" y="190" type="curve" smooth="yes"/>
			<point x="46" y="218"/>
			<point x="27" y="267"/>
			<point x="37" y="337" type="curve" smooth="yes"/>
			<point x="47" y="407"/>
			<point x="71" y="466"/>
			<point x="109" y="515" type="curve" smooth="yes"/>
			<point x="147" y="564"/>
			<point x="189" y="590"/>
			<point x="236" y="592" type="curve" smooth="yes"/>
			<point x="256" y="593"/>
			<point x="268" y="592"/>
			<point x="273" y="589" type="curve" smooth="yes"/>
			<point x="278" y="586"/>
			<point x="282" y="584"/>
			<point x="284" y="581" type="curve" smooth="yes"/>
			<point x="293" y="568"/>
			<point x="286" y="553"/>
			<point x="264" y="537" type="curve" smooth="yes"/>
			<point x="177" y="474"/>
			<point x="123" y="403"/>
			<point x="99" y="323" type="curve"/>
			<point x="101" y="322"/>
			<point x="103" y="321"/>
			<point x="105" y="321" type="curve" smooth="yes"/>
			<point x="151" y="312" type="line" smooth="yes"/>
			<point x="167" y="309"/>
			<point x="176" y="299"/>
			<point x="180" y="285" type="curve" smooth="yes"/>
			<point x="181" y="279"/>
			<point x="181" y="273"/>
			<point x="180" y="267" type="curve" smooth="yes"/>
		</contour>
	</outline>
</glyph>
<glyph name="asterisk-ar" format="2">
	<unicode hex="066D"/>
	<advance width="544"/>
	<outline>
		<contour>
			<point x="-2" y="385" type="line"/>
			<point x="207" y="385" type="line"/>
			<point x="272" y="584" type="line"/>
			<point x="338" y="385" type="line"/>
			<point x="547" y="385" type="line"/>
			<point x="378" y="262" type="line"/>
			<point x="443" y="62" type="line"/>
			<point x="272" y="186" type="line"/>
			<point x="102" y="62" type="line"/>
			<point x="167" y="262" type="line"/>
		</contour>
	</outline>
</glyph>
<glyph name="alefabove-ar" format="2">
	<unicode hex="0670"/>
	<outline>
		<contour>
			<point x="111" y="1164" type="line"/>
			<point x="118" y="1182"/>
			<point x="128" y="1183"/>
			<point x="142" y="1166" type="curve"/>
			<point x="207" y="1094"/>
			<point x="228" y="1002"/>
			<point x="208" y="892" type="curve"/>
			<point x="206" y="882"/>
			<point x="202" y="877"/>
			<point x="195" y="876" type="curve" smooth="yes"/>
			<point x="182" y="874"/>
			<point x="175" y="880"/>
			<point x="174" y="892" type="curve" smooth="yes"/>
			<point x="165" y="960"/>
			<point x="140" y="1020"/>
			<point x="98" y="1071" type="curve" smooth="yes"/>
			<point x="91" y="1080"/>
			<point x="89" y="1090"/>
			<point x="92" y="1100" type="curve" smooth="yes"/>
		</contour>
	</outline>
	<anchor name="_TashkilAbove" x="193" y="801"/>
	<anchor name="_MarkAbove" x="190" y="801"/>
	<anchor name="TashkilTashkilAbove2" x="120" y="1230"/>
	<anchor name="_HamzaAbove" x="153" y="969"/>
	<anchor name="_TashkilTashkilAbove" x="195" y="867"/>
	<anchor name="_AlefAbove" x="193" y="801"/>
</glyph>
<glyph name="fullstop-ar" format="2">
	<unicode hex="06D4"/>
	<advance width="491"/>
	<outline>
		<contour>
			<point x="408" y="105" type="line"/>
			<point x="416" y="104"/>
			<point x="423" y="103"/>
			<point x="427" y="99" type="curve" smooth="yes"/>
			<point x="436" y="90"/>
			<point x="436" y="79"/>
			<point x="425" y="67" type="curve" smooth="yes"/>
			<point x="367" y="4" type="line"/>
			<point x="355" y="-8"/>
			<point x="337" y="-15"/>
			<point x="316" y="-15" type="curve"/>
			<point x="84" y="-15" type="line"/>
			<point x="76" y="-14"/>
			<point x="69" y="-12"/>
			<point x="65" y="-8" type="curve" smooth="yes"/>
			<point x="56" y="1"/>
			<point x="56" y="11"/>
			<point x="67" y="23" type="curve" smooth="yes"/>
			<point x="125" y="86" type="line"/>
			<point x="137" y="98"/>
			<point x="155" y="105"/>
			<point x="176" y="105" type="curve"/>
		</contour>
	</outline>
</glyph>
<glyph name="sadLamAlefMaksuraabove-ar" format="2">
	<unicode hex="06D6"/>
	<outline>
		<contour>
			<point x="96" y="1527" type="curve" smooth="yes"/>
			<point x="95" y="1546"/>
			<point x="95" y="1567"/>
			<point x="93" y="1589" type="curve" smooth="yes"/>
			<point x="88" y="1663"/>
			<point x="87" y="1703"/>
			<point x="92" y="1710" type="curve" smooth="yes"/>
			<point x="104" y="1728" type="line" smooth="yes"/>
			<point x="111" y="1738"/>
			<point x="117" y="1743"/>
			<point x="123" y="1744" type="curve" smooth="yes"/>
			<point x="132" y="1745"/>
			<point x="136" y="1737"/>
			<point x="137" y="1721" type="curve" smooth="yes"/>
			<point x="137" y="1720"/>
			<point x="137" y="1720"/>
			<point x="137" y="1720" type="curve" smooth="yes"/>
			<point x="142" y="1605"/>
			<point x="148" y="1539"/>
			<point x="155" y="1524" type="curve" smooth="yes"/>
			<point x="162" y="1509"/>
			<point x="172" y="1502"/>
			<point x="185" y="1503" type="curve" smooth="yes"/>
			<point x="198" y="1504"/>
			<point x="213" y="1515"/>
			<point x="232" y="1536" type="curve" smooth="yes"/>
			<point x="241" y="1546"/>
			<point x="250" y="1549"/>
			<point x="258" y="1544" type="curve" smooth="yes"/>
			<point x="276" y="1533"/>
			<point x="289" y="1526"/>
			<point x="297" y="1522" type="curve"/>
			<point x="303" y="1527"/>
			<point x="315" y="1537"/>
			<point x="332" y="1553" type="curve"/>
			<point x="374" y="1590"/>
			<point x="409" y="1610"/>
			<point x="441" y="1613" type="curve"/>
			<point x="462" y="1615"/>
			<point x="478" y="1608"/>
			<point x="489" y="1591" type="curve"/>
			<point x="499" y="1574"/>
			<point x="498" y="1551"/>
			<point x="485" y="1521" type="curve"/>
			<point x="465" y="1478"/>
			<point x="434" y="1452"/>
			<point x="392" y="1445" type="curve"/>
			<point x="342" y="1439"/>
			<point x="292" y="1449"/>
			<point x="241" y="1474" type="curve"/>
			<point x="229" y="1460"/>
			<point x="221" y="1452"/>
			<point x="217" y="1449" type="curve" smooth="yes"/>
			<point x="192" y="1427"/>
			<point x="168" y="1425"/>
			<point x="143" y="1446" type="curve"/>
			<point x="133" y="1455"/>
			<point x="125" y="1466"/>
			<point x="119" y="1480" type="curve"/>
			<point x="113" y="1461"/>
			<point x="106" y="1444"/>
			<point x="96" y="1429" type="curve" smooth="yes"/>
			<point x="86" y="1414"/>
			<point x="70" y="1398"/>
			<point x="49" y="1383" type="curve"/>
			<point x="134" y="1373"/>
			<point x="232" y="1372"/>
			<point x="342" y="1381" type="curve"/>
			<point x="359" y="1383"/>
			<point x="404" y="1388"/>
			<point x="479" y="1395" type="curve" smooth="yes"/>
			<point x="485" y="1395"/>
			<point x="490" y="1393"/>
			<point x="495" y="1390" type="curve" smooth="yes"/>
			<point x="500" y="1387"/>
			<point x="499" y="1381"/>
			<point x="493" y="1371" type="curve" smooth="yes"/>
			<point x="471" y="1337" type="line" smooth="yes"/>
			<point x="466" y="1329"/>
			<point x="460" y="1325"/>
			<point x="453" y="1324" type="curve" smooth="yes"/>
			<point x="414" y="1318"/>
			<point x="344" y="1313"/>
			<point x="246" y="1310" type="curve" smooth="yes"/>
			<point x="148" y="1307"/>
			<point x="74" y="1308"/>
			<point x="26" y="1315" type="curve"/>
			<point x="7" y="1318"/>
			<point x="-3" y="1328"/>
			<point x="-6" y="1343" type="curve"/>
			<point x="-9" y="1363"/>
			<point x="-5" y="1383"/>
			<point x="7" y="1402" type="curve" smooth="yes"/>
			<point x="19" y="1421"/>
			<point x="31" y="1435"/>
			<point x="44" y="1445" type="curve" smooth="yes"/>
			<point x="79" y="1471"/>
			<point x="97" y="1498"/>
		</contour>
		<contour>
			<point x="436" y="1539" type="curve"/>
			<point x="416" y="1560"/>
			<point x="381" y="1551"/>
			<point x="333" y="1514" type="curve"/>
			<point x="366" y="1509"/>
			<point x="401" y="1509"/>
			<point x="439" y="1515" type="curve"/>
			<point x="441" y="1526"/>
			<point x="440" y="1534"/>
		</contour>
	</outline>
	<anchor name="_MarkAbove" x="244" y="1270"/>
</glyph>
<glyph name="qafLamAlefMaksuraabove-ar" format="2">
	<unicode hex="06D7"/>
	<outline>
		<contour>
			<point x="292" y="1537" type="curve"/>
			<point x="291" y="1544"/>
			<point x="290" y="1549"/>
			<point x="288" y="1552" type="curve"/>
			<point x="277" y="1531"/>
			<point x="262" y="1520"/>
			<point x="242" y="1519" type="curve" smooth="yes"/>
			<point x="208" y="1518"/>
			<point x="190" y="1538"/>
			<point x="188" y="1579" type="curve"/>
			<point x="188" y="1600"/>
			<point x="193" y="1618"/>
			<point x="204" y="1636" type="curve" smooth="yes"/>
			<point x="215" y="1654"/>
			<point x="222" y="1666"/>
			<point x="229" y="1671" type="curve" smooth="yes"/>
			<point x="251" y="1689"/>
			<point x="275" y="1683"/>
			<point x="298" y="1654" type="curve" smooth="yes"/>
			<point x="321" y="1625"/>
			<point x="333" y="1592"/>
			<point x="332" y="1554" type="curve"/>
			<point x="331" y="1532"/>
			<point x="324" y="1512"/>
			<point x="312" y="1492" type="curve" smooth="yes"/>
			<point x="287" y="1451"/>
			<point x="252" y="1431"/>
			<point x="208" y="1431" type="curve" smooth="yes"/>
			<point x="164" y="1431"/>
			<point x="135" y="1448"/>
			<point x="120" y="1481" type="curve"/>
			<point x="114" y="1462"/>
			<point x="106" y="1445"/>
			<point x="96" y="1429" type="curve" smooth="yes"/>
			<point x="86" y="1413"/>
			<point x="70" y="1398"/>
			<point x="49" y="1383" type="curve"/>
			<point x="77" y="1380"/>
			<point x="119" y="1377"/>
			<point x="177" y="1376" type="curve" smooth="yes"/>
			<point x="235" y="1375"/>
			<point x="291" y="1376"/>
			<point x="344" y="1382" type="curve" smooth="yes"/>
			<point x="439" y="1391"/>
			<point x="488" y="1395"/>
			<point x="492" y="1392" type="curve"/>
			<point x="499" y="1387"/>
			<point x="499" y="1381"/>
			<point x="493" y="1371" type="curve" smooth="yes"/>
			<point x="471" y="1337" type="line" smooth="yes"/>
			<point x="466" y="1329"/>
			<point x="460" y="1325"/>
			<point x="453" y="1324" type="curve" smooth="yes"/>
			<point x="414" y="1318"/>
			<point x="344" y="1313"/>
			<point x="246" y="1310" type="curve" smooth="yes"/>
			<point x="148" y="1307"/>
			<point x="74" y="1308"/>
			<point x="26" y="1315" type="curve"/>
			<point x="7" y="1318"/>
			<point x="-3" y="1328"/>
			<point x="-6" y="1343" type="curve"/>
			<point x="-9" y="1363"/>
			<point x="-5" y="1383"/>
			<point x="7" y="1402" type="curve" smooth="yes"/>
			<point x="19" y="1421"/>
			<point x="31" y="1435"/>
			<point x="44" y="1445" type="curve" smooth="yes"/>
			<point x="79" y="1470"/>
			<point x="97" y="1498"/>
			<point x="96" y="1527" type="curve" smooth="yes"/>
			<point x="95" y="1546"/>
			<point x="95" y="1567"/>
			<point x="93" y="1589" type="curve" smooth="yes"/>
			<point x="88" y="1663"/>
			<point x="87" y="1703"/>
			<point x="92" y="1710" type="curve" smooth="yes"/>
			<point x="104" y="1728" type="line" smooth="yes"/>
			<point x="111" y="1738"/>
			<point x="117" y="1743"/>
			<point x="123" y="1744" type="curve" smooth="yes"/>
			<point x="132" y="1745"/>
			<point x="136" y="1737"/>
			<point x="137" y="1721" type="curve" smooth="yes"/>
			<point x="137" y="1720"/>
			<point x="137" y="1720"/>
			<point x="137" y="1720" type="curve" smooth="yes"/>
			<point x="142" y="1605"/>
			<point x="149" y="1539"/>
			<point x="156" y="1524" type="curve" smooth="yes"/>
			<point x="163" y="1509"/>
			<point x="181" y="1501"/>
			<point x="210" y="1501" type="curve" smooth="yes"/>
			<point x="239" y="1501"/>
			<point x="267" y="1513"/>
		</contour>
		<contour>
			<point x="208" y="1804" type="line"/>
			<point x="215" y="1811"/>
			<point x="230" y="1807"/>
			<point x="252" y="1792" type="curve"/>
			<point x="269" y="1816" type="line" smooth="yes"/>
			<point x="272" y="1821"/>
			<point x="276" y="1822"/>
			<point x="283" y="1820" type="curve" smooth="yes"/>
			<point x="290" y="1818"/>
			<point x="303" y="1810"/>
			<point x="324" y="1796" type="curve"/>
			<point x="330" y="1791"/>
			<point x="331" y="1786"/>
			<point x="328" y="1780" type="curve" smooth="yes"/>
			<point x="300" y="1737" type="line"/>
			<point x="295" y="1731"/>
			<point x="291" y="1730"/>
			<point x="286" y="1734" type="curve" smooth="yes"/>
			<point x="281" y="1738"/>
			<point x="272" y="1744"/>
			<point x="258" y="1752" type="curve"/>
			<point x="240" y="1724" type="line" smooth="yes"/>
			<point x="237" y="1719"/>
			<point x="234" y="1718"/>
			<point x="231" y="1719" type="curve" smooth="yes"/>
			<point x="228" y="1720"/>
			<point x="226" y="1721"/>
			<point x="225" y="1721" type="curve" smooth="yes"/>
			<point x="224" y="1721"/>
			<point x="222" y="1723"/>
			<point x="218" y="1725" type="curve" smooth="yes"/>
			<point x="214" y="1727"/>
			<point x="202" y="1735"/>
			<point x="183" y="1748" type="curve"/>
			<point x="178" y="1752"/>
			<point x="177" y="1756"/>
			<point x="180" y="1761" type="curve"/>
		</contour>
	</outline>
	<anchor name="_MarkAbove" x="244" y="1270"/>
</glyph>
<glyph name="meemabove-ar" format="2">
	<unicode hex="06D8"/>
	<outline>
		<contour>
			<point x="204" y="1417" type="curve"/>
			<point x="166" y="1352"/>
			<point x="113" y="1312"/>
			<point x="47" y="1297" type="curve"/>
			<point x="28" y="1293"/>
			<point x="18" y="1295"/>
			<point x="14" y="1303" type="curve"/>
			<point x="9" y="1316"/>
			<point x="15" y="1327"/>
			<point x="33" y="1336" type="curve" smooth="yes"/>
			<point x="94" y="1367"/>
			<point x="139" y="1404"/>
			<point x="170" y="1448" type="curve"/>
			<point x="185" y="1531"/>
			<point x="212" y="1573"/>
			<point x="250" y="1573" type="curve"/>
			<point x="295" y="1572"/>
			<point x="317" y="1533"/>
			<point x="317" y="1456" type="curve" smooth="yes"/>
			<point x="317" y="1455"/>
			<point x="316" y="1454"/>
			<point x="316" y="1453" type="curve" smooth="yes"/>
			<point x="299" y="1416" type="line"/>
			<point x="295" y="1409"/>
			<point x="289" y="1405"/>
			<point x="281" y="1405" type="curve" smooth="yes"/>
			<point x="251" y="1406"/>
			<point x="225" y="1410"/>
		</contour>
	</outline>
	<anchor name="_MarkAbove" x="209" y="1270"/>
</glyph>
<glyph name="lamAlefabove-ar" format="2">
	<unicode hex="06D9"/>
	<outline>
		<contour>
			<point x="228" y="1481" type="curve"/>
			<point x="248" y="1535"/>
			<point x="254" y="1611"/>
			<point x="247" y="1705" type="curve" smooth="yes"/>
			<point x="246" y="1722"/>
			<point x="247" y="1732"/>
			<point x="250" y="1737" type="curve" smooth="yes"/>
			<point x="258" y="1752"/>
			<point x="263" y="1760"/>
			<point x="265" y="1763" type="curve" smooth="yes"/>
			<point x="269" y="1768"/>
			<point x="273" y="1770"/>
			<point x="278" y="1769" type="curve" smooth="yes"/>
			<point x="283" y="1768"/>
			<point x="286" y="1765"/>
			<point x="288" y="1760" type="curve"/>
			<point x="294" y="1739"/>
			<point x="299" y="1724"/>
			<point x="306" y="1717" type="curve" smooth="yes"/>
			<point x="313" y="1709"/>
			<point x="312" y="1701"/>
			<point x="304" y="1692" type="curve" smooth="yes"/>
			<point x="290" y="1678" type="line"/>
			<point x="293" y="1584"/>
			<point x="278" y="1504"/>
			<point x="246" y="1439" type="curve"/>
			<point x="256" y="1411"/>
			<point x="263" y="1386"/>
			<point x="264" y="1362" type="curve" smooth="yes"/>
			<point x="265" y="1338"/>
			<point x="258" y="1325"/>
			<point x="242" y="1320" type="curve"/>
			<point x="205" y="1311"/>
			<point x="164" y="1309"/>
			<point x="121" y="1316" type="curve" smooth="yes"/>
			<point x="114" y="1317"/>
			<point x="109" y="1321"/>
			<point x="107" y="1325" type="curve" smooth="yes"/>
			<point x="100" y="1344"/>
			<point x="101" y="1361"/>
			<point x="111" y="1375" type="curve"/>
			<point x="116" y="1381"/>
			<point x="121" y="1383"/>
			<point x="127" y="1382" type="curve" smooth="yes"/>
			<point x="133" y="1381"/>
			<point x="138" y="1381"/>
			<point x="144" y="1380" type="curve"/>
			<point x="169" y="1394"/>
			<point x="189" y="1413"/>
			<point x="205" y="1436" type="curve"/>
			<point x="169" y="1512"/>
			<point x="123" y="1576"/>
			<point x="71" y="1628" type="curve"/>
			<point x="68" y="1623"/>
			<point x="66" y="1619"/>
			<point x="65" y="1618" type="curve" smooth="yes"/>
			<point x="56" y="1613"/>
			<point x="49" y="1615"/>
			<point x="42" y="1622" type="curve" smooth="yes"/>
			<point x="1" y="1665" type="line"/>
			<point x="-6" y="1673"/>
			<point x="-8" y="1683"/>
			<point x="-7" y="1693" type="curve" smooth="yes"/>
			<point x="0" y="1744" type="line" smooth="yes"/>
			<point x="2" y="1752"/>
			<point x="6" y="1757"/>
			<point x="12" y="1758" type="curve"/>
			<point x="21" y="1759"/>
			<point x="36" y="1748"/>
			<point x="56" y="1726" type="curve" smooth="yes"/>
			<point x="134" y="1637"/>
			<point x="191" y="1556"/>
		</contour>
		<contour>
			<point x="220" y="1397" type="curve"/>
			<point x="215" y="1390"/>
			<point x="210" y="1385"/>
			<point x="205" y="1379" type="curve"/>
			<point x="212" y="1379"/>
			<point x="219" y="1380"/>
			<point x="224" y="1381" type="curve"/>
			<point x="223" y="1386"/>
			<point x="222" y="1391"/>
		</contour>
	</outline>
	<anchor name="_MarkAbove" x="190" y="1270"/>
</glyph>
<glyph name="jeemabove-ar" format="2">
	<unicode hex="06DA"/>
	<outline>
		<contour>
			<point x="174" y="1561" type="line"/>
			<point x="178" y="1565"/>
			<point x="185" y="1565"/>
			<point x="196" y="1561" type="curve" smooth="yes"/>
			<point x="207" y="1557"/>
			<point x="218" y="1550"/>
			<point x="230" y="1539" type="curve"/>
			<point x="234" y="1534"/>
			<point x="235" y="1530"/>
			<point x="233" y="1525" type="curve"/>
			<point x="205" y="1481" type="line" smooth="yes"/>
			<point x="201" y="1475"/>
			<point x="197" y="1474"/>
			<point x="192" y="1478" type="curve" smooth="yes"/>
			<point x="187" y="1482"/>
			<point x="172" y="1491"/>
			<point x="149" y="1505" type="curve" smooth="yes"/>
			<point x="144" y="1508"/>
			<point x="143" y="1512"/>
			<point x="146" y="1518" type="curve"/>
		</contour>
		<contour>
			<point x="336" y="1741" type="curve" smooth="yes"/>
			<point x="322" y="1709" type="line" smooth="yes"/>
			<point x="320" y="1703"/>
			<point x="316" y="1701"/>
			<point x="310" y="1700" type="curve" smooth="yes"/>
			<point x="219" y="1688"/>
			<point x="155" y="1669"/>
			<point x="119" y="1646" type="curve"/>
			<point x="50" y="1600"/>
			<point x="23" y="1546"/>
			<point x="38" y="1483" type="curve"/>
			<point x="47" y="1448"/>
			<point x="73" y="1421"/>
			<point x="117" y="1401" type="curve"/>
			<point x="142" y="1390"/>
			<point x="182" y="1383"/>
			<point x="236" y="1380" type="curve" smooth="yes"/>
			<point x="290" y="1377"/>
			<point x="341" y="1377"/>
			<point x="388" y="1381" type="curve" smooth="yes"/>
			<point x="396" y="1382"/>
			<point x="402" y="1380"/>
			<point x="406" y="1376" type="curve" smooth="yes"/>
			<point x="410" y="1372"/>
			<point x="409" y="1367"/>
			<point x="406" y="1362" type="curve" smooth="yes"/>
			<point x="403" y="1357"/>
			<point x="400" y="1354"/>
			<point x="395" y="1353" type="curve" smooth="yes"/>
			<point x="372" y="1346"/>
			<point x="352" y="1337"/>
			<point x="335" y="1327" type="curve" smooth="yes"/>
			<point x="318" y="1317"/>
			<point x="307" y="1313"/>
			<point x="301" y="1312" type="curve" smooth="yes"/>
			<point x="186" y="1302"/>
			<point x="103" y="1316"/>
			<point x="51" y="1354" type="curve" smooth="yes"/>
			<point x="-1" y="1392"/>
			<point x="-18" y="1452"/>
			<point x="0" y="1533" type="curve"/>
			<point x="17" y="1607"/>
			<point x="59" y="1663"/>
			<point x="125" y="1700" type="curve"/>
			<point x="85" y="1707"/>
			<point x="55" y="1704"/>
			<point x="34" y="1692" type="curve" smooth="yes"/>
			<point x="30" y="1690"/>
			<point x="25" y="1689"/>
			<point x="21" y="1690" type="curve"/>
			<point x="15" y="1692"/>
			<point x="13" y="1697"/>
			<point x="13" y="1705" type="curve" smooth="yes"/>
			<point x="13" y="1713"/>
			<point x="15" y="1721"/>
			<point x="19" y="1732" type="curve" smooth="yes"/>
			<point x="28" y="1755"/>
			<point x="48" y="1768"/>
			<point x="81" y="1770" type="curve"/>
			<point x="97" y="1771"/>
			<point x="121" y="1767"/>
			<point x="154" y="1761" type="curve" smooth="yes"/>
			<point x="187" y="1755"/>
			<point x="214" y="1752"/>
			<point x="236" y="1752" type="curve" smooth="yes"/>
			<point x="258" y="1752"/>
			<point x="278" y="1755"/>
			<point x="297" y="1758" type="curve" smooth="yes"/>
			<point x="316" y="1761"/>
			<point x="328" y="1761"/>
			<point x="334" y="1759" type="curve" smooth="yes"/>
			<point x="340" y="1757"/>
			<point x="340" y="1751"/>
		</contour>
	</outline>
	<anchor name="_MarkAbove" x="195" y="1270"/>
</glyph>
<glyph name="threedotsabove-ar" format="2">
	<unicode hex="06DB"/>
	<outline>
		<contour>
			<point x="124" y="1475" type="curve"/>
			<point x="161" y="1512"/>
			<point x="182" y="1529"/>
			<point x="188" y="1526" type="curve" smooth="yes"/>
			<point x="209" y="1514"/>
			<point x="226" y="1499"/>
			<point x="240" y="1481" type="curve"/>
			<point x="244" y="1475"/>
			<point x="244" y="1469"/>
			<point x="240" y="1464" type="curve"/>
			<point x="191" y="1412" type="line"/>
			<point x="185" y="1406"/>
			<point x="180" y="1406"/>
			<point x="175" y="1412" type="curve" smooth="yes"/>
			<point x="170" y="1418"/>
			<point x="153" y="1433"/>
			<point x="125" y="1459" type="curve" smooth="yes"/>
			<point x="119" y="1464"/>
			<point x="119" y="1469"/>
		</contour>
		<contour>
			<point x="242" y="1427" type="line"/>
			<point x="247" y="1431"/>
			<point x="252" y="1431"/>
			<point x="258" y="1428" type="curve"/>
			<point x="279" y="1416"/>
			<point x="296" y="1401"/>
			<point x="310" y="1383" type="curve"/>
			<point x="314" y="1377"/>
			<point x="313" y="1372"/>
			<point x="309" y="1367" type="curve"/>
			<point x="260" y="1314" type="line" smooth="yes"/>
			<point x="255" y="1309"/>
			<point x="250" y="1309"/>
			<point x="246" y="1313" type="curve" smooth="yes"/>
			<point x="242" y="1317"/>
			<point x="224" y="1333"/>
			<point x="194" y="1361" type="curve"/>
			<point x="189" y="1366"/>
			<point x="189" y="1372"/>
			<point x="193" y="1377" type="curve"/>
		</contour>
		<contour>
			<point x="102" y="1427" type="line"/>
			<point x="107" y="1431"/>
			<point x="112" y="1432"/>
			<point x="118" y="1428" type="curve" smooth="yes"/>
			<point x="138" y="1416"/>
			<point x="155" y="1401"/>
			<point x="169" y="1383" type="curve"/>
			<point x="173" y="1377"/>
			<point x="173" y="1372"/>
			<point x="169" y="1367" type="curve"/>
			<point x="120" y="1314" type="line" smooth="yes"/>
			<point x="115" y="1309"/>
			<point x="111" y="1309"/>
			<point x="106" y="1313" type="curve" smooth="yes"/>
			<point x="101" y="1317"/>
			<point x="84" y="1333"/>
			<point x="54" y="1361" type="curve"/>
			<point x="49" y="1366"/>
			<point x="49" y="1372"/>
			<point x="53" y="1377" type="curve"/>
		</contour>
	</outline>
	<anchor name="_MarkAbove" x="185" y="1270"/>
</glyph>
<glyph name="seenabove-ar" format="2">
	<unicode hex="06DC"/>
	<outline>
		<contour>
			<point x="485" y="1675" type="curve"/>
			<point x="500" y="1674"/>
			<point x="508" y="1658"/>
			<point x="508" y="1626" type="curve" smooth="yes"/>
			<point x="508" y="1594"/>
			<point x="500" y="1567"/>
			<point x="486" y="1544" type="curve" smooth="yes"/>
			<point x="481" y="1537"/>
			<point x="475" y="1532"/>
			<point x="467" y="1530" type="curve"/>
			<point x="449" y="1527"/>
			<point x="429" y="1532"/>
			<point x="406" y="1544" type="curve"/>
			<point x="388" y="1517"/>
			<point x="364" y="1504"/>
			<point x="335" y="1506" type="curve"/>
			<point x="333" y="1475"/>
			<point x="328" y="1448"/>
			<point x="320" y="1424" type="curve" smooth="yes"/>
			<point x="312" y="1400"/>
			<point x="296" y="1379"/>
			<point x="275" y="1362" type="curve"/>
			<point x="229" y="1327"/>
			<point x="180" y="1310"/>
			<point x="125" y="1312" type="curve" smooth="yes"/>
			<point x="56" y="1314"/>
			<point x="12" y="1343"/>
			<point x="-4" y="1399" type="curve"/>
			<point x="-9" y="1415"/>
			<point x="-8" y="1438"/>
			<point x="-2" y="1467" type="curve" smooth="yes"/>
			<point x="4" y="1496"/>
			<point x="16" y="1528"/>
			<point x="34" y="1561" type="curve" smooth="yes"/>
			<point x="37" y="1566"/>
			<point x="41" y="1568"/>
			<point x="46" y="1568" type="curve" smooth="yes"/>
			<point x="51" y="1568"/>
			<point x="55" y="1566"/>
			<point x="57" y="1562" type="curve" smooth="yes"/>
			<point x="59" y="1557"/>
			<point x="59" y="1553"/>
			<point x="57" y="1549" type="curve" smooth="yes"/>
			<point x="34" y="1504"/>
			<point x="24" y="1474"/>
			<point x="28" y="1460" type="curve" smooth="yes"/>
			<point x="42" y="1413"/>
			<point x="76" y="1390"/>
			<point x="130" y="1388" type="curve"/>
			<point x="206" y="1386"/>
			<point x="261" y="1410"/>
			<point x="294" y="1460" type="curve"/>
			<point x="295" y="1488"/>
			<point x="288" y="1519"/>
			<point x="272" y="1554" type="curve" smooth="yes"/>
			<point x="269" y="1561"/>
			<point x="269" y="1566"/>
			<point x="271" y="1570" type="curve" smooth="yes"/>
			<point x="279" y="1588"/>
			<point x="286" y="1601"/>
			<point x="291" y="1608" type="curve" smooth="yes"/>
			<point x="297" y="1616"/>
			<point x="301" y="1618"/>
			<point x="306" y="1614" type="curve" smooth="yes"/>
			<point x="311" y="1610"/>
			<point x="315" y="1604"/>
			<point x="320" y="1595" type="curve" smooth="yes"/>
			<point x="325" y="1586"/>
			<point x="329" y="1580"/>
			<point x="332" y="1578" type="curve"/>
			<point x="350" y="1575"/>
			<point x="367" y="1580"/>
			<point x="385" y="1595" type="curve"/>
			<point x="392" y="1601"/>
			<point x="397" y="1618"/>
			<point x="404" y="1644" type="curve" smooth="yes"/>
			<point x="406" y="1650"/>
			<point x="409" y="1653"/>
			<point x="413" y="1655" type="curve"/>
			<point x="418" y="1657"/>
			<point x="422" y="1657"/>
			<point x="426" y="1654" type="curve" smooth="yes"/>
			<point x="433" y="1649"/>
			<point x="435" y="1637"/>
			<point x="431" y="1619" type="curve" smooth="yes"/>
			<point x="431" y="1618"/>
			<point x="431" y="1618"/>
			<point x="431" y="1618" type="curve" smooth="yes"/>
			<point x="442" y="1611"/>
			<point x="453" y="1607"/>
			<point x="466" y="1607" type="curve"/>
			<point x="466" y="1607"/>
			<point x="466" y="1608"/>
			<point x="466" y="1609" type="curve" smooth="yes"/>
			<point x="466" y="1610"/>
			<point x="464" y="1610"/>
			<point x="463" y="1612" type="curve" smooth="yes"/>
			<point x="461" y="1616"/>
			<point x="461" y="1618"/>
			<point x="461" y="1619" type="curve" smooth="yes"/>
			<point x="472" y="1664" type="line"/>
			<point x="475" y="1671"/>
			<point x="479" y="1675"/>
		</contour>
	</outline>
	<anchor name="_MarkAbove" x="288" y="1270"/>
	<anchor name="_SeenAbove" x="249" y="1318"/>
</glyph>
<glyph name="endofayah-ar" format="2">
	<unicode hex="06DD"/>
	<advance width="1279"/>
	<outline>
		<contour>
			<point x="990" y="-137" type="curve"/>
			<point x="1129" y="-81"/>
			<point x="1199" y="20"/>
			<point x="1199" y="166" type="curve" smooth="yes"/>
			<point x="1199" y="275"/>
			<point x="1160" y="358"/>
			<point x="1082" y="418" type="curve"/>
			<point x="1053" y="439"/>
			<point x="1022" y="457"/>
			<point x="990" y="469" type="curve"/>
			<point x="989" y="441"/>
			<point x="977" y="424"/>
			<point x="954" y="417" type="curve" smooth="yes"/>
			<point x="931" y="410"/>
			<point x="909" y="415"/>
			<point x="888" y="429" type="curve"/>
			<point x="873" y="441"/>
			<point x="873" y="450"/>
			<point x="887" y="456" type="curve"/>
			<point x="896" y="459"/>
			<point x="901" y="463"/>
			<point x="902" y="468" type="curve"/>
			<point x="901" y="477"/>
			<point x="893" y="486"/>
			<point x="881" y="494" type="curve"/>
			<point x="794" y="501"/>
			<point x="730" y="485"/>
			<point x="686" y="450" type="curve"/>
			<point x="697" y="430"/>
			<point x="692" y="416"/>
			<point x="672" y="405" type="curve"/>
			<point x="659" y="399"/>
			<point x="648" y="402"/>
			<point x="640" y="411" type="curve"/>
			<point x="632" y="402"/>
			<point x="619" y="400"/>
			<point x="603" y="408" type="curve" smooth="yes"/>
			<point x="587" y="416"/>
			<point x="584" y="430"/>
			<point x="594" y="450" type="curve"/>
			<point x="550" y="486"/>
			<point x="484" y="501"/>
			<point x="397" y="494" type="curve"/>
			<point x="384" y="486"/>
			<point x="378" y="477"/>
			<point x="377" y="468" type="curve"/>
			<point x="378" y="463"/>
			<point x="381" y="460"/>
			<point x="387" y="458" type="curve" smooth="yes"/>
			<point x="406" y="451"/>
			<point x="407" y="441"/>
			<point x="391" y="429" type="curve"/>
			<point x="369" y="414"/>
			<point x="346" y="410"/>
			<point x="323" y="418" type="curve"/>
			<point x="301" y="427"/>
			<point x="290" y="444"/>
			<point x="289" y="469" type="curve"/>
			<point x="257" y="456"/>
			<point x="227" y="439"/>
			<point x="198" y="418" type="curve"/>
			<point x="119" y="358"/>
			<point x="80" y="275"/>
			<point x="80" y="166" type="curve" smooth="yes"/>
			<point x="80" y="57"/>
			<point x="120" y="-27"/>
			<point x="198" y="-87" type="curve"/>
			<point x="227" y="-108"/>
			<point x="257" y="-125"/>
			<point x="289" y="-137" type="curve"/>
			<point x="290" y="-110"/>
			<point x="302" y="-92"/>
			<point x="324" y="-85" type="curve"/>
			<point x="349" y="-78"/>
			<point x="371" y="-82"/>
			<point x="391" y="-97" type="curve"/>
			<point x="395" y="-100"/>
			<point x="398" y="-105"/>
			<point x="400" y="-111" type="curve" smooth="yes"/>
			<point x="402" y="-117"/>
			<point x="397" y="-122"/>
			<point x="386" y="-125" type="curve"/>
			<point x="381" y="-127"/>
			<point x="378" y="-131"/>
			<point x="377" y="-136" type="curve"/>
			<point x="379" y="-146"/>
			<point x="385" y="-154"/>
			<point x="397" y="-162" type="curve"/>
			<point x="484" y="-168"/>
			<point x="550" y="-153"/>
			<point x="594" y="-118" type="curve"/>
			<point x="583" y="-98"/>
			<point x="587" y="-84"/>
			<point x="607" y="-73" type="curve"/>
			<point x="620" y="-67"/>
			<point x="632" y="-70"/>
			<point x="640" y="-79" type="curve"/>
			<point x="648" y="-70"/>
			<point x="661" y="-68"/>
			<point x="677" y="-76" type="curve" smooth="yes"/>
			<point x="693" y="-84"/>
			<point x="696" y="-98"/>
			<point x="686" y="-118" type="curve"/>
			<point x="730" y="-153"/>
			<point x="795" y="-168"/>
			<point x="882" y="-162" type="curve"/>
			<point x="894" y="-154"/>
			<point x="901" y="-145"/>
			<point x="902" y="-136" type="curve"/>
			<point x="901" y="-130"/>
			<point x="899" y="-127"/>
			<point x="894" y="-126" type="curve" smooth="yes"/>
			<point x="889" y="-125"/>
			<point x="885" y="-121"/>
			<point x="881" y="-116" type="curve" smooth="yes"/>
			<point x="877" y="-111"/>
			<point x="879" y="-104"/>
			<point x="889" y="-97" type="curve"/>
			<point x="911" y="-82"/>
			<point x="933" y="-78"/>
			<point x="956" y="-86" type="curve"/>
			<point x="978" y="-95"/>
			<point x="989" y="-112"/>
		</contour>
		<contour>
			<point x="630" y="-130" type="curve" smooth="yes"/>
			<point x="584" y="-164"/>
			<point x="562" y="-196"/>
			<point x="562" y="-230" type="curve"/>
			<point x="564" y="-259"/>
			<point x="590" y="-293"/>
			<point x="640" y="-332" type="curve"/>
			<point x="690" y="-293"/>
			<point x="715" y="-259"/>
			<point x="717" y="-230" type="curve"/>
			<point x="717" y="-196"/>
			<point x="694" y="-163"/>
			<point x="649" y="-130" type="curve" smooth="yes"/>
			<point x="645" y="-127"/>
			<point x="643" y="-125"/>
			<point x="640" y="-122" type="curve"/>
			<point x="637" y="-125"/>
			<point x="634" y="-127"/>
		</contour>
		<contour>
			<point x="898" y="-293" type="curve"/>
			<point x="890" y="-301"/>
			<point x="880" y="-305"/>
			<point x="868" y="-305" type="curve" smooth="yes"/>
			<point x="856" y="-305"/>
			<point x="847" y="-302"/>
			<point x="839" y="-294" type="curve" smooth="yes"/>
			<point x="831" y="-286"/>
			<point x="827" y="-276"/>
			<point x="826" y="-264" type="curve" smooth="yes"/>
			<point x="825" y="-252"/>
			<point x="830" y="-242"/>
			<point x="838" y="-234" type="curve" smooth="yes"/>
			<point x="857" y="-216"/>
			<point x="876" y="-215"/>
			<point x="897" y="-232" type="curve"/>
			<point x="905" y="-239"/>
			<point x="910" y="-249"/>
			<point x="910" y="-262" type="curve" smooth="yes"/>
			<point x="910" y="-275"/>
			<point x="906" y="-285"/>
		</contour>
		<contour>
			<point x="440" y="-293" type="curve"/>
			<point x="432" y="-301"/>
			<point x="423" y="-305"/>
			<point x="411" y="-305" type="curve" smooth="yes"/>
			<point x="399" y="-305"/>
			<point x="389" y="-302"/>
			<point x="381" y="-294" type="curve" smooth="yes"/>
			<point x="373" y="-286"/>
			<point x="370" y="-276"/>
			<point x="369" y="-264" type="curve" smooth="yes"/>
			<point x="368" y="-252"/>
			<point x="372" y="-242"/>
			<point x="380" y="-234" type="curve" smooth="yes"/>
			<point x="399" y="-216"/>
			<point x="419" y="-215"/>
			<point x="440" y="-232" type="curve"/>
			<point x="448" y="-239"/>
			<point x="452" y="-249"/>
			<point x="452" y="-262" type="curve" smooth="yes"/>
			<point x="452" y="-275"/>
			<point x="448" y="-285"/>
		</contour>
		<contour>
			<point x="898" y="564" type="curve"/>
			<point x="890" y="556"/>
			<point x="880" y="552"/>
			<point x="868" y="552" type="curve" smooth="yes"/>
			<point x="856" y="552"/>
			<point x="847" y="556"/>
			<point x="839" y="564" type="curve" smooth="yes"/>
			<point x="831" y="572"/>
			<point x="827" y="582"/>
			<point x="826" y="594" type="curve" smooth="yes"/>
			<point x="825" y="606"/>
			<point x="830" y="616"/>
			<point x="838" y="624" type="curve" smooth="yes"/>
			<point x="857" y="642"/>
			<point x="876" y="642"/>
			<point x="897" y="625" type="curve"/>
			<point x="905" y="618"/>
			<point x="910" y="608"/>
			<point x="910" y="595" type="curve" smooth="yes"/>
			<point x="910" y="582"/>
			<point x="906" y="572"/>
		</contour>
		<contour>
			<point x="440" y="564" type="curve"/>
			<point x="432" y="556"/>
			<point x="423" y="552"/>
			<point x="411" y="552" type="curve" smooth="yes"/>
			<point x="399" y="552"/>
			<point x="389" y="556"/>
			<point x="381" y="564" type="curve" smooth="yes"/>
			<point x="373" y="572"/>
			<point x="370" y="582"/>
			<point x="369" y="594" type="curve" smooth="yes"/>
			<point x="368" y="606"/>
			<point x="372" y="616"/>
			<point x="380" y="624" type="curve" smooth="yes"/>
			<point x="399" y="642"/>
			<point x="419" y="642"/>
			<point x="440" y="625" type="curve"/>
			<point x="448" y="618"/>
			<point x="452" y="608"/>
			<point x="452" y="595" type="curve" smooth="yes"/>
			<point x="452" y="582"/>
			<point x="448" y="572"/>
		</contour>
		<contour>
			<point x="788" y="-203" type="curve"/>
			<point x="793" y="-220"/>
			<point x="790" y="-238"/>
			<point x="782" y="-259" type="curve" smooth="yes"/>
			<point x="774" y="-280"/>
			<point x="750" y="-303"/>
			<point x="711" y="-331" type="curve" smooth="yes"/>
			<point x="672" y="-359"/>
			<point x="650" y="-374"/>
			<point x="646" y="-378" type="curve" smooth="yes"/>
			<point x="642" y="-382"/>
			<point x="637" y="-382"/>
			<point x="633" y="-378" type="curve" smooth="yes"/>
			<point x="629" y="-374"/>
			<point x="607" y="-359"/>
			<point x="568" y="-331" type="curve" smooth="yes"/>
			<point x="529" y="-303"/>
			<point x="505" y="-279"/>
			<point x="497" y="-258" type="curve" smooth="yes"/>
			<point x="489" y="-237"/>
			<point x="487" y="-220"/>
			<point x="491" y="-203" type="curve"/>
			<point x="470" y="-205"/>
			<point x="452" y="-206"/>
			<point x="433" y="-206" type="curve" smooth="yes"/>
			<point x="334" y="-205"/>
			<point x="248" y="-177"/>
			<point x="173" y="-121" type="curve" smooth="yes"/>
			<point x="82" y="-53"/>
			<point x="36" y="43"/>
			<point x="36" y="166" type="curve" smooth="yes"/>
			<point x="36" y="289"/>
			<point x="82" y="384"/>
			<point x="173" y="453" type="curve"/>
			<point x="248" y="508"/>
			<point x="335" y="536"/>
			<point x="433" y="537" type="curve" smooth="yes"/>
			<point x="452" y="537"/>
			<point x="471" y="536"/>
			<point x="491" y="534" type="curve"/>
			<point x="486" y="551"/>
			<point x="489" y="570"/>
			<point x="497" y="591" type="curve" smooth="yes"/>
			<point x="505" y="612"/>
			<point x="529" y="635"/>
			<point x="568" y="663" type="curve" smooth="yes"/>
			<point x="607" y="691"/>
			<point x="629" y="706"/>
			<point x="633" y="710" type="curve" smooth="yes"/>
			<point x="637" y="714"/>
			<point x="642" y="714"/>
			<point x="646" y="710" type="curve" smooth="yes"/>
			<point x="650" y="706"/>
			<point x="673" y="691"/>
			<point x="712" y="663" type="curve" smooth="yes"/>
			<point x="751" y="635"/>
			<point x="775" y="611"/>
			<point x="783" y="590" type="curve" smooth="yes"/>
			<point x="791" y="569"/>
			<point x="792" y="551"/>
			<point x="788" y="534" type="curve"/>
			<point x="809" y="536"/>
			<point x="828" y="537"/>
			<point x="847" y="537" type="curve" smooth="yes"/>
			<point x="945" y="536"/>
			<point x="1031" y="508"/>
			<point x="1106" y="453" type="curve"/>
			<point x="1197" y="384"/>
			<point x="1244" y="288"/>
			<point x="1244" y="166" type="curve" smooth="yes"/>
			<point x="1244" y="44"/>
			<point x="1197" y="-53"/>
			<point x="1106" y="-121" type="curve" smooth="yes"/>
			<point x="1031" y="-177"/>
			<point x="945" y="-205"/>
			<point x="847" y="-206" type="curve" smooth="yes"/>
			<point x="828" y="-206"/>
			<point x="808" y="-205"/>
		</contour>
		<contour>
			<point x="640" y="454" type="curve"/>
			<point x="643" y="457"/>
			<point x="645" y="460"/>
			<point x="649" y="462" type="curve"/>
			<point x="694" y="496"/>
			<point x="717" y="529"/>
			<point x="717" y="563" type="curve"/>
			<point x="715" y="593"/>
			<point x="690" y="627"/>
			<point x="640" y="664" type="curve"/>
			<point x="590" y="626"/>
			<point x="564" y="593"/>
			<point x="562" y="563" type="curve"/>
			<point x="562" y="528"/>
			<point x="585" y="495"/>
			<point x="630" y="462" type="curve" smooth="yes"/>
			<point x="634" y="459"/>
			<point x="637" y="457"/>
		</contour>
	</outline>
</glyph>
<glyph name="hizb-ar" format="2">
	<unicode hex="06DE"/>
	<advance width="652"/>
	<outline>
		<contour>
			<point x="326" y="463" type="curve"/>
			<point x="363" y="463"/>
			<point x="379" y="439"/>
			<point x="375" y="392" type="curve"/>
			<point x="362" y="253" type="line"/>
			<point x="451" y="361" type="line"/>
			<point x="481" y="397"/>
			<point x="510" y="402"/>
			<point x="536" y="376" type="curve"/>
			<point x="562" y="349"/>
			<point x="557" y="321"/>
			<point x="521" y="291" type="curve"/>
			<point x="413" y="202" type="line"/>
			<point x="552" y="216" type="line"/>
			<point x="599" y="220"/>
			<point x="623" y="204"/>
			<point x="623" y="167" type="curve"/>
			<point x="623" y="130"/>
			<point x="599" y="113"/>
			<point x="552" y="117" type="curve"/>
			<point x="413" y="130" type="line"/>
			<point x="521" y="42" type="line"/>
			<point x="557" y="12"/>
			<point x="562" y="-17"/>
			<point x="536" y="-43" type="curve"/>
			<point x="509" y="-69"/>
			<point x="481" y="-64"/>
			<point x="451" y="-28" type="curve"/>
			<point x="362" y="79" type="line"/>
			<point x="375" y="-60" type="line"/>
			<point x="379" y="-107"/>
			<point x="363" y="-130"/>
			<point x="326" y="-130" type="curve"/>
			<point x="289" y="-130"/>
			<point x="272" y="-107"/>
			<point x="276" y="-60" type="curve"/>
			<point x="290" y="79" type="line"/>
			<point x="201" y="-28" type="line"/>
			<point x="171" y="-64"/>
			<point x="142" y="-69"/>
			<point x="116" y="-43" type="curve"/>
			<point x="90" y="-17"/>
			<point x="95" y="12"/>
			<point x="131" y="42" type="curve"/>
			<point x="239" y="130" type="line"/>
			<point x="100" y="117" type="line"/>
			<point x="53" y="113"/>
			<point x="29" y="130"/>
			<point x="29" y="167" type="curve"/>
			<point x="29" y="204"/>
			<point x="53" y="220"/>
			<point x="100" y="216" type="curve"/>
			<point x="239" y="202" type="line"/>
			<point x="131" y="291" type="line"/>
			<point x="95" y="321"/>
			<point x="90" y="349"/>
			<point x="116" y="376" type="curve"/>
			<point x="142" y="402"/>
			<point x="171" y="397"/>
			<point x="201" y="361" type="curve"/>
			<point x="290" y="253" type="line"/>
			<point x="276" y="392" type="line"/>
			<point x="272" y="439"/>
			<point x="289" y="463"/>
		</contour>
	</outline>
</glyph>
<glyph name="sukunround-ar" format="2">
	<unicode hex="06DF"/>
	<outline>
		<contour>
			<point x="208" y="899" type="curve" smooth="yes"/>
			<point x="220" y="902"/>
			<point x="219" y="909"/>
			<point x="205" y="920" type="curve" smooth="yes"/>
			<point x="191" y="931"/>
			<point x="180" y="937"/>
			<point x="173" y="937" type="curve" smooth="yes"/>
			<point x="158" y="937"/>
			<point x="149" y="930"/>
			<point x="148" y="917" type="curve" smooth="yes"/>
			<point x="147" y="910"/>
			<point x="150" y="906"/>
			<point x="156" y="903" type="curve" smooth="yes"/>
			<point x="170" y="896"/>
			<point x="188" y="894"/>
		</contour>
		<contour>
			<point x="114" y="905" type="curve" smooth="yes"/>
			<point x="115" y="928"/>
			<point x="123" y="948"/>
			<point x="135" y="966" type="curve" smooth="yes"/>
			<point x="156" y="995"/>
			<point x="182" y="998"/>
			<point x="214" y="976" type="curve"/>
			<point x="239" y="957"/>
			<point x="250" y="936"/>
			<point x="248" y="911" type="curve" smooth="yes"/>
			<point x="246" y="886"/>
			<point x="238" y="867"/>
			<point x="224" y="854" type="curve" smooth="yes"/>
			<point x="210" y="841"/>
			<point x="187" y="836"/>
			<point x="157" y="841" type="curve" smooth="yes"/>
			<point x="127" y="846"/>
			<point x="112" y="868"/>
		</contour>
	</outline>
	<anchor name="_MarkAbove" x="180" y="801"/>
	<anchor name="_TashkilAbove" x="182" y="801"/>
</glyph>
<glyph name="sukunoval-ar" format="2">
	<unicode hex="06E0"/>
	<outline>
		<contour>
			<point x="216" y="973" type="curve" smooth="yes"/>
			<point x="216" y="1012"/>
			<point x="214" y="1039"/>
			<point x="210" y="1053" type="curve" smooth="yes"/>
			<point x="205" y="1071"/>
			<point x="195" y="1080"/>
			<point x="178" y="1080" type="curve" smooth="yes"/>
			<point x="163" y="1080"/>
			<point x="152" y="1071"/>
			<point x="146" y="1053" type="curve" smooth="yes"/>
			<point x="142" y="1041"/>
			<point x="141" y="1014"/>
			<point x="141" y="973" type="curve" smooth="yes"/>
			<point x="141" y="933"/>
			<point x="142" y="906"/>
			<point x="146" y="892" type="curve" smooth="yes"/>
			<point x="151" y="874"/>
			<point x="162" y="866"/>
			<point x="178" y="866" type="curve" smooth="yes"/>
			<point x="195" y="866"/>
			<point x="205" y="874"/>
			<point x="210" y="892" type="curve" smooth="yes"/>
			<point x="214" y="906"/>
			<point x="216" y="933"/>
		</contour>
		<contour>
			<point x="94" y="973" type="curve" smooth="yes"/>
			<point x="94" y="1013"/>
			<point x="103" y="1045"/>
			<point x="120" y="1069" type="curve" smooth="yes"/>
			<point x="137" y="1093"/>
			<point x="158" y="1105"/>
			<point x="179" y="1105" type="curve" smooth="yes"/>
			<point x="200" y="1105"/>
			<point x="220" y="1093"/>
			<point x="237" y="1069" type="curve" smooth="yes"/>
			<point x="254" y="1045"/>
			<point x="263" y="1012"/>
			<point x="263" y="972" type="curve" smooth="yes"/>
			<point x="263" y="932"/>
			<point x="254" y="900"/>
			<point x="237" y="876" type="curve" smooth="yes"/>
			<point x="220" y="852"/>
			<point x="199" y="840"/>
			<point x="178" y="840" type="curve" smooth="yes"/>
			<point x="157" y="840"/>
			<point x="137" y="852"/>
			<point x="120" y="876" type="curve" smooth="yes"/>
			<point x="103" y="900"/>
			<point x="94" y="933"/>
		</contour>
	</outline>
	<anchor name="_MarkAbove" x="180" y="801"/>
	<anchor name="_TashkilAbove" x="182" y="801"/>
</glyph>
<glyph name="hahabove-ar" format="2">
	<unicode hex="06E1"/>
	<outline>
		<contour>
			<point x="262" y="1002" type="line" smooth="yes"/>
			<point x="283" y="997"/>
			<point x="289" y="983"/>
			<point x="280" y="960" type="curve" smooth="yes"/>
			<point x="275" y="949"/>
			<point x="264" y="935"/>
			<point x="248" y="918" type="curve" smooth="yes"/>
			<point x="232" y="901"/>
			<point x="217" y="888"/>
			<point x="205" y="878" type="curve" smooth="yes"/>
			<point x="179" y="857"/>
			<point x="138" y="852"/>
			<point x="85" y="865" type="curve" smooth="yes"/>
			<point x="77" y="867"/>
			<point x="73" y="872"/>
			<point x="73" y="881" type="curve" smooth="yes"/>
			<point x="73" y="890"/>
			<point x="77" y="896"/>
			<point x="87" y="897" type="curve"/>
			<point x="132" y="901"/>
			<point x="169" y="913"/>
			<point x="199" y="933" type="curve"/>
			<point x="166" y="944"/>
			<point x="137" y="944"/>
			<point x="110" y="932" type="curve"/>
			<point x="101" y="928"/>
			<point x="95" y="930"/>
			<point x="89" y="938" type="curve" smooth="yes"/>
			<point x="83" y="946"/>
			<point x="83" y="954"/>
			<point x="89" y="961" type="curve" smooth="yes"/>
			<point x="106" y="982"/>
			<point x="122" y="998"/>
			<point x="137" y="1010" type="curve" smooth="yes"/>
			<point x="152" y="1022"/>
			<point x="174" y="1025"/>
			<point x="201" y="1018" type="curve" smooth="yes"/>
		</contour>
	</outline>
	<anchor name="TashkilTashkilAbove" x="179" y="1069"/>
	<anchor name="_MarkAbove" x="180" y="801"/>
	<anchor name="_TashkilAbove" x="182" y="801"/>
	<anchor name="_TashkilAboveDot" x="182" y="801"/>
</glyph>
<glyph name="meemStopabove-ar" format="2">
	<unicode hex="06E2"/>
	<outline>
		<contour>
			<point x="127" y="1058" type="curve"/>
			<point x="115" y="1067"/>
			<point x="103" y="1067"/>
			<point x="90" y="1058" type="curve" smooth="yes"/>
			<point x="77" y="1049"/>
			<point x="69" y="1044"/>
			<point x="65" y="1045" type="curve"/>
			<point x="58" y="1047"/>
			<point x="58" y="1057"/>
			<point x="65" y="1077" type="curve" smooth="yes"/>
			<point x="72" y="1097"/>
			<point x="83" y="1113"/>
			<point x="98" y="1125" type="curve" smooth="yes"/>
			<point x="113" y="1137"/>
			<point x="134" y="1136"/>
			<point x="160" y="1121" type="curve"/>
			<point x="179" y="1110"/>
			<point x="194" y="1094"/>
			<point x="205" y="1074" type="curve" smooth="yes"/>
			<point x="209" y="1067"/>
			<point x="209" y="1059"/>
			<point x="208" y="1052" type="curve" smooth="yes"/>
			<point x="203" y="1019" type="line"/>
			<point x="201" y="1009"/>
			<point x="194" y="1002"/>
			<point x="181" y="1000" type="curve" smooth="yes"/>
			<point x="112" y="991"/>
			<point x="73" y="976"/>
			<point x="65" y="954" type="curve"/>
			<point x="92" y="880"/>
			<point x="108" y="825"/>
			<point x="110" y="792" type="curve" smooth="yes"/>
			<point x="111" y="775"/>
			<point x="106" y="766"/>
			<point x="96" y="764" type="curve"/>
			<point x="85" y="763"/>
			<point x="78" y="770"/>
			<point x="74" y="786" type="curve" smooth="yes"/>
			<point x="70" y="802"/>
			<point x="61" y="828"/>
			<point x="48" y="864" type="curve" smooth="yes"/>
			<point x="35" y="900"/>
			<point x="29" y="932"/>
			<point x="31" y="959" type="curve"/>
			<point x="36" y="1007"/>
			<point x="68" y="1040"/>
		</contour>
	</outline>
	<anchor name="_MarkAbove" x="155" y="801"/>
	<anchor name="_TashkilTashkilAbove2" x="220" y="1050"/>
	<anchor name="_TashkilTashkilAbove" x="220" y="1050"/>
	<anchor name="_TashkilAbove" x="156" y="801"/>
	<anchor name="_TashkilAboveDot" x="156" y="801"/>
</glyph>
<glyph name="maddalong-ar" format="2">
	<unicode hex="06E4"/>
	<outline>
		<contour>
			<point x="155" y="906" type="curve" smooth="yes"/>
			<point x="169" y="910"/>
			<point x="178" y="905"/>
			<point x="183" y="893" type="curve" smooth="yes"/>
			<point x="188" y="881"/>
			<point x="184" y="871"/>
			<point x="173" y="864" type="curve" smooth="yes"/>
			<point x="115" y="826"/>
			<point x="23" y="809"/>
			<point x="-105" y="812" type="curve"/>
			<point x="-117" y="786"/>
			<point x="-130" y="778"/>
			<point x="-142" y="787" type="curve"/>
			<point x="-178" y="825" type="line" smooth="yes"/>
			<point x="-185" y="832"/>
			<point x="-186" y="841"/>
			<point x="-180" y="851" type="curve" smooth="yes"/>
			<point x="-174" y="861"/>
			<point x="-165" y="873"/>
			<point x="-153" y="887" type="curve" smooth="yes"/>
			<point x="-146" y="894"/>
			<point x="-137" y="896"/>
			<point x="-125" y="894" type="curve" smooth="yes"/>
			<point x="-31" y="879"/>
			<point x="62" y="883"/>
		</contour>
	</outline>
	<anchor name="_AlefAbove" x="0" y="635"/>
	<anchor name="_TashkilTashkilAbove" x="0" y="810"/>
	<anchor name="_MarkAbove" x="0" y="781"/>
	<anchor name="_TashkilTashkilAbove2" x="0" y="810"/>
	<anchor name="_TashkilAbove" x="0" y="810"/>
</glyph>
<glyph name="wawSmall-ar" format="2">
	<unicode hex="06E5"/>
	<advance width="333"/>
	<outline>
		<contour>
			<point x="249" y="166" type="curve"/>
			<point x="242" y="183"/>
			<point x="233" y="193"/>
			<point x="224" y="195" type="curve" smooth="yes"/>
			<point x="216" y="197"/>
			<point x="210" y="195"/>
			<point x="206" y="189" type="curve" smooth="yes"/>
			<point x="203" y="184"/>
			<point x="203" y="179"/>
			<point x="209" y="174" type="curve" smooth="yes"/>
			<point x="216" y="168"/>
			<point x="229" y="166"/>
		</contour>
		<contour>
			<point x="244" y="94" type="curve"/>
			<point x="227" y="94"/>
			<point x="213" y="95"/>
			<point x="202" y="98" type="curve" smooth="yes"/>
			<point x="168" y="106"/>
			<point x="157" y="133"/>
			<point x="168" y="180" type="curve" smooth="yes"/>
			<point x="174" y="204"/>
			<point x="185" y="227"/>
			<point x="202" y="248" type="curve"/>
			<point x="211" y="259"/>
			<point x="222" y="265"/>
			<point x="235" y="265" type="curve" smooth="yes"/>
			<point x="248" y="265"/>
			<point x="260" y="259"/>
			<point x="271" y="246" type="curve" smooth="yes"/>
			<point x="298" y="212"/>
			<point x="304" y="162"/>
			<point x="290" y="96" type="curve" smooth="yes"/>
			<point x="281" y="53"/>
			<point x="261" y="17"/>
			<point x="232" y="-10" type="curve"/>
			<point x="213" y="-27"/>
			<point x="194" y="-37"/>
			<point x="175" y="-41" type="curve" smooth="yes"/>
			<point x="129" y="-49"/>
			<point x="88" y="-42"/>
			<point x="51" y="-21" type="curve" smooth="yes"/>
			<point x="37" y="-13"/>
			<point x="33" y="-5"/>
			<point x="38" y="2" type="curve" smooth="yes"/>
			<point x="43" y="9"/>
			<point x="51" y="12"/>
			<point x="63" y="12" type="curve" smooth="yes"/>
			<point x="99" y="11"/>
			<point x="134" y="18"/>
			<point x="168" y="32" type="curve" smooth="yes"/>
			<point x="202" y="46"/>
			<point x="227" y="67"/>
		</contour>
	</outline>
	<anchor name="TashkilAbove" x="195" y="417"/>
</glyph>
<glyph name="yehSmall-ar" format="2">
	<unicode hex="06E6"/>
	<advance width="407"/>
	<outline>
		<contour>
			<point x="186" y="222" type="curve" smooth="yes"/>
			<point x="199" y="251"/>
			<point x="216" y="266"/>
			<point x="236" y="266" type="curve"/>
			<point x="262" y="265"/>
			<point x="278" y="251"/>
			<point x="286" y="221" type="curve" smooth="yes"/>
			<point x="291" y="201"/>
			<point x="293" y="177"/>
			<point x="292" y="148" type="curve"/>
			<point x="291" y="135"/>
			<point x="285" y="127"/>
			<point x="276" y="127" type="curve"/>
			<point x="267" y="127"/>
			<point x="261" y="134"/>
			<point x="259" y="146" type="curve"/>
			<point x="255" y="176"/>
			<point x="245" y="191"/>
			<point x="230" y="191" type="curve"/>
			<point x="219" y="191"/>
			<point x="207" y="179"/>
			<point x="195" y="156" type="curve" smooth="yes"/>
			<point x="176" y="121"/>
			<point x="139" y="89"/>
			<point x="84" y="62" type="curve"/>
			<point x="157" y="49"/>
			<point x="243" y="51"/>
			<point x="341" y="69" type="curve" smooth="yes"/>
			<point x="362" y="73"/>
			<point x="372" y="70"/>
			<point x="373" y="60" type="curve" smooth="yes"/>
			<point x="374" y="53"/>
			<point x="371" y="47"/>
			<point x="365" y="42" type="curve" smooth="yes"/>
			<point x="359" y="37"/>
			<point x="348" y="30"/>
			<point x="334" y="19" type="curve" smooth="yes"/>
			<point x="320" y="8"/>
			<point x="306" y="1"/>
			<point x="293" y="-1" type="curve" smooth="yes"/>
			<point x="256" y="-7"/>
			<point x="215" y="-10"/>
			<point x="172" y="-9" type="curve" smooth="yes"/>
			<point x="129" y="-8"/>
			<point x="102" y="-7"/>
			<point x="90" y="-3" type="curve" smooth="yes"/>
			<point x="78" y="1"/>
			<point x="70" y="4"/>
			<point x="65" y="6" type="curve" smooth="yes"/>
			<point x="38" y="20"/>
			<point x="33" y="42"/>
			<point x="48" y="71" type="curve" smooth="yes"/>
			<point x="63" y="100"/>
			<point x="80" y="119"/>
			<point x="96" y="128" type="curve" smooth="yes"/>
			<point x="140" y="154"/>
			<point x="170" y="186"/>
		</contour>
	</outline>
	<anchor name="TashkilAbove" x="205" y="417"/>
</glyph>
<glyph name="noonabove-ar" format="2">
	<unicode hex="06E8"/>
	<outline>
		<contour>
			<point x="123" y="1210" type="line"/>
			<point x="127" y="1214"/>
			<point x="131" y="1216"/>
			<point x="136" y="1214" type="curve" smooth="yes"/>
			<point x="155" y="1207"/>
			<point x="169" y="1198"/>
			<point x="180" y="1188" type="curve"/>
			<point x="184" y="1183"/>
			<point x="185" y="1179"/>
			<point x="182" y="1174" type="curve" smooth="yes"/>
			<point x="154" y="1130" type="line" smooth="yes"/>
			<point x="150" y="1124"/>
			<point x="146" y="1123"/>
			<point x="141" y="1127" type="curve" smooth="yes"/>
			<point x="136" y="1131"/>
			<point x="122" y="1140"/>
			<point x="98" y="1154" type="curve" smooth="yes"/>
			<point x="93" y="1157"/>
			<point x="91" y="1161"/>
			<point x="94" y="1167" type="curve"/>
		</contour>
		<contour>
			<point x="243" y="1122" type="line" smooth="yes"/>
			<point x="257" y="1096"/>
			<point x="268" y="1065"/>
			<point x="277" y="1029" type="curve" smooth="yes"/>
			<point x="286" y="993"/>
			<point x="287" y="961"/>
			<point x="283" y="934" type="curve" smooth="yes"/>
			<point x="279" y="907"/>
			<point x="273" y="887"/>
			<point x="264" y="873" type="curve" smooth="yes"/>
			<point x="240" y="836"/>
			<point x="199" y="815"/>
			<point x="141" y="809" type="curve"/>
			<point x="99" y="805"/>
			<point x="65" y="813"/>
			<point x="43" y="834" type="curve"/>
			<point x="21" y="855"/>
			<point x="11" y="885"/>
			<point x="13" y="921" type="curve" smooth="yes"/>
			<point x="15" y="957"/>
			<point x="28" y="991"/>
			<point x="50" y="1022" type="curve" smooth="yes"/>
			<point x="56" y="1030"/>
			<point x="61" y="1032"/>
			<point x="67" y="1027" type="curve" smooth="yes"/>
			<point x="74" y="1022"/>
			<point x="75" y="1015"/>
			<point x="70" y="1006" type="curve" smooth="yes"/>
			<point x="48" y="968"/>
			<point x="43" y="938"/>
			<point x="56" y="916" type="curve"/>
			<point x="70" y="894"/>
			<point x="99" y="883"/>
			<point x="143" y="883" type="curve" smooth="yes"/>
			<point x="187" y="883"/>
			<point x="223" y="898"/>
			<point x="252" y="929" type="curve"/>
			<point x="252" y="930" type="line" smooth="yes"/>
			<point x="252" y="947"/>
			<point x="247" y="971"/>
			<point x="236" y="1000" type="curve" smooth="yes"/>
			<point x="225" y="1029"/>
			<point x="216" y="1051"/>
			<point x="207" y="1064" type="curve"/>
			<point x="203" y="1070"/>
			<point x="202" y="1076"/>
			<point x="204" y="1082" type="curve" smooth="yes"/>
			<point x="221" y="1123" type="line" smooth="yes"/>
			<point x="222" y="1126"/>
			<point x="224" y="1129"/>
			<point x="226" y="1130" type="curve" smooth="yes"/>
			<point x="232" y="1134"/>
			<point x="238" y="1132"/>
			<point x="243" y="1123" type="curve" smooth="yes"/>
		</contour>
	</outline>
	<anchor name="TashkilTashkilAbove" x="127" y="1249"/>
	<anchor name="_MarkAbove" x="141" y="801"/>
	<anchor name="_NoonAbove" x="142" y="801"/>
</glyph>
